<svg xmlns="http://www.w3.org/2000/svg" xmlns:xlink="http://www.w3.org/1999/xlink" fill="none" version="1.1" width="16" height="16" viewBox="0 0 16 16"><defs><clipPath id="master_svg0_588_07046"><rect x="0" y="0" width="16" height="16" rx="0"/></clipPath><clipPath id="master_svg1_588_05954"><rect x="2" y="2" width="13" height="13" rx="0"/></clipPath></defs><g clipPath="url(#master_svg0_588_07046)"><g clipPath="url(#master_svg1_588_05954)"><g><path d="M2,2L2,13.1428C2,14.1642,2.835732,15,3.8571299999999997,15L15,15L15,2L2,2ZM12.2142,14.0714L8.49999,14.0714L8.49999,12.2142L6.64285,12.2142L6.64285,14.0714L4.7857199999999995,14.0714L4.7857199999999995,10.35717L6.64285,10.35717L8.49999,10.35717L12.2142,10.35717L12.2142,14.0714ZM13.1428,7.57139C13.1428,8.035720000000001,12.6785,8.49999,12.2142,8.49999L4.7857199999999995,8.49999C4.32139,8.49999,3.85712,8.035720000000001,3.85712,7.57139L3.85712,2.928599L13.1428,2.928599L13.1428,7.57139Z" fill="#6460A2" fillOpacity="1" style="mix-blend-mode:passthrough"/></g></g></g></svg>