<svg xmlns="http://www.w3.org/2000/svg" xmlns:xlink="http://www.w3.org/1999/xlink" fill="#000" version="1.1" width="16" height="16" viewBox="0 0 16 16"><defs><clipPath id="master_svg0_588_06059"><rect x="0" y="0" width="16" height="16" rx="0"/></clipPath></defs><g clip-path="url(#master_svg0_588_06059)"><g><path d="M4.76923,14.4L13.5,14.4Q13.8728,14.4,14.1364,14.1364Q14.4,13.8728,14.4,13.5L14.4,5.10411Q14.4,4.70071,14.0989,4.43229L11.1776,1.828179Q10.92163,1.6,10.57873,1.6L2.5,1.6Q2.127208,1.6,1.863604,1.863604Q1.6,2.127208,1.6,2.5L1.6,13.5Q1.6,13.8728,1.863604,14.1364Q2.127207,14.4,2.5,14.4L4.76923,14.4ZM10.83077,13.6L5.169230000000001,13.6L5.169230000000001,11.04L10.83077,11.04L10.83077,13.6ZM11.63077,13.6L13.5,13.6Q13.6,13.6,13.6,13.5L13.6,5.10411Q13.6,5.05929,13.5665,5.02946L10.64527,2.425354Q10.61683,2.4,10.57873,2.4L2.5,2.4Q2.4,2.4,2.4,2.5L2.4,13.5Q2.4,13.6,2.5,13.6L4.36923,13.6L4.36923,10.24L11.63077,10.24L11.63077,13.6ZM5.169230000000001,7.28L5.169230000000001,3.92L4.36923,3.92L4.36923,7.28L5.169230000000001,7.28Z" fill-rule="evenodd"  fill-opacity="1"/></g></g></svg>