<svg xmlns="http://www.w3.org/2000/svg" xmlns:xlink="http://www.w3.org/1999/xlink" fill="#000" version="1.1" width="16" height="16" viewBox="0 0 16 16"><defs><clipPath id="master_svg0_588_06170"><rect x="16" y="0" width="16" height="16" rx="0"/></clipPath></defs><g transform="matrix(-1,0,0,1,32,0)" clip-path="url(#master_svg0_588_06170)"><g transform="matrix(-1,0,0,1,58,0)"><g transform="matrix(0.9466611742973328,0.3222307562828064,-0.3314545750617981,0.9434711933135986,5.00428226708236,-9.532462238774158)"><ellipse cx="32.67330455780029" cy="12.2217857837677" rx="1.3268911838531494" ry="2.1682169437408447" fill-opacity="1" stroke-opacity="0" stroke="#000000"  stroke-width="0.7427201867103577"/></g><g transform="matrix(-0.9466611742973328,0.3222307562828064,0.3314545750617981,0.9434711933135986,68.01981306007562,-11.242596766349862)"><ellipse cx="37.980478048324585" cy="12.2217857837677" rx="1.3268911838531494" ry="2.1682169437408447" fill-opacity="1" stroke-opacity="0" stroke="#000000"  stroke-width="0.7427201867103577"/></g><g><path d="M33.68718374473572,8.50911L32.34097774473572,10.27592L32.34205974473572,10.27675Q32.26636374473572,10.37609,32.26636374473572,10.50099Q32.26636374473572,10.53743,32.27347274473572,10.57317Q32.28058274473572,10.60891,32.294528744735715,10.64258Q32.30847374473572,10.67625,32.328719744735714,10.70655Q32.348965744735715,10.73685,32.37473474473572,10.76262Q32.40050274473572,10.78839,32.430802744735715,10.80863Q32.46110274473572,10.82888,32.49477074473572,10.84282Q32.528438744735716,10.85677,32.56418034473572,10.86388Q32.59992194473572,10.87099,32.63636374473572,10.87099Q32.72296714473572,10.87099,32.800573744735715,10.83255Q32.878180744735715,10.79412,32.930667744735715,10.72523L32.93174974473572,10.72606L34.28874374473572,8.94509L38.21838374473572,4.37377Q38.750653744735715,3.75458,38.636713744735715,2.946037Q38.522773744735716,2.137498,37.840103744735714,1.689521L37.50232374473572,1.467861L33.68718374473572,8.50911ZM35.97738374473572,5.84135L37.733263744735716,2.6006869999999997Q37.86533374473572,2.7947100000000002,37.901263744735715,3.04968Q37.96829374473572,3.52534,37.65516374473572,3.8896100000000002L35.97738374473572,5.84135Z" fill-rule="evenodd"  fill-opacity="1"/></g><g transform="matrix(-1,0,0,1,70.72727298736572,0)"><path d="M36.41445649368286,8.50911L35.06825049368286,10.27592L35.069332493682865,10.27675Q34.993636493682864,10.37609,34.993636493682864,10.50099Q34.993636493682864,10.53743,35.000745493682864,10.57317Q35.00785549368286,10.60891,35.02180149368286,10.64258Q35.035746493682865,10.67625,35.05599249368286,10.70655Q35.07623849368286,10.73685,35.10200749368286,10.76262Q35.12777549368286,10.78839,35.15807549368286,10.80863Q35.18837549368286,10.82888,35.22204349368286,10.84282Q35.25571149368286,10.85677,35.29145309368286,10.86388Q35.32719469368286,10.87099,35.36363649368286,10.87099Q35.45023989368286,10.87099,35.52784649368286,10.83255Q35.60545349368286,10.79412,35.65794049368286,10.72523L35.65902249368286,10.72606L37.01601649368286,8.94509L40.94565649368286,4.37377Q41.47792649368286,3.75458,41.36398649368286,2.946037Q41.25004649368286,2.137498,40.56737649368286,1.689521L40.22959649368286,1.467861L36.41445649368286,8.50911ZM38.70465649368286,5.84135L40.46053649368286,2.6006869999999997Q40.592606493682865,2.7947100000000002,40.62853649368286,3.04968Q40.69556649368286,3.52534,40.38243649368286,3.8896100000000002L38.70465649368286,5.84135Z" fill-rule="evenodd"  fill-opacity="1"/></g></g></g></svg>