<svg xmlns="http://www.w3.org/2000/svg" xmlns:xlink="http://www.w3.org/1999/xlink" fill="none" version="1.1" width="16" height="16" viewBox="0 0 16 16"><defs><clipPath id="master_svg0_588_06402"><rect x="16" y="0" width="16" height="16" rx="0"/></clipPath></defs><g transform="matrix(-1,0,0,1,32,0)" clipPath="url(#master_svg0_588_06402)"><g><path d="M16.6,2L16.6,14L17.4,14L17.4,2L16.6,2ZM18.6,4.5L18.6,6Q18.6,6.5799,19.01005,6.98995Q19.4201,7.4,20,7.4L24,7.4Q24.579900000000002,7.4,24.98995,6.98995Q25.4,6.5799,25.4,6L25.4,4.5Q25.4,3.9200999999999997,24.98995,3.5100499999999997Q24.579900000000002,3.1,24,3.1L20,3.1Q19.4201,3.1,19.01005,3.5100499999999997Q18.6,3.9200999999999997,18.6,4.5ZM19.57574,6.42426Q19.4,6.24853,19.4,6L19.4,4.5Q19.4,4.2,19.55,4.05Q19.7,3.9,20,3.9L24,3.9Q24.6,3.9,24.6,4.5L24.6,6Q24.6,6.6,24,6.6L20,6.6Q19.75147,6.6,19.57574,6.42426ZM18.6,9.5L18.6,11.5Q18.6,12.0799,19.01005,12.49Q19.4201,12.9,20,12.9L29.5,12.9Q30.079900000000002,12.9,30.4899,12.49Q30.9,12.0799,30.9,11.5L30.9,9.5Q30.9,8.9201,30.4899,8.51005Q30.079900000000002,8.1,29.5,8.1L20,8.1Q19.4201,8.1,19.01005,8.51005Q18.6,8.9201,18.6,9.5ZM19.57574,11.92426Q19.4,11.74853,19.4,11.5L19.4,9.5Q19.4,9.251470000000001,19.57574,9.07574Q19.75147,8.9,20,8.9L29.5,8.9Q30.1,8.9,30.1,9.5L30.1,11.5Q30.1,12.1,29.5,12.1L20,12.1Q19.75147,12.1,19.57574,11.92426Z" fillRule="evenodd" fill="#000000" fillOpacity="1"/></g></g></svg>