<svg xmlns="http://www.w3.org/2000/svg" xmlns:xlink="http://www.w3.org/1999/xlink" fill="none" version="1.1" width="16" height="16" viewBox="0 0 16 16"><defs><clipPath id="master_svg0_589_05994"><rect x="0" y="0" width="16" height="16" rx="0"/></clipPath></defs><g clip-path="url(#master_svg0_589_05994)"><g><g><rect x="2.4000000059604645" y="3.4000000059604645" width="11.199999988079071" height="9.199999988079071" rx="0.09999999403953552" fill-opacity="0" stroke-opacity="1" stroke="#000000" fill="none" stroke-width="0.800000011920929"/></g><g><path d="M9.94501,9.95876L13.6576,8.36766Q13.7115,8.34453,13.7566,8.30687Q13.8016,8.26921,13.8339,8.2202Q13.8663,8.17118,13.8831,8.11495Q13.9,8.05871,13.9,8Q13.9,7.9605999999999995,13.8923,7.92196Q13.8846,7.88332,13.8696,7.84693Q13.8545,7.81053,13.8326,7.77777Q13.8107,7.74501,13.7828,7.71716Q13.755,7.6893,13.7222,7.66741Q13.6895,7.64552,13.6531,7.63045Q13.6167,7.61537,13.578,7.60769Q13.5394,7.6,13.5,7.6Q13.4179,7.6,13.3424,7.63234L10.05499,9.04124L6.02974,6.022305L2.301701,8.15261L2.301544,8.1527Q2.255625,8.17894,2.218103,8.21621Q2.1805820000000002,8.25349,2.154036,8.29923Q2.12749,8.34497,2.1137449999999998,8.39604Q2.1,8.44711,2.1,8.5Q2.1,8.5394,2.107686,8.57804Q2.115372,8.61668,2.130448,8.65307Q2.145525,8.68947,2.167412,8.72223Q2.1893000000000002,8.75499,2.217157,8.78284Q2.245015,8.8107,2.277772,8.83259Q2.310529,8.85448,2.346927,8.86955Q2.383324,8.88463,2.4219639,8.89231Q2.4606034,8.9,2.5,8.9Q2.606226,8.9,2.698456,8.8473L2.698736,8.84714L5.97026,6.977695L9.94501,9.95876Z" fill-rule="evenodd" fill="#000000" fill-opacity="1"/></g><g><ellipse cx="11" cy="6" rx="1" ry="1" fill="#000000" fill-opacity="1"/></g></g></g></svg>