<svg xmlns="http://www.w3.org/2000/svg" xmlns:xlink="http://www.w3.org/1999/xlink" fill="none" version="1.1" width="16" height="16" viewBox="0 0 16 16"><defs><clipPath id="master_svg0_588_06440"><rect x="16" y="0" width="16" height="16" rx="0"/></clipPath></defs><g transform="matrix(-1,0,0,1,32,0)" clip-path="url(#master_svg0_588_06440)"><g transform="matrix(2.2348338291067193e-8,-1,-1,-2.2348338291067193e-8,44.999999312788596,45.00000031846382)"><path d="M36.15,19.75L36.15,14.25L35.35,14.25L35.35,19.75L36.15,19.75ZM38.65,19.75L38.65,14.25L37.85,14.25L37.85,19.75L38.65,19.75ZM30.35,22.25L30.35,27.25Q30.35,27.829900000000002,30.7600505,28.2399Q31.1701,28.65,31.75,28.65L34.75,28.65Q35.3299,28.65,35.73995,28.2399Q36.15,27.829900000000002,36.15,27.25L36.15,22.25Q36.15,21.670099999999998,35.73995,21.26005Q35.3299,20.85,34.75,20.85L31.75,20.85Q31.170102,20.85,30.7600505,21.26005Q30.35,21.670099999999998,30.35,22.25ZM43.24,21.26005Q42.8299,20.85,42.25,20.85L39.25,20.85Q38.6701,20.85,38.26005,21.26005Q37.85,21.670099999999998,37.85,22.25L37.85,27.25Q37.85,27.829900000000002,38.26005,28.240000000000002Q38.6701,28.65,39.25,28.65L42.25,28.65Q42.8299,28.65,43.2399,28.2399Q43.65,27.829900000000002,43.65,27.25L43.65,22.25Q43.65,21.670099999999998,43.24,21.26005ZM31.75,27.85Q31.15,27.85,31.15,27.25L31.15,22.25Q31.15,22.00147,31.325736,21.82574Q31.501472,21.65,31.75,21.65L34.75,21.65Q35.35,21.65,35.35,22.25L35.35,27.25Q35.35,27.85,34.75,27.85L31.75,27.85ZM39.25,21.65L42.25,21.65Q42.85,21.65,42.85,22.25L42.85,27.25Q42.85,27.85,42.25,27.85L39.25,27.85Q38.65,27.85,38.65,27.25L38.65,22.25Q38.65,21.65,39.25,21.65Z" fill-rule="evenodd" fill="#000000" fill-opacity="1"/></g></g></svg>