<svg xmlns="http://www.w3.org/2000/svg" xmlns:xlink="http://www.w3.org/1999/xlink" fill="none" version="1.1" width="16" height="16" viewBox="0 0 16 16"><defs><clipPath id="master_svg0_588_06412"><rect x="16" y="0" width="16" height="16" rx="0"/></clipPath></defs><g transform="matrix(-1,0,0,1,32,0)" clip-path="url(#master_svg0_588_06412)"><g transform="matrix(1,2.2348338291067193e-8,-2.2348338291067193e-8,1,1.6761255494657235e-8,-3.910959200936759e-7)"><path d="M23.90024,3.1L25.500239999999998,3.1Q26.08014,3.1,26.49019,3.51005Q26.90024,3.9201,26.90024,4.5L26.90024,6Q26.90024,6.5799,26.49019,6.98995Q26.08014,7.4,25.500239999999998,7.4L23.90024,7.4L23.90024,8.1L28.75,8.1Q29.329900000000002,8.1,29.740000000000002,8.51005Q30.15,8.9201,30.15,9.5L30.15,11.5Q30.15,12.0799,29.7399,12.4899Q29.329900000000002,12.9,28.75,12.9L23.90024,12.9L23.90024,15.25L23.10024,15.25L23.10024,12.9L18.5,12.9Q17.920101,12.9,17.5100507,12.4899Q17.1,12.0799,17.1,11.5L17.1,9.5Q17.1,8.9201,17.5100506,8.51005Q17.920101,8.1,18.5,8.1L23.10024,8.1L23.10024,7.4L21.500239999999998,7.4Q20.92034,7.4,20.51029,6.98995Q20.10024,6.5799,20.10024,6L20.10024,4.5Q20.10024,3.9201,20.51029,3.51005Q20.92034,3.1,21.500239999999998,3.1L23.10024,3.1L23.10024,0.75L23.90024,0.75L23.90024,3.1ZM21.500239999999998,3.9L23.500239999999998,3.9L25.500239999999998,3.9Q25.74877,3.9,25.924509999999998,4.07574Q26.10024,4.251469999999999,26.10024,4.5L26.10024,6Q26.10024,6.6,25.500239999999998,6.6L21.500239999999998,6.6Q21.25172,6.6,21.07598,6.42426Q20.90024,6.24853,20.90024,6L20.90024,4.5Q20.90024,3.9,21.500239999999998,3.9ZM18.5,8.9L28.75,8.9Q29.35,8.9,29.35,9.5L29.35,11.5Q29.35,12.1,28.75,12.1L18.5,12.1Q17.9,12.1,17.9,11.5L17.9,9.5Q17.9,9.25147,18.075736,9.07574Q18.251472,8.9,18.5,8.9Z" fill-rule="evenodd" fill="#000000" fill-opacity="1"/></g></g></svg>