<svg xmlns="http://www.w3.org/2000/svg" xmlns:xlink="http://www.w3.org/1999/xlink" fill="none" version="1.1" width="16" height="16" viewBox="0 0 16 16"><defs><clipPath id="master_svg0_588_06079"><rect x="16" y="0" width="16" height="16" rx="0"/></clipPath></defs><g transform="matrix(-1,0,0,1,32,0)" clip-path="url(#master_svg0_588_06079)"><g transform="matrix(-1,0,0,1,60,0)"><g><path d="M32.302043630599975,3.51802L32.302043630599975,2.980029Q32.302043630599975,2.883504,32.320873630599976,2.788834Q32.33970363059998,2.694165,32.37664363059997,2.604988Q32.41358363059997,2.5158110000000002,32.46721363059998,2.4355539999999998Q32.520833630599974,2.355297,32.589093630599976,2.287044Q32.657343630599975,2.218791,32.73760363059998,2.165165Q32.81785363059998,2.111538,32.907033630599976,2.0746002Q32.996213630599975,2.0376619,33.090883630599976,2.018831Q33.185553630599976,2,33.282073630599974,2L41.02194363059998,2Q41.11844363059998,2,41.21314363059997,2.018831Q41.307843630599976,2.0376619,41.397043630599974,2.0746002Q41.486143630599976,2.111538,41.56644363059998,2.165165Q41.646643630599975,2.218791,41.714943630599976,2.287044Q41.783243630599976,2.355297,41.83684363059997,2.4355539999999998Q41.890443630599975,2.5158110000000002,41.92734363059998,2.604988Q41.96434363059998,2.694165,41.983143630599976,2.788834Q42.001943630599975,2.883504,42.001943630599975,2.980029L42.001943630599975,10.72001Q42.001943630599975,10.81653,41.983143630599976,10.9112Q41.96434363059998,11.00587,41.92734363059998,11.09505Q41.890443630599975,11.18422,41.83684363059997,11.26448Q41.783243630599976,11.34474,41.714943630599976,11.41299Q41.646643630599975,11.48124,41.56644363059998,11.53487Q41.486143630599976,11.5885,41.397043630599974,11.62543Q41.307843630599976,11.66237,41.21314363059997,11.6812Q41.11844363059998,11.70003,41.02194363059998,11.70004L40.483943630599974,11.70004L40.483943630599974,12.63Q40.483943630599974,13.1984,40.08214363059997,13.6002Q39.680243630599975,14.0021,39.11193363059998,14.0021L31.372043630599975,14.0021Q30.803721630599977,14.0021,30.401861630599974,13.6002Q29.999999999999975,13.1984,29.999999999999975,12.63L29.999999910599975,4.89006Q29.999999940399977,4.32175,30.401861630599974,3.91988Q30.803722630599975,3.51802,31.372043630599975,3.51802L32.302043630599975,3.51802ZM32.302043630599975,4.3020499999999995L31.372043630599975,4.3020499999999995Q30.784022630599974,4.3020499999999995,30.784022630599974,4.89006L30.784022630599974,12.63Q30.784022630599974,13.2181,31.372043630599975,13.2181L39.11193363059998,13.2181Q39.699943630599975,13.2181,39.699943630599975,12.63L39.69995363059998,11.70004L33.282073630599974,11.70004Q33.185553630599976,11.70003,33.090883630599976,11.6812Q32.996213630599975,11.66237,32.907033630599976,11.62543Q32.81785363059998,11.5885,32.73760363059998,11.53487Q32.657343630599975,11.48124,32.589093630599976,11.41299Q32.520833630599974,11.34474,32.46721363059998,11.26448Q32.41358363059997,11.18422,32.37664363059997,11.09505Q32.33970363059998,11.00587,32.320873630599976,10.9112Q32.302043630599975,10.81653,32.302043630599975,10.72001L32.302043630599975,4.3020499999999995ZM33.08606363059997,10.72001Q33.08606363059997,10.91601,33.282073630599974,10.91601L41.02194363059998,10.91601Q41.217943630599976,10.91601,41.217943630599976,10.72001L41.217943630599976,2.980029Q41.217943630599976,2.898841,41.160543630599975,2.841431Q41.10314363059997,2.784023,41.02194363059998,2.784023L33.282073630599974,2.784023Q33.08606363059997,2.784023,33.08606363059997,2.980029L33.08606363059997,10.72001Z" fill-rule="evenodd" fill="#000000" fill-opacity="1"/></g><g><g><path d="M35.212148666381836,7.241713000617981L39.09212866638184,7.241713000617981L39.09212866638184,7.239702000617981Q39.13053866638184,7.239702000617981,39.16820866638184,7.232208000617981Q39.20588866638184,7.224714000617981,39.24136866638184,7.210015000617981Q39.276858666381834,7.195315000617981,39.30879866638183,7.173975000617981Q39.34073866638184,7.152635000617981,39.36789866638183,7.125474000617981Q39.395058666381836,7.098312000617981,39.41639866638184,7.066374000617981Q39.43773866638183,7.034436000617981,39.45243866638184,6.998948000617981Q39.467138666381835,6.963461000617981,39.47462866638183,6.925787200617981Q39.48212866638184,6.888113600617981,39.48212866638184,6.849702000617981Q39.48212866638184,6.811290400617981,39.47462866638183,6.773616800617981Q39.467138666381835,6.735943000617981,39.45243866638184,6.700456000617981Q39.43773866638183,6.664968000617981,39.41639866638184,6.633030000617981Q39.395058666381836,6.601092000617981,39.36789866638183,6.573930000617981Q39.34073866638184,6.546769000617981,39.30879866638183,6.525429000617981Q39.276858666381834,6.504089000617981,39.24136866638184,6.489389000617981Q39.20588866638184,6.474690000617981,39.16820866638184,6.467196000617981Q39.13053866638184,6.459702000617981,39.09212866638184,6.459702000617981L39.09212866638184,6.457691000617981L35.212148666381836,6.457691000617981L35.212148666381836,6.459702000617981Q35.17373706638183,6.459702000617981,35.136063466381835,6.467196000617981Q35.098389666381834,6.474690000617981,35.06290266638184,6.489389000617981Q35.02741466638184,6.504089000617981,34.99547666638183,6.525429000617981Q34.96353866638184,6.546769000617981,34.93637666638183,6.573930000617981Q34.90921566638183,6.601092000617981,34.88787566638184,6.633030000617981Q34.866535666381836,6.664968000617981,34.85183566638184,6.700456000617981Q34.83713666638184,6.735943000617981,34.82964266638184,6.773616800617981Q34.822148666381835,6.811290400617981,34.822148666381835,6.849702000617981Q34.822148666381835,6.888113600617981,34.82964266638184,6.925787200617981Q34.83713666638184,6.963461000617981,34.85183566638184,6.998948000617981Q34.866535666381836,7.034436000617981,34.88787566638184,7.066374000617981Q34.90921566638183,7.098312000617981,34.93637666638183,7.125474000617981Q34.96353866638184,7.152635000617981,34.99547666638183,7.173975000617981Q35.02741466638184,7.195315000617981,35.06290266638184,7.210015000617981Q35.098389666381834,7.224714000617981,35.136063466381835,7.232208000617981Q35.17373706638183,7.239702000617981,35.212148666381836,7.239702000617981L35.212148666381836,7.241713000617981Z" fill-rule="evenodd" fill="#000000" fill-opacity="1"/></g><g transform="matrix(0,1,-1,0,42.06238543987274,-32.242364287376404)"><path d="M37.15237486362457,5.302021576248169L41.03238486362457,5.302021576248169L41.03238486362457,5.300010576248169Q41.07080486362457,5.300010576248169,41.10847486362457,5.292516576248169Q41.14614486362457,5.285022576248169,41.18163486362457,5.270323576248169Q41.217124863624576,5.255623576248169,41.249064863624575,5.234283576248169Q41.28099486362457,5.212943576248169,41.30816486362457,5.185782576248169Q41.33532486362457,5.158620576248169,41.35666486362457,5.126682576248169Q41.378004863624575,5.094744576248169,41.39270486362457,5.059256576248169Q41.40740486362457,5.023769576248169,41.414894863624575,4.986095776248169Q41.42238486362457,4.948422176248169,41.42238486362457,4.910010576248169Q41.42238486362457,4.871598976248169,41.414894863624575,4.833925376248169Q41.40740486362457,4.796251576248169,41.39270486362457,4.760764576248169Q41.378004863624575,4.725276576248169,41.35666486362457,4.693338576248169Q41.33532486362457,4.661400576248169,41.30816486362457,4.634238576248169Q41.28099486362457,4.607077576248169,41.249064863624575,4.585737576248169Q41.217124863624576,4.564397576248169,41.18163486362457,4.549697576248169Q41.14614486362457,4.534998576248169,41.10847486362457,4.527504576248169Q41.07080486362457,4.520010576248169,41.03238486362457,4.520010576248169L41.03238486362457,4.517999576248169L37.15237486362457,4.517999576248169L37.15237486362457,4.520010576248169Q37.11396326362457,4.520010576248169,37.07628966362457,4.527504576248169Q37.03861586362457,4.534998576248169,37.003128863624575,4.549697576248169Q36.967640863624574,4.564397576248169,36.93570286362457,4.585737576248169Q36.90376486362457,4.607077576248169,36.87660286362457,4.634238576248169Q36.84944186362457,4.661400576248169,36.828101863624575,4.693338576248169Q36.80676186362457,4.725276576248169,36.792061863624575,4.760764576248169Q36.777362863624575,4.796251576248169,36.76986886362457,4.833925376248169Q36.76237486362457,4.871598976248169,36.76237486362457,4.910010576248169Q36.76237486362457,4.948422176248169,36.76986886362457,4.986095776248169Q36.777362863624575,5.023769576248169,36.792061863624575,5.059256576248169Q36.80676186362457,5.094744576248169,36.828101863624575,5.126682576248169Q36.84944186362457,5.158620576248169,36.87660286362457,5.185782576248169Q36.90376486362457,5.212943576248169,36.93570286362457,5.234283576248169Q36.967640863624574,5.255623576248169,37.003128863624575,5.270323576248169Q37.03861586362457,5.285022576248169,37.07628966362457,5.292516576248169Q37.11396326362457,5.300010576248169,37.15237486362457,5.300010576248169L37.15237486362457,5.302021576248169Z" fill-rule="evenodd" fill="#000000" fill-opacity="1"/></g></g></g></g></svg>