<svg xmlns="http://www.w3.org/2000/svg" xmlns:xlink="http://www.w3.org/1999/xlink" fill="#000" version="1.1" width="16" height="16" viewBox="0 0 16 16"><defs><clipPath id="master_svg0_588_06424"><rect x="16" y="0" width="16" height="16" rx="0"/></clipPath></defs><g transform="matrix(-1,0,0,1,32,0)" clip-path="url(#master_svg0_588_06424)"><g transform="matrix(-1,0,0,1,61,0)"><path d="M43.1,1L43.1,15L43.9,15L43.9,1L43.1,1ZM40.9,12L40.9,4.5Q40.9,3.9201,40.48995,3.51005Q40.0799,3.1,39.5,3.1L35.5,3.1L31.5,3.1Q30.920101,3.1,30.5100506,3.51005Q30.1,3.9201,30.1,4.5L30.1,8.25L30.1,12Q30.1,12.5799,30.5100504,12.9899Q30.920101,13.4,31.5,13.4L39.5,13.4Q40.0799,13.4,40.48995,12.9899Q40.9,12.5799,40.9,12ZM35.9,12.6L39.5,12.6Q39.74853,12.6,39.924260000000004,12.4243Q40.1,12.2485,40.1,12L40.1,8.65L35.9,8.65L35.9,12.6ZM35.9,7.85L40.1,7.85L40.1,4.5Q40.1,4.251469999999999,39.924260000000004,4.07574Q39.74853,3.9,39.5,3.9L35.9,3.9L35.9,7.85ZM35.1,3.9L35.1,7.85L30.9,7.85L30.9,4.5Q30.9,4.251469999999999,31.075736,4.07574Q31.251472,3.9,31.5,3.9L35.1,3.9ZM35.1,8.65L30.9,8.65L30.9,12Q30.9,12.6,31.5,12.6L35.1,12.6L35.1,8.65Z" fill-rule="evenodd"  fill-opacity="1"/></g></g></svg>