<svg xmlns="http://www.w3.org/2000/svg" xmlns:xlink="http://www.w3.org/1999/xlink" fill="none" version="1.1" width="16" height="16" viewBox="0 0 16 16"><defs><clipPath id="master_svg0_588_07092"><rect x="0" y="0" width="16" height="16" rx="0"/></clipPath></defs><g clipPath="url(#master_svg0_588_07092)"><g><g><rect x="2.4000000059604645" y="2.4000000059604645" width="10.199999988079071" height="11.199999988079071" rx="0" fillOpacity="0" strokeOpacity="1" stroke="#7099C8" fill="none" strokeWidth="0.800000011920929"/></g><g><path d="M10.5,4.4L4,4.4L4,3.6L10.5,3.6L10.5,4.4Z" fillRule="evenodd" fill="#7099C8" fillOpacity="1"/></g><g><path d="M6,7.5L6,10L11,10L11,11.5L14.5,8.5L11,6L11,7.5L6,7.5Z" fill="#9ADF8A" fillOpacity="1"/><path d="M5.6,7.1L5.6,10.4L10.6,10.4L10.6,12.36969L15.14807,8.47134L10.6,5.222724L10.6,7.1L5.6,7.1ZM6.4,9.6L11.4,9.6L11.4,10.63031L13.85193,8.52866L11.4,6.777276L11.4,7.9L6.4,7.9L6.4,9.6Z" fillRule="evenodd" fill="#73AF5B" fillOpacity="1"/></g></g></g></svg>