<svg xmlns="http://www.w3.org/2000/svg" xmlns:xlink="http://www.w3.org/1999/xlink" fill="#000" version="1.1" width="16" height="16" viewBox="0 0 16 16"><defs><clipPath id="master_svg0_589_05837"><rect x="16" y="0" width="16" height="16" rx="0"/></clipPath></defs><g transform="matrix(-1,0,0,1,32,0)" clip-path="url(#master_svg0_589_05837)"><g transform="matrix(-1,0,0,1,62,0)"><g></g><g><g><ellipse cx="33.40000003576279" cy="3.4333333671092987" rx="1.5999999940395355" ry="1.5999999940395355" fill-opacity="0" stroke-opacity="1" stroke="#000000" fill="#000" stroke-width="0.800000011920929"/></g><g><ellipse cx="43.00000041723251" cy="11.666666954755783" rx="1.5999999940395355" ry="1.5999999940395355" fill-opacity="0" stroke-opacity="1" stroke="#000000" fill="#000" stroke-width="0.800000011920929"/></g><g><path d="M38.26874003576279,12.125000184774398L41.200000035762784,12.125000184774398L41.200000035762784,11.3250001847744L38.40000003576279,11.3250001847744L38.40000003576279,3.543743184774399Q38.40000003576279,3.2667405747743987,38.20413003576279,3.0708701847743987Q38.00826003576279,2.875000184774399,37.73126003576279,2.875000184774399L34.90000003576279,2.875000184774399L34.90000003576279,3.6750001847743987L37.60000003576279,3.6750001847743987L37.60000003576279,11.456260184774399Q37.60000003576279,11.733260184774398,37.79587003576279,11.9291301847744Q37.99174003576279,12.125000184774398,38.26874003576279,12.125000184774398Z" fill-rule="evenodd"  fill-opacity="1"/></g></g></g></g></svg>