<svg xmlns="http://www.w3.org/2000/svg" xmlns:xlink="http://www.w3.org/1999/xlink" fill="none" version="1.1" width="16" height="16" viewBox="0 0 16 16"><defs><clipPath id="master_svg0_588_06406"><rect x="16" y="0" width="16" height="16" rx="0"/></clipPath></defs><g transform="matrix(-1,0,0,1,32,0)" clipPath="url(#master_svg0_588_06406)"><g transform="matrix(0,-1,-1,0,44.500244140625,44.500244140625)"><path d="M29.35,14.750244140625L29.35,26.750244140625L30.15,26.750244140625L30.15,14.750244140625L29.35,14.750244140625ZM31.35,17.250244140625L31.35,18.750244140625Q31.35,19.330144140625002,31.76005,19.740194140625Q32.1701,20.150244140625,32.75,20.150244140625L36.75,20.150244140625Q37.3299,20.150244140625,37.73995,19.740194140625Q38.15,19.330144140625002,38.15,18.750244140625L38.15,17.250244140625Q38.15,16.670344140625,37.73995,16.260294140625Q37.3299,15.850244140625,36.75,15.850244140625L32.75,15.850244140625Q32.1701,15.850244140625,31.76005,16.260294140625Q31.35,16.670344140625,31.35,17.250244140625ZM32.32574,19.174504140625Q32.15,18.998774140625,32.15,18.750244140625L32.15,17.250244140625Q32.15,16.950244140625,32.3,16.800244140625Q32.45,16.650244140625,32.75,16.650244140625L36.75,16.650244140625Q37.35,16.650244140625,37.35,17.250244140625L37.35,18.750244140625Q37.35,19.350244140625,36.75,19.350244140625L32.75,19.350244140625Q32.50147,19.350244140625,32.32574,19.174504140625ZM31.35,22.250244140625L31.35,24.250244140625Q31.35,24.830144140625002,31.76005,25.240244140625002Q32.1701,25.650244140625,32.75,25.650244140625L42.25,25.650244140625Q42.8299,25.650244140625,43.2399,25.240244140625002Q43.65,24.830144140625002,43.65,24.250244140625L43.65,22.250244140625Q43.65,21.670344140624998,43.2399,21.260294140625Q42.8299,20.850244140625,42.25,20.850244140625L32.75,20.850244140625Q32.1701,20.850244140625,31.76005,21.260294140625Q31.35,21.670344140624998,31.35,22.250244140625ZM32.32574,24.674504140625Q32.15,24.498774140625002,32.15,24.250244140625L32.15,22.250244140625Q32.15,22.001714140625,32.32574,21.825984140625Q32.50147,21.650244140625,32.75,21.650244140625L42.25,21.650244140625Q42.85,21.650244140625,42.85,22.250244140625L42.85,24.250244140625Q42.85,24.850244140625,42.25,24.850244140625L32.75,24.850244140625Q32.50147,24.850244140625,32.32574,24.674504140625Z" fillRule="evenodd" fill="#000000" fillOpacity="1"/></g></g></svg>