<svg xmlns="http://www.w3.org/2000/svg" xmlns:xlink="http://www.w3.org/1999/xlink" fill="#000" version="1.1" width="16" height="16" viewBox="0 0 16 16"><defs><clipPath id="master_svg0_588_06605"><rect x="0" y="0" width="16" height="16" rx="0"/></clipPath></defs><g clip-path="url(#master_svg0_588_06605)"><g><path d="M14,11.3782L14,7.09772C14,6.20468,13.1522,5.48614,12.1134,5.48614L8.79403,5.48614C8.79403,3.98747,9.21194,4.12092,10.31045,3.98747C11.4209,3.85403,12.5433,3.67953,12.5433,1.411001C12.5313,1.185175,12.3164,1.0106727,12.0657,1.000407849C11.79105,0.99014301,11.55224,1.1749100000000001,11.5403,1.411001C11.52836,2.94046,11.22985,3.02258,10.16716,3.14576C9.05672,3.2792,7.79105,3.24841,7.79105,5.48614L3.88657,5.48614C2.847761,5.48614,2.00000013312,6.20468,2.00000013312,7.09772L2.00000013312,11.3884C2.00000013312,12.2815,2.847761,13,3.88657,13L12.1254,13C13.1642,12.9897,14,12.2712,14,11.3782ZM9.24776,7.09772L10.50149,7.09772L10.50149,8.16526L9.24776,8.16526L9.24776,7.09772ZM11.12239,8.69903L11.12239,9.76658L9.86866,9.76658L9.86866,8.69903L11.12239,8.69903ZM9.23582,8.69903L9.23582,9.76658L7.97015,9.76658L7.97015,8.69903L9.23582,8.69903ZM7.34925,7.09772L8.60299,7.09772L8.60299,8.16526L7.34925,8.16526L7.34925,7.09772ZM5.46269,7.09772L6.71642,7.09772L6.71642,8.16526L5.46269,8.16526L5.46269,7.09772ZM7.34925,8.69903L7.34925,9.76658L6.09552,9.76658L6.09552,8.69903L7.34925,8.69903ZM3.57612,7.09772L4.82985,7.09772L4.82985,8.16526L3.57612,8.16526L3.57612,7.09772ZM5.46269,8.69903L5.46269,9.76658L4.208959999999999,9.76658L4.208959999999999,8.69903L5.46269,8.69903ZM4.82985,11.3782L3.57612,11.3782L3.57612,10.31061L4.82985,10.31061L4.82985,11.3782ZM10.50149,11.3782L5.46269,11.3782L5.46269,10.31061L10.50149,10.31061L10.50149,11.3782ZM12.3881,11.3782L11.12239,11.3782L11.12239,10.31061L12.3761,10.31061L12.3761,11.3782L12.3881,11.3782ZM12.3881,8.16526L11.12239,8.16526L11.12239,7.09772L12.3761,7.09772L12.3761,8.16526L12.3881,8.16526Z" fill="#383838" fill-opacity="1" style="mix-blend-mode:passthrough"/></g></g></svg>