<svg xmlns="http://www.w3.org/2000/svg" xmlns:xlink="http://www.w3.org/1999/xlink" fill="none" version="1.1" width="16" height="16" viewBox="0 0 16 16"><defs><clipPath id="master_svg0_588_06655"><rect x="0" y="0" width="16" height="16" rx="0"/></clipPath><clipPath id="master_svg1_588_05946"><rect x="15" y="1" width="14" height="14" rx="0"/></clipPath></defs><g clip-path="url(#master_svg0_588_06655)"><g transform="matrix(-1,0,0,1,30,0)" clip-path="url(#master_svg1_588_05946)"><g><path d="M28.3874615234375,6.162353515625L18.7624315234375,6.162353515625C18.2374415234375,6.162353515625,17.931181523437502,6.424853515625,17.712431523437502,6.949853515625C17.0124415234375,8.831103515625,16.3124365234375,10.712353515625,15.5686865234375,12.593603515625C15.3061865234375,13.249853515625,15.4811865234375,13.599853515625,16.0936865234375,13.599853515625L25.6311615234375,13.599853515625C26.1561615234375,13.599853515625,26.5061615234375,13.337353515625,26.7249615234375,12.768603515625C27.4249615234375,10.887353515625,28.1686615234375,9.006103515625,28.868661523437503,7.168603515625C29.1311615234375,6.512353515625,28.9561615234375,6.162353515625,28.3874615234375,6.162353515625Z" fill="#F3E056" fill-opacity="1" style="mix-blend-mode:passthrough"/></g><g><path d="M18.7625,5.6374267578125C21.0375,5.6811767578125,23.35625,5.6374267578125,25.6312,5.6374267578125L26.1125,5.6374267578125C26.331200000000003,4.1936767578125,26.025,3.8874267578125,25.018700000000003,3.9311767578125C23.3125,3.9749267578125,21.5625,3.9311767578125,19.8125,3.9311767578125C19.50625,3.9311767578125,19.375,3.8874267578125,19.375,3.4499267578125C19.375,2.7499267578125,19.1125,2.4874267578125,18.54375,2.4874267578125L15.83125,2.4874267578125C15.21875,2.4874267578125,15,2.7499267578125,15,3.5374267578125L15,12.1999267578125L15.0875,12.1999267578125C15.175,12.0249267578125,15.21875,11.8499267578125,15.30625,11.7186767578125C15.91875,10.0999267578125,16.575,8.4811767578125,17.1875,6.8624267578125C17.49375,6.0311767578125,17.975,5.6374267578125,18.7625,5.6374267578125Z" fill="#F3E056" fill-opacity="1" style="mix-blend-mode:passthrough"/></g></g></g></svg>