<svg xmlns="http://www.w3.org/2000/svg" xmlns:xlink="http://www.w3.org/1999/xlink" fill="none" version="1.1" width="16" height="16" viewBox="0 0 16 16"><defs><clipPath id="master_svg0_588_06596"><rect x="0" y="0" width="16" height="16" rx="0"/></clipPath></defs><g clipPath="url(#master_svg0_588_06596)"><g transform="matrix(-1,0,0,1,27.74609375,0)"><path d="M19.254936875,13.9987L19.253666875,13.9987C18.436166874999998,13.9987,17.655486875,13.7512,16.994126875,13.2828C16.330226875,12.8131,15.845306875,12.1632,15.590156875,11.4028L15.583816875,11.3838L15.555886875,11.2974L13.937391175,6.14491C13.726669875,5.53178,14.050368875,4.85646,14.662222875,4.63812L14.666030875,4.63685C15.140786875,4.4731000000000005,15.656166875,4.63431,15.968446875,5.00244L15.765336875,3.56547C15.712026875,3.26208,15.784376875,2.94092,15.963366875,2.68323C16.146156875,2.42174,16.416546875,2.24783,16.726276875,2.1932400000000003C17.038556875,2.13739,17.354636875,2.20975,17.617406875,2.39762C17.828126875,2.54741,17.981726875,2.75305,18.061696875,2.99043L18.064236875,2.16785C18.064236875,1.524265,18.597386874999998,1,19.253666875,1C19.904876875,1,20.436756875,1.519188,20.441836875,2.1577L20.515456874999998,3.76985L20.611936874999998,3.22273C20.652556875000002,2.91807,20.808696875,2.64261,21.052416875,2.44712C21.303766875,2.24529,21.614766875,2.15516,21.929576875000002,2.1907L21.934656875,2.19197C22.248196874999998,2.23259,22.527466875000002,2.39254,22.722956875,2.64134C22.917176875,2.89015,23.004766875,3.20115,22.967956875,3.5147L22.965416875000003,3.52866L22.285016875,7.97412C22.279936875,8.01221,22.274856874999998,8.0541,22.268506875,8.09853C22.249466875,8.23562,22.202506874999997,8.57709,22.219006874999998,8.72054C22.239316875,8.70403,22.265976875,8.676110000000001,22.292626875,8.63168L23.212946875,6.96241L23.226916875,6.9421C23.456676875,6.62221,23.845116875000002,6.40895,24.266546875,6.37213C24.665146874999998,6.33659,25.045946875,6.4648,25.311246875000002,6.72249C25.584246874999998,6.98906,25.735246875,7.31149,25.745446875,7.65423C25.755546875,7.97032,25.650246875,8.29909,25.433146875,8.630410000000001C25.374746875,8.72815,24.835246875,9.63578,24.210746874999998,10.58529C23.008576875,12.412,22.516046875,12.855,22.250736875,13.0162C21.819136874999998,13.3298,21.344386874999998,13.5722,20.837886875,13.7398C20.326316875,13.9086,19.793166875,13.9962,19.253666875,14L19.254936875,13.9987ZM16.365766875,11.1603C16.778326875,12.3726,17.936026875,13.185,19.252396875,13.1863C20.170176875,13.18,21.047336875,12.8905,21.788676875,12.3485L21.805176875,12.3358L21.822946875,12.3257C21.927036875,12.2647,22.356096875,11.9271,23.534106875,10.13719C24.181546875000002,9.1534,24.734946875,8.21658,24.740046875,8.20769L24.751446875,8.18992C25.063746875,7.7177,24.922846874999998,7.47652,24.745146875,7.30261C24.649946874999998,7.20994,24.501446875,7.16551,24.338946874999998,7.17947C24.161146875,7.19471,23.994946875,7.27849,23.899746874999998,7.39908L22.999686875000002,9.03281L22.997146875,9.03662C22.785156875,9.3984,22.438606874999998,9.59262,22.093326875000002,9.54311C21.807716875,9.50249,21.638886875,9.30319,21.583026875,9.23845L21.576686875,9.23211C21.348186875,8.969339999999999,21.386276875,8.55043,21.463706875,7.98555C21.470056875,7.94239,21.475126875,7.90177,21.480206875,7.86495L21.481476875,7.8548L22.161876875,3.41441C22.182186875,3.21131,22.036206874999998,3.02597,21.834376875,2.99805C21.636346875,2.97647,21.440856875,3.1326,21.416736874999998,3.33317L21.414196875000002,3.35475L20.761726875,7.06015L20.750296875,7.09316C20.666516875,7.32546,20.462146875000002,7.46128,20.239996875,7.42955C20.071166875,7.40543,19.868066875,7.2696,19.847746875,6.96621L19.847746875,6.95733L19.629416875,2.17801L19.629416875,2.16785C19.629416875,1.971096,19.460586875,1.81242,19.253666875,1.81242C19.045486875,1.81242,18.876656875000002,1.972366,18.876656875000002,2.16785L18.876656875000002,2.16912L18.861426875,6.96748C18.867766875,7.20613,18.697666875,7.4067,18.467906875,7.42828C18.235606875000002,7.44986,18.037576875,7.28737,18.000766875,7.04873L17.306396875,3.30524C17.269586875,3.10341,17.063936875,2.9587000000000003,16.867186875,2.9929699999999997L16.865916875,2.9929699999999997C16.770706875000002,3.00947,16.686926875,3.06406,16.629806875,3.14657C16.571406875,3.23035,16.548566875,3.3319,16.565066875,3.42711L16.567606875,3.44361L17.190886875,7.86242L17.190886875,7.89034C17.190886875,8.19627,17.000466875,8.33971,16.836716875,8.37145C16.675506875,8.40191,16.448276875,8.33971,16.341646875,8.06298L16.340376875,8.06044L15.414976875,5.64476C15.343896875,5.448,15.123016875,5.33756,14.932606875,5.4023C14.739656875,5.47212,14.638103875,5.68665,14.705382875,5.88087L14.709190875,5.89357L16.328956875,11.0499L16.365766875,11.1603Z" fill="#000000" fillOpacity="1" style="mix-blend-mode:passthrough"/></g></g></svg>