<svg xmlns="http://www.w3.org/2000/svg" xmlns:xlink="http://www.w3.org/1999/xlink" fill="#000" version="1.1" width="16" height="16" viewBox="0 0 16 16"><defs><clipPath id="master_svg0_588_06068"><rect x="0" y="0" width="16" height="16" rx="0"/></clipPath></defs><g clip-path="url(#master_svg0_588_06068)"><g><path d="M4.76032,2.303703Q4.82681,2.246708,4.8634,2.167143Q4.9,2.0875775,4.9,2Q4.9,1.9606034,4.89231,1.9219639Q4.88463,1.883324,4.86955,1.846927Q4.85447,1.810529,4.83259,1.777772Q4.810700000000001,1.745015,4.78284,1.717157Q4.75498,1.6893,4.72223,1.6674120000000001Q4.68947,1.6455250000000001,4.65307,1.630448Q4.616680000000001,1.615372,4.57804,1.607686Q4.5394000000000005,1.6,4.5,1.6Q4.35203,1.6,4.23968,1.696297L4.23942,1.696523L1.379491,4.14789Q1.00321983,4.47041,1.175159,4.9352Q1.347098,5.4,1.842676,5.4L10,5.4Q11.4912,5.4,12.5456,6.45442Q13.6,7.50883,13.6,9Q13.6,10.49117,12.5456,11.54558Q11.4912,12.6,10,12.6L2.5,12.6Q2.4606,12.6,2.42196,12.6077Q2.3833200000000003,12.6154,2.34693,12.6304Q2.31053,12.6455,2.2777700000000003,12.6674Q2.2450099999999997,12.6893,2.21716,12.7172Q2.1893000000000002,12.745,2.1674100000000003,12.7778Q2.1455200000000003,12.8105,2.1304499999999997,12.8469Q2.11537,12.8833,2.10769,12.922Q2.1,12.9606,2.1,13Q2.1,13.0394,2.10769,13.078Q2.11537,13.1167,2.1304499999999997,13.1531Q2.1455200000000003,13.1895,2.1674100000000003,13.2222Q2.1893000000000002,13.255,2.21716,13.2828Q2.2450099999999997,13.3107,2.2777700000000003,13.3326Q2.31053,13.3545,2.34693,13.3695Q2.3833200000000003,13.3846,2.42196,13.3923Q2.4606,13.4,2.5,13.4L10,13.4Q11.8225,13.4,13.1113,12.1113Q14.4,10.82254,14.4,9Q14.4,7.17746,13.1113,5.88873Q11.8225,4.6,10,4.6L2.0812999999999997,4.6L4.76005,2.303928L4.76032,2.303703L4.76032,2.303703Z" fill-rule="evenodd"  fill-opacity="1"/></g></g></svg>