<svg xmlns="http://www.w3.org/2000/svg" xmlns:xlink="http://www.w3.org/1999/xlink" fill="none" version="1.1" width="16" height="16" viewBox="0 0 16 16"><defs><clipPath id="master_svg0_588_06335"><rect x="16" y="0" width="16" height="16" rx="0"/></clipPath></defs><g transform="matrix(-1,0,0,1,32,0)" clip-path="url(#master_svg0_588_06335)"><g transform="matrix(-1,0,0,1,60,0)"><g><ellipse cx="35.5" cy="7.5" rx="5.9000000059604645" ry="5.9000000059604645" fill-opacity="0" stroke-opacity="1" stroke="#000000" fill="none" stroke-width="0.800000011920929"/></g></g><g transform="matrix(-1,0,0,1,54,0)"><g><path d="M27,7.0996337890625L32,7.0996337890625Q32.0394,7.0996337890625,32.07804,7.1073197890625Q32.11667,7.1150057890625,32.15307,7.1300817890625Q32.18947,7.1451587890625,32.222229999999996,7.1670457890625Q32.25498,7.1889337890625,32.28284,7.2167907890625Q32.3107,7.2446487890625,32.332589999999996,7.2774057890625Q32.35447,7.3101627890625,32.369550000000004,7.3465607890625Q32.38463,7.3829577890625,32.39231,7.4215976890625Q32.4,7.4602371890625,32.4,7.4996337890625Q32.4,7.5390303890625,32.39231,7.5776698890625Q32.38463,7.6163097890625,32.369550000000004,7.6527067890625Q32.35447,7.6891047890625,32.332589999999996,7.7218617890625Q32.3107,7.7546187890625,32.28284,7.7824767890625Q32.25498,7.8103337890625,32.222229999999996,7.8322217890625Q32.18947,7.8541087890625,32.15307,7.8691857890625Q32.11667,7.8842617890625,32.07804,7.8919477890625Q32.0394,7.8996337890625,32,7.8996337890625L27,7.8996337890625Q26.9606034,7.8996337890625,26.9219639,7.8919477890625Q26.883324,7.8842617890625,26.846927,7.8691857890625Q26.810529,7.8541087890625,26.777772,7.8322217890625Q26.745015,7.8103337890625,26.717157,7.7824767890625Q26.6893,7.7546187890625,26.667412,7.7218617890625Q26.645525,7.6891047890625,26.630448,7.6527067890625Q26.615372,7.6163097890625,26.607686,7.5776698890625Q26.6,7.5390303890625,26.6,7.4996337890625Q26.6,7.4602371890625,26.607686,7.4215976890625Q26.615372,7.3829577890625,26.630448,7.3465607890625Q26.645525,7.3101627890625,26.667412,7.2774057890625Q26.6893,7.2446487890625,26.717157,7.2167907890625Q26.745015,7.1889337890625,26.777772,7.1670457890625Q26.810529,7.1451587890625,26.846927,7.1300817890625Q26.883324,7.1150057890625,26.9219639,7.1073197890625Q26.9606034,7.0996337890625,27,7.0996337890625Z" fill-rule="evenodd" fill="#000000" fill-opacity="1"/></g><g transform="matrix(0,1,-1,0,34.50030565261841,-24.500305652618408)"><path d="M29.500305652618408,4.6L34.50030565261841,4.6Q34.53970565261841,4.6,34.57834565261841,4.607686Q34.61697565261841,4.615372,34.65337565261841,4.630448Q34.68977565261841,4.645525,34.722535652618404,4.667412Q34.75528565261841,4.6893,34.78314565261841,4.717157Q34.811005652618405,4.745015,34.832895652618404,4.777772Q34.85477565261841,4.810529,34.86985565261841,4.846927Q34.88493565261841,4.883324,34.89261565261841,4.9219639Q34.90030565261841,4.9606034,34.90030565261841,5Q34.90030565261841,5.0393966,34.89261565261841,5.0780361Q34.88493565261841,5.116676,34.86985565261841,5.153073Q34.85477565261841,5.189471,34.832895652618404,5.222228Q34.811005652618405,5.254985,34.78314565261841,5.282843Q34.75528565261841,5.3107,34.722535652618404,5.332588Q34.68977565261841,5.354475,34.65337565261841,5.369552Q34.61697565261841,5.384628,34.57834565261841,5.392314Q34.53970565261841,5.4,34.50030565261841,5.4L29.500305652618408,5.4Q29.46090905261841,5.4,29.42226955261841,5.392314Q29.38362965261841,5.384628,29.34723265261841,5.369552Q29.310834652618407,5.354475,29.278077652618407,5.332588Q29.245320652618407,5.3107,29.21746265261841,5.282843Q29.189605652618408,5.254985,29.167717652618407,5.222228Q29.145830652618407,5.189471,29.13075365261841,5.153073Q29.11567765261841,5.116676,29.10799165261841,5.0780361Q29.10030565261841,5.0393966,29.10030565261841,5Q29.10030565261841,4.9606034,29.10799165261841,4.9219639Q29.11567765261841,4.883324,29.13075365261841,4.846927Q29.145830652618407,4.810529,29.167717652618407,4.777772Q29.189605652618408,4.745015,29.21746265261841,4.717157Q29.245320652618407,4.6893,29.278077652618407,4.667412Q29.310834652618407,4.645525,29.34723265261841,4.630448Q29.38362965261841,4.615372,29.42226955261841,4.607686Q29.46090905261841,4.6,29.500305652618408,4.6Z" fill-rule="evenodd" fill="#000000" fill-opacity="1"/></g></g><g transform="matrix(-1,0,0,1,60,0)"><g><ellipse cx="35.5" cy="7.5" rx="5.9000000059604645" ry="5.9000000059604645" fill-opacity="0" stroke-opacity="1" stroke="#000000" fill="none" stroke-width="0.800000011920929"/></g><g><path d="M39.717157,11.782843Q39.660896,11.726582,39.630448,11.653073Q39.6,11.579565,39.6,11.5Q39.6,11.4606034,39.607686,11.4219639Q39.615372,11.383324,39.630448,11.346927Q39.645525,11.310529,39.667412,11.277772Q39.6893,11.245015,39.717157,11.217157Q39.745015,11.1893,39.777772,11.167412Q39.810529,11.145525,39.846927,11.130448Q39.883324,11.115372,39.9219639,11.107686Q39.9606034,11.1,40,11.1Q40.079565,11.1,40.153073,11.130448Q40.226582,11.160896,40.282843,11.217157L42.78273,13.71704L42.78284,13.71716Q42.8391,13.77342,42.86955,13.84693Q42.9,13.92043,42.9,14Q42.9,14.0394,42.89231,14.07804Q42.88463,14.11668,42.86955,14.15307Q42.85448,14.18947,42.83259,14.22223Q42.8107,14.25498,42.78284,14.28284Q42.75498,14.3107,42.72223,14.33259Q42.68947,14.35448,42.65307,14.36955Q42.61668,14.38463,42.57804,14.39231Q42.5394,14.4,42.5,14.4Q42.42043,14.4,42.34693,14.36955Q42.27342,14.3391,42.21716,14.28284L42.21704,14.28273L39.717157,11.782843Z" fill-rule="evenodd" fill="#000000" fill-opacity="1"/></g></g></g></svg>