<svg xmlns="http://www.w3.org/2000/svg" xmlns:xlink="http://www.w3.org/1999/xlink" fill="#000" version="1.1" width="16" height="16" viewBox="0 0 16 16"><defs><clipPath id="master_svg0_589_05975"><rect x="0" y="0" width="16" height="16" rx="0"/></clipPath></defs><g clip-path="url(#master_svg0_589_05975)"><g><path d="M6.1,11.78593L5.602539999999999,12.11757Q5.1703399999999995,12.4057,5.32087,12.90285Q5.4713899999999995,13.4,5.99083,13.4L9.009170000000001,13.4Q9.52861,13.4,9.67913,12.90285Q9.82966,12.4057,9.397459999999999,12.11757L8.9,11.78593L8.9,5.9L9.90557,5.9L11.38695,6.64069Q11.73602,6.81523,12.06801,6.61005Q12.4,6.40487,12.4,6.01459L12.4,4.3Q12.4,4.0100504,12.19497,3.805025Q11.98995,3.6,11.7,3.6L3.3,3.6Q3.0100506,3.6,2.805025,3.805025Q2.6,4.0100505,2.6,4.3L2.6,6.01459Q2.6,6.40487,2.9319882,6.61005Q3.263977,6.81523,3.61305,6.64069L5.09443,5.9L6.1,5.9L6.1,11.78593ZM6.32111,12.6L6.588290000000001,12.42188Q6.9,12.21407,6.9,11.83945L6.9,5.8Q6.9,5.51005,6.69497,5.30503Q6.48995,5.1,6.2,5.1L5.070819999999999,5.1Q4.90557,5.1,4.75777,5.1739L3.4,5.85279L3.4,4.4L11.6,4.4L11.6,5.85279L10.24223,5.1739Q10.09443,5.1,9.929179999999999,5.1L8.8,5.1Q8.51005,5.1,8.30503,5.30503Q8.1,5.51005,8.1,5.8L8.1,11.83945Q8.1,12.21407,8.41171,12.42188L8.678889999999999,12.6L6.32111,12.6Z" fill-rule="evenodd"  fill-opacity="1"/></g></g></svg>