<svg xmlns="http://www.w3.org/2000/svg" xmlns:xlink="http://www.w3.org/1999/xlink" fill="none" version="1.1" width="16" height="16" viewBox="0 0 16 16"><defs><clipPath id="master_svg0_588_06027"><rect x="0" y="0" width="16" height="16" rx="0"/></clipPath></defs><g clip-path="url(#master_svg0_588_06027)"><g><g><path d="M5.1,4L5.1,4.5L5.9,4.5L5.9,4Q5.9,3.420101,5.48995,3.0100505Q5.0799,2.6,4.5,2.6L3,2.6Q2.420101,2.6,2.0100505,3.0100505Q1.6,3.420101,1.6,4L1.6,12.5Q1.6,13.0799,2.0100506,13.49Q2.420101,13.9,3,13.9L13,13.9Q13.5799,13.9,13.9899,13.49Q14.4,13.0799,14.4,12.5L14.4,7.5Q14.4,6.9201,13.9899,6.51005Q13.5799,6.1,13,6.1L2.4,6.1L2.4,4Q2.4,3.4,3,3.4L4.5,3.4Q5.1,3.4,5.1,4ZM2.4,6.9L2.4,12.5Q2.4,13.1,3,13.1L13,13.1Q13.6,13.1,13.6,12.5L13.6,7.5Q13.6,6.9,13,6.9L2.4,6.9Z" fill-rule="evenodd" fill="#444444" fill-opacity="1"/></g><g><path d="M11.6,4.75L11.6,6.5L12.4,6.5L12.4,5.19693Q12.81103,5.29829,13.13137,5.61863Q13.6,6.087260000000001,13.6,6.75L13.6,7.5L14.4,7.5L14.4,6.75Q14.4,5.75589,13.6971,5.0529399999999995Q13.1269,4.48278,12.36518,4.3750800000000005Q12.24645,3.764597,11.72287,3.349911Q11.045729999999999,2.81361,10.2049,3.0114522L4.86851,4.26707Q4.091365,4.44993,3.5956828,5.07578Q3.1,5.70163,3.1,6.5L3.9,6.5Q3.9,5.98006,4.222813,5.5724800000000005Q4.54563,5.16489,5.05174,5.0458099999999995L10.38813,3.7901860000000003Q10.85234,3.680962,11.22617,3.977042Q11.6,4.2731200000000005,11.6,4.75Z" fill-rule="evenodd" fill="#444444" fill-opacity="1"/></g></g></g></svg>