<svg xmlns="http://www.w3.org/2000/svg" xmlns:xlink="http://www.w3.org/1999/xlink" fill="#000" version="1.1" width="16" height="16" viewBox="0 0 16 16"><defs><clipPath id="master_svg0_589_06005"><rect x="0" y="0" width="16" height="16" rx="0"/></clipPath></defs><g clip-path="url(#master_svg0_589_06005)"><g><g><path d="M1.6,8Q1.6,7.9606034,1.607686,7.9219639Q1.615372,7.883324,1.630448,7.846927Q1.6455250000000001,7.810529,1.6674120000000001,7.777772Q1.6893,7.745015,1.717157,7.717157Q1.745015,7.6893,1.777772,7.667412Q1.810529,7.645525,1.846927,7.630448Q1.883324,7.615372,1.9219639,7.607686Q1.9606034,7.6,2,7.6Q2.0393966,7.6,2.0780361,7.607686Q2.116676,7.615372,2.153073,7.630448Q2.189471,7.645525,2.222228,7.667412Q2.254985,7.6893,2.282843,7.717157Q2.3106999999999998,7.745015,2.332588,7.777772Q2.354475,7.810529,2.369552,7.846927Q2.384628,7.883324,2.392314,7.9219639Q2.4,7.9606034,2.4,8Q2.4,10.648,3.10116,11.93346Q3.73745,13.1,5,13.1Q7.6,13.1,7.6,8Q7.6,7.9606034,7.60769,7.9219639Q7.61537,7.883324,7.63045,7.846927Q7.64552,7.810529,7.66741,7.777772Q7.6893,7.745015,7.71716,7.717157Q7.74501,7.6893,7.77777,7.667412Q7.81053,7.645525,7.84693,7.630448Q7.88332,7.615372,7.92196,7.607686Q7.9606,7.6,8,7.6Q8.0394,7.6,8.07804,7.607686Q8.116679999999999,7.615372,8.15307,7.630448Q8.18947,7.645525,8.22223,7.667412Q8.25498,7.6893,8.28284,7.717157Q8.3107,7.745015,8.33259,7.777772Q8.35447,7.810529,8.36955,7.846927Q8.38463,7.883324,8.39231,7.9219639Q8.4,7.9606034,8.4,8Q8.399989999999999,13.9,5,13.9Q3.26255,13.9,2.398842,12.31654Q1.6,10.852,1.6,8Z" fill-rule="evenodd"  fill-opacity="1"/></g><g transform="matrix(1,0,0,-1,0,17)"><path d="M7.6,8.5Q7.6,8.4606034,7.607686,8.4219639Q7.615372,8.383324,7.630448,8.346927Q7.645525,8.310529,7.667412,8.277772Q7.6893,8.245015,7.717157,8.217157Q7.745015,8.1893,7.777772,8.167412Q7.810529,8.145525,7.846927,8.130448Q7.883324,8.115372,7.9219639,8.107686Q7.9606034,8.1,8,8.1Q8.0393966,8.1,8.0780361,8.107686Q8.116676,8.115372,8.153073,8.130448Q8.189471,8.145525,8.222228,8.167412Q8.254985,8.1893,8.282843,8.217157Q8.3107,8.245015,8.332588,8.277772Q8.354475,8.310529,8.369552,8.346927Q8.384628,8.383324,8.392314,8.4219639Q8.4,8.4606034,8.4,8.5Q8.4,11.148,9.10116,12.43346Q9.737449999999999,13.6,11,13.6Q13.6,13.6,13.6,8.5Q13.6,8.4606034,13.60769,8.4219639Q13.61537,8.383324,13.63045,8.346927Q13.645520000000001,8.310529,13.66741,8.277772Q13.6893,8.245015,13.71716,8.217157Q13.74501,8.1893,13.77777,8.167412Q13.81053,8.145525,13.84693,8.130448Q13.883320000000001,8.115372,13.92196,8.107686Q13.9606,8.1,14,8.1Q14.0394,8.1,14.07804,8.107686Q14.116679999999999,8.115372,14.15307,8.130448Q14.18947,8.145525,14.22223,8.167412Q14.25498,8.1893,14.28284,8.217157Q14.3107,8.245015,14.33259,8.277772Q14.35447,8.310529,14.36955,8.346927Q14.38463,8.383324,14.39231,8.4219639Q14.4,8.4606034,14.4,8.5Q14.399989999999999,14.4,11,14.4Q9.262550000000001,14.4,8.398842,12.81654Q7.6,11.352,7.6,8.5Z" fill-rule="evenodd"  fill-opacity="1"/></g></g></g></svg>