<svg xmlns="http://www.w3.org/2000/svg" xmlns:xlink="http://www.w3.org/1999/xlink" fill="none" version="1.1" width="16" height="16" viewBox="0 0 16 16"><defs><clipPath id="master_svg0_588_06206"><rect x="16" y="0" width="16" height="16" rx="0"/></clipPath></defs><g transform="matrix(-1,0,0,1,32,0)" clip-path="url(#master_svg0_588_06206)"><g transform="matrix(-1,0,0,1,60,0)"><g><ellipse cx="35.5" cy="7.5" rx="5.9000000059604645" ry="5.9000000059604645" fill-opacity="0" stroke-opacity="1" stroke="#000000" fill="none" stroke-width="0.800000011920929"/></g><g><path d="M39.717157,11.782843Q39.660896,11.726582,39.630448,11.653073Q39.6,11.579565,39.6,11.5Q39.6,11.4606034,39.607686,11.4219639Q39.615372,11.383324,39.630448,11.346927Q39.645525,11.310529,39.667412,11.277772Q39.6893,11.245015,39.717157,11.217157Q39.745015,11.1893,39.777772,11.167412Q39.810529,11.145525,39.846927,11.130448Q39.883324,11.115372,39.9219639,11.107686Q39.9606034,11.1,40,11.1Q40.079565,11.1,40.153073,11.130448Q40.226582,11.160896,40.282843,11.217157L42.78273,13.71704L42.78284,13.71716Q42.8391,13.77342,42.86955,13.84693Q42.9,13.92043,42.9,14Q42.9,14.0394,42.89231,14.07804Q42.88463,14.11668,42.86955,14.15307Q42.85448,14.18947,42.83259,14.22223Q42.8107,14.25498,42.78284,14.28284Q42.75498,14.3107,42.72223,14.33259Q42.68947,14.35448,42.65307,14.36955Q42.61668,14.38463,42.57804,14.39231Q42.5394,14.4,42.5,14.4Q42.42043,14.4,42.34693,14.36955Q42.27342,14.3391,42.21716,14.28284L42.21704,14.28273L39.717157,11.782843Z" fill-rule="evenodd" fill="#000000" fill-opacity="1"/></g></g></g></svg>