<svg xmlns="http://www.w3.org/2000/svg" xmlns:xlink="http://www.w3.org/1999/xlink" fill="none" version="1.1" width="16" height="16" viewBox="0 0 16 16"><defs><clipPath id="master_svg0_589_05963"><rect x="0" y="0" width="16" height="16" rx="0"/></clipPath></defs><g clip-path="url(#master_svg0_589_05963)"><g><path d="M3.47452,12.5255Q5.34903,14.4,8,14.4Q8.0394,14.4,8.07804,14.3923Q8.116679999999999,14.3846,8.15307,14.3695Q8.18947,14.3545,8.22223,14.3326Q8.25498,14.3107,8.28284,14.2828Q8.3107,14.255,8.33259,14.2222Q8.35447,14.1895,8.36955,14.1531Q8.38463,14.1167,8.39231,14.078Q8.4,14.0394,8.4,14Q8.4,13.9606,8.39231,13.922Q8.38463,13.8833,8.36955,13.8469Q8.35447,13.8105,8.33259,13.7778Q8.3107,13.745,8.28284,13.7172Q8.25498,13.6893,8.22223,13.6674Q8.18947,13.6455,8.15307,13.6304Q8.116679999999999,13.6154,8.07804,13.6077Q8.0394,13.6,8,13.6Q5.680400000000001,13.6,4.0402000000000005,11.9598Q2.4,10.31959,2.399999,8Q2.4,5.680400000000001,4.0402000000000005,4.0402000000000005Q5.680400000000001,2.4,8,2.399999Q10.31959,2.4,11.9598,4.0402000000000005Q13.6,5.680400000000001,13.6,8Q13.6,8.0394,13.6077,8.07804Q13.6154,8.116679999999999,13.6304,8.15307Q13.6455,8.18947,13.6674,8.22223Q13.6893,8.25498,13.7172,8.28284Q13.745,8.3107,13.7778,8.33259Q13.8105,8.35447,13.8469,8.36955Q13.8833,8.38463,13.922,8.39231Q13.9606,8.4,14,8.4Q14.0394,8.4,14.078,8.39231Q14.1167,8.38463,14.1531,8.36955Q14.1895,8.35447,14.2222,8.33259Q14.255,8.3107,14.2828,8.28284Q14.3107,8.25498,14.3326,8.22223Q14.3545,8.18947,14.3696,8.15307Q14.3846,8.116679999999999,14.3923,8.07804Q14.4,8.0394,14.4,8Q14.4,5.34903,12.5255,3.47452Q10.65097,1.6,8,1.599999Q5.34903,1.6,3.47452,3.47452Q1.6,5.34903,1.599999,8Q1.6,10.65097,3.47452,12.5255Z" fill-rule="evenodd" fill="#000000" fill-opacity="1"/></g><g><g><path d="M6,8.331702424369812L9.87998,8.331702424369812L9.87998,8.329691424369813Q9.91839,8.329691424369813,9.95606,8.322197424369811Q9.993739999999999,8.314703424369812,10.029219999999999,8.300004424369812Q10.06471,8.285304424369812,10.09665,8.263964424369812Q10.128589999999999,8.242624424369811,10.155750000000001,8.215463424369812Q10.18291,8.188301424369811,10.20425,8.156363424369813Q10.22559,8.124425424369813,10.24029,8.088937424369812Q10.25499,8.053450424369812,10.26248,8.015776624369812Q10.26998,7.978103024369812,10.26998,7.939691424369812Q10.26998,7.901279824369812,10.26248,7.863606224369812Q10.25499,7.825932424369812,10.24029,7.790445424369812Q10.22559,7.754957424369812,10.20425,7.723019424369812Q10.18291,7.691081424369812,10.155750000000001,7.663919424369812Q10.128589999999999,7.636758424369812,10.09665,7.615418424369812Q10.06471,7.594078424369812,10.029219999999999,7.579378424369812Q9.993739999999999,7.564679424369812,9.95606,7.557185424369812Q9.91839,7.549691424369812,9.87998,7.549691424369812L9.87998,7.547680424369812L6,7.547680424369812L6,7.549691424369812Q5.9615884,7.549691424369812,5.9239148,7.557185424369812Q5.886241,7.564679424369812,5.850754,7.579378424369812Q5.815266,7.594078424369812,5.783328,7.615418424369812Q5.75139,7.636758424369812,5.724228,7.663919424369812Q5.697067,7.691081424369812,5.675727,7.723019424369812Q5.654387,7.754957424369812,5.639687,7.790445424369812Q5.624988,7.825932424369812,5.617494,7.863606224369812Q5.61,7.901279824369812,5.61,7.939691424369812Q5.61,7.978103024369812,5.617494,8.015776624369812Q5.624988,8.053450424369812,5.639687,8.088937424369812Q5.654387,8.124425424369813,5.675727,8.156363424369813Q5.697067,8.188301424369811,5.724228,8.215463424369812Q5.75139,8.242624424369811,5.783328,8.263964424369812Q5.815266,8.285304424369812,5.850754,8.300004424369812Q5.886241,8.314703424369812,5.9239148,8.322197424369811Q5.9615884,8.329691424369813,6,8.329691424369813L6,8.331702424369812Z" fill-rule="evenodd" fill="#000000" fill-opacity="1"/></g><g transform="matrix(0,1,-1,0,13.940226197242737,-1.9402261972427368)"><path d="M7.940226197242737,6.392011L11.820236197242737,6.392011L11.820236197242737,6.39Q11.858656197242738,6.39,11.896326197242736,6.382506Q11.933996197242736,6.375012,11.969486197242738,6.360313Q12.004976197242737,6.345613,12.036916197242736,6.324273Q12.068846197242737,6.302933,12.096016197242736,6.275772Q12.123176197242737,6.24861,12.144516197242737,6.216672Q12.165856197242736,6.184734,12.180556197242737,6.149246Q12.195256197242736,6.113759,12.202746197242737,6.0760852Q12.210236197242736,6.0384116,12.210236197242736,6Q12.210236197242736,5.9615884,12.202746197242737,5.9239148Q12.195256197242736,5.886241,12.180556197242737,5.850754Q12.165856197242736,5.815266,12.144516197242737,5.783328Q12.123176197242737,5.75139,12.096016197242736,5.724228Q12.068846197242737,5.697067,12.036916197242736,5.675727Q12.004976197242737,5.654387,11.969486197242738,5.639687Q11.933996197242736,5.624988,11.896326197242736,5.617494Q11.858656197242738,5.61,11.820236197242737,5.61L11.820236197242737,5.607989L7.940226197242737,5.607989L7.940226197242737,5.61Q7.901814597242737,5.61,7.864140997242737,5.617494Q7.826467197242737,5.624988,7.790980197242737,5.639687Q7.755492197242737,5.654387,7.723554197242737,5.675727Q7.691616197242737,5.697067,7.664454197242737,5.724228Q7.6372931972427365,5.75139,7.615953197242737,5.783328Q7.594613197242737,5.815266,7.579913197242737,5.850754Q7.565214197242737,5.886241,7.557720197242737,5.9239148Q7.550226197242737,5.9615884,7.550226197242737,6Q7.550226197242737,6.0384116,7.557720197242737,6.0760852Q7.565214197242737,6.113759,7.579913197242737,6.149246Q7.594613197242737,6.184734,7.615953197242737,6.216672Q7.6372931972427365,6.24861,7.664454197242737,6.275772Q7.691616197242737,6.302933,7.723554197242737,6.324273Q7.755492197242737,6.345613,7.790980197242737,6.360313Q7.826467197242737,6.375012,7.864140997242737,6.382506Q7.901814597242737,6.39,7.940226197242737,6.39L7.940226197242737,6.392011Z" fill-rule="evenodd" fill="#000000" fill-opacity="1"/></g></g></g></svg>