<svg xmlns="http://www.w3.org/2000/svg" xmlns:xlink="http://www.w3.org/1999/xlink" fill="none" version="1.1" width="16" height="16" viewBox="0 0 16 16"><defs><clipPath id="master_svg0_590_05983"><rect x="16" y="0" width="16" height="16" rx="0"/></clipPath></defs><g transform="matrix(-1,0,0,1,32,0)" clip-path="url(#master_svg0_590_05983)"><g transform="matrix(-1,0,0,1,58,0)"><path d="M28.717157,4.282843Q28.660896,4.226582,28.630448,4.153073Q28.6,4.079565,28.6,4Q28.6,3.9606034,28.607686,3.9219639Q28.615372,3.883324,28.630448,3.846927Q28.645525,3.810529,28.667412,3.777772Q28.6893,3.745015,28.717157,3.717157Q28.745015,3.6893000000000002,28.777772,3.667412Q28.810529,3.645525,28.846927,3.630448Q28.883324,3.615372,28.9219639,3.607686Q28.9606034,3.6,29,3.6Q29.079565,3.6,29.153073,3.630448Q29.226582,3.660896,29.282843,3.717157L36.78284,11.21716L38.28284,12.71716Q38.3391,12.77342,38.369550000000004,12.84693Q38.4,12.92043,38.4,13Q38.4,13.0394,38.39231,13.07804Q38.38463,13.11667,38.369550000000004,13.15307Q38.35447,13.18947,38.332589999999996,13.22223Q38.3107,13.25498,38.28284,13.28284Q38.25498,13.3107,38.222229999999996,13.33259Q38.18947,13.35447,38.15307,13.36955Q38.11667,13.38463,38.07804,13.39231Q38.0394,13.4,38,13.4Q37.920429999999996,13.4,37.84693,13.36955Q37.77342,13.3391,37.71716,13.28284L36.21716,11.78284L28.717157,4.282843Z" fill-rule="evenodd" fill="#000000" fill-opacity="1"/></g></g></svg>