<svg xmlns="http://www.w3.org/2000/svg" xmlns:xlink="http://www.w3.org/1999/xlink" fill="none" version="1.1" width="16" height="16" viewBox="0 0 16 16"><defs><clipPath id="master_svg0_588_06408"><rect x="16" y="0" width="16" height="16" rx="0"/></clipPath></defs><g transform="matrix(-1,0,0,1,32,0)" clip-path="url(#master_svg0_588_06408)"><g transform="matrix(0,-1,1,0,2.5,30.5)"><path d="M22.65024,16.35L24.250239999999998,16.35Q24.83014,16.35,25.24019,16.76005Q25.65024,17.1701,25.65024,17.75L25.65024,19.25Q25.65024,19.829900000000002,25.24019,20.23995Q24.83014,20.65,24.250239999999998,20.65L22.65024,20.65L22.65024,21.35L27.5,21.35Q28.079900000000002,21.35,28.490000000000002,21.76005Q28.9,22.170099999999998,28.9,22.75L28.9,24.75Q28.9,25.329900000000002,28.490000000000002,25.740000000000002Q28.079900000000002,26.15,27.5,26.15L22.65024,26.15L22.65024,28.5L21.85024,28.5L21.85024,26.15L17.5,26.15Q16.920101,26.15,16.5100506,25.740000000000002Q16.1,25.329900000000002,16.1,24.75L16.1,22.75Q16.1,22.170099999999998,16.5100506,21.76005Q16.920101,21.35,17.5,21.35L21.85024,21.35L21.85024,20.65L20.250239999999998,20.65Q19.67035,20.65,19.26029,20.23995Q18.85024,19.829900000000002,18.85024,19.25L18.85024,17.75Q18.85024,17.1701,19.26029,16.76005Q19.67034,16.35,20.250239999999998,16.35L21.85024,16.35L21.85024,14L22.65024,14L22.65024,16.35ZM20.250239999999998,17.15L22.250239999999998,17.15L24.250239999999998,17.15Q24.49877,17.15,24.674509999999998,17.32574Q24.85024,17.50147,24.85024,17.75L24.85024,19.25Q24.85024,19.49853,24.674509999999998,19.67426Q24.49877,19.85,24.250239999999998,19.85L20.250239999999998,19.85Q19.65024,19.85,19.65024,19.25L19.65024,17.75Q19.65024,17.50147,19.82598,17.32574Q20.00172,17.15,20.250239999999998,17.15ZM17.5,22.15L27.5,22.15Q28.1,22.15,28.1,22.75L28.1,24.75Q28.1,25.35,27.5,25.35L17.5,25.35Q17.251471,25.35,17.075736,25.174300000000002Q16.9,24.9985,16.9,24.75L16.9,22.75Q16.9,22.501469999999998,17.075736,22.32574Q17.251471,22.15,17.5,22.15Z" fill-rule="evenodd" fill="#000000" fill-opacity="1"/></g></g></svg>