<svg xmlns="http://www.w3.org/2000/svg" xmlns:xlink="http://www.w3.org/1999/xlink" fill="#000" version="1.1" width="16" height="16" viewBox="0 0 16 16"><defs><clipPath id="master_svg0_588_06433"><rect x="16" y="0" width="16" height="16" rx="0"/></clipPath></defs><g transform="matrix(-1,0,0,1,32,0)" clip-path="url(#master_svg0_588_06433)"><g transform="matrix(-1,0,0,1,60,0)"><path d="M35.4,6.5L35.4,1L34.6,1L34.6,6.5L35.4,6.5ZM37.9,6.5L37.9,1L37.1,1L37.1,6.5L37.9,6.5ZM29.6,9L29.6,14Q29.6,14.5799,30.0100505,14.9899Q30.4201,15.4,31,15.4L34,15.4Q34.5799,15.4,34.98995,14.9899Q35.4,14.5799,35.4,14L35.4,9Q35.4,8.4201,34.98995,8.01005Q34.5799,7.6,34,7.6L31,7.6Q30.420102,7.6,30.0100505,8.01005Q29.6,8.4201,29.6,9ZM42.49,8.01005Q42.0799,7.6,41.5,7.6L38.5,7.6Q37.9201,7.6,37.51005,8.01005Q37.1,8.4201,37.1,9L37.1,14Q37.1,14.5799,37.51005,14.99Q37.9201,15.4,38.5,15.4L41.5,15.4Q42.0799,15.4,42.4899,14.9899Q42.9,14.5799,42.9,14L42.9,9Q42.9,8.4201,42.49,8.01005ZM31,14.6Q30.4,14.6,30.4,14L30.4,9Q30.4,8.751470000000001,30.575736,8.57574Q30.751472,8.4,31,8.4L34,8.4Q34.6,8.4,34.6,9L34.6,14Q34.6,14.6,34,14.6L31,14.6ZM38.5,8.4L41.5,8.4Q42.1,8.4,42.1,9L42.1,14Q42.1,14.6,41.5,14.6L38.5,14.6Q37.9,14.6,37.9,14L37.9,9Q37.9,8.4,38.5,8.4Z" fill-rule="evenodd"  fill-opacity="1"/></g></g></svg>