<svg xmlns="http://www.w3.org/2000/svg" xmlns:xlink="http://www.w3.org/1999/xlink" fill="none" version="1.1" width="16" height="16" viewBox="0 0 16 16"><defs><clipPath id="master_svg0_588_06133"><rect x="16" y="0" width="16" height="16" rx="0"/></clipPath></defs><g transform="matrix(-1,0,0,1,32,0)" clip-path="url(#master_svg0_588_06133)"><g transform="matrix(-1,0,0,1,60,0)"><g><path d="M38.1,3L38.1,5.5L38.9,5.5L38.9,3Q38.9,2.420101,38.48995,2.0100505Q38.0799,1.6,37.5,1.6L31,1.6Q30.420101,1.6,30.0100505,2.0100506Q29.6,2.420101,29.6,3L29.6,11Q29.6,11.5799,30.0100506,11.98995Q30.420101,12.4,31,12.4L34.5,12.4L34.5,11.6L31,11.6Q30.751472,11.6,30.575736,11.42426Q30.4,11.24853,30.4,11L30.4,3Q30.4,2.751472,30.575736,2.575736Q30.751472,2.4,31,2.4L37.5,2.4Q37.74853,2.4,37.924260000000004,2.575736Q38.1,2.751472,38.1,3Z" fill-rule="evenodd" fill="#000000" fill-opacity="1"/></g><g><path d="M34,14C34,14.55229,34.447715,15,35,15L39.5,15L43,11.5L43,6C43,5.447715,42.55229,5,42,5L35,5C34.447715,5,34,5.447715,34,6L34,14ZM41.46863,11.9L39.4,13.96863L39.4,12.5Q39.4,12.251470000000001,39.575739999999996,12.07574Q39.75147,11.9,40,11.9L41.46863,11.9ZM42.2,6L42.2,11.1L40,11.1Q39.4201,11.1,39.01005,11.51005Q38.6,11.9201,38.6,12.5L38.6,14.2L35,14.2Q34.8,14.2,34.8,14L34.8,6Q34.8,5.8,35,5.8L42,5.8Q42.2,5.8,42.2,6Z" fill-rule="evenodd" fill="#000000" fill-opacity="1"/></g></g></g></svg>