<svg xmlns="http://www.w3.org/2000/svg" xmlns:xlink="http://www.w3.org/1999/xlink" fill="none" version="1.1" width="16" height="16" viewBox="0 0 16 16"><defs><clipPath id="master_svg0_589_05953"><rect x="0" y="0" width="16" height="16" rx="0"/></clipPath></defs><g clip-path="url(#master_svg0_589_05953)"><g><path d="M10.34197,1.864768Q10.41759,1.7938749999999999,10.45879,1.698764Q10.5,1.603653,10.5,1.5Q10.5,1.4507543,10.49039,1.4024549Q10.48078,1.354155,10.46194,1.3086579999999999Q10.44309,1.263161,10.41573,1.222215Q10.38837,1.181269,10.35355,1.146447Q10.31873,1.111625,10.27778,1.084265Q10.23684,1.0569060000000001,10.19134,1.03806Q10.14584,1.019215,10.09754,1.009607Q10.04924,1,10,1Q9.90473,1,9.816130000000001,1.035035Q9.72753,1.070071,9.65803,1.135231L9.65784,1.1354060000000001L2.425269,7.91595Q1.9848424,8.32884,2.261087,8.865639999999999Q2.537332,9.40244,3.1293100000000003,9.284040000000001L12.9787,7.31415L6.64708,13.6458L6.64645,13.6464Q6.57612,13.7168,6.53806,13.8087Q6.5,13.9005,6.5,14Q6.5,14.0492,6.50961,14.0975Q6.51921,14.1458,6.53806,14.1913Q6.5569,14.2368,6.58426,14.2778Q6.61162,14.3187,6.64645,14.3536Q6.68127,14.3884,6.72221,14.4157Q6.76316,14.4431,6.80866,14.4619Q6.85415,14.4808,6.90245,14.4904Q6.95075,14.5,7,14.5Q7.09946,14.5,7.19134,14.4619Q7.28323,14.4239,7.35355,14.3536L14.1529,7.55418Q14.5727,7.13441,14.2926,6.61101Q14.0125,6.0876,13.4304,6.20403L3.6207000000000003,8.16596L10.34197,1.864769L10.34197,1.864768Z" fill-rule="evenodd" fill="#000000" fill-opacity="1"/></g></g></svg>