<svg xmlns="http://www.w3.org/2000/svg" xmlns:xlink="http://www.w3.org/1999/xlink" fill="none" version="1.1" width="16" height="16" viewBox="0 0 16 16"><defs><clipPath id="master_svg0_588_06380"><rect x="16" y="0" width="16" height="16" rx="0"/></clipPath></defs><g transform="matrix(-1,0,0,1,32,0)" clipPath="url(#master_svg0_588_06380)"><g transform="matrix(-1,0,0,1,60,0)"><path d="M43.5341,14.4L39.22963,-0.28708L39.22963,14.4L43.5341,14.4ZM32.80741,6.48164L34.72741,6.48164L32.40741,10.5L30.0874062,6.48164L32.00741,6.48164L32.00741,6Q32.00741,4.17746,33.29614,2.888731Q34.58487,1.6,36.40741,1.6L38.18519,1.6Q38.22458,1.6,38.263220000000004,1.607686Q38.30186,1.615372,38.33826,1.630448Q38.37465,1.6455250000000001,38.40741,1.6674120000000001Q38.44017,1.6893,38.46803,1.717157Q38.49588,1.745015,38.51777,1.777772Q38.53966,1.810529,38.55474,1.846927Q38.569810000000004,1.883324,38.5775,1.9219639Q38.58518,1.9606034,38.58519,2Q38.58518,2.0393966,38.5775,2.0780361Q38.569810000000004,2.116676,38.55474,2.153073Q38.53966,2.189471,38.51777,2.222228Q38.49588,2.254985,38.46803,2.282843Q38.44017,2.3106999999999998,38.40741,2.332588Q38.37465,2.354475,38.33826,2.369552Q38.30186,2.384628,38.263220000000004,2.392314Q38.22458,2.4,38.18519,2.4L36.40741,2.4Q34.91624,2.4,33.86182,3.45442Q32.80741,4.50883,32.80741,6L32.80741,6.48164ZM40.0296,5.28708L40.0296,13.6L42.4659,13.6L40.0296,5.28708ZM38.1037,14.4L38.1037,7.72294L37.47128,8.17445L28.75133,14.4L38.1037,14.4ZM37.3037,9.277059999999999L31.24868,13.6L37.3037,13.6L37.3037,9.277059999999999Z" fillRule="evenodd" fill="#000000" fillOpacity="1"/></g></g></svg>