<svg xmlns="http://www.w3.org/2000/svg" xmlns:xlink="http://www.w3.org/1999/xlink" fill="none" version="1.1" width="16" height="16" viewBox="0 0 16 16"><defs><clipPath id="master_svg0_589_06021"><rect x="0" y="0" width="16" height="16" rx="0"/></clipPath></defs><g clip-path="url(#master_svg0_589_06021)"><g transform="matrix(0.7300939559936523,0.6833467483520508,-0.6833467483520508,0.7300939559936523,4.288841561763547,-6.858467508922331)"><path d="M12.9551980859375,16.2875Q13.4498080859375,16.3104,13.7136980859375,15.8915L15.9301980859375,12.3724L15.9301980859375,2.5Q15.9301980859375,2.1479179999999998,15.681238085937501,1.898959Q15.4322780859375,1.65,15.0801980859375,1.65L13.9346980859375,1.65L11.3265380859375,1.65Q10.9744560859375,1.65,10.7254970859375,1.898959Q10.4765380859375,2.147919,10.4765380859375,2.5L10.4765380859375,12.3551L12.2364980859375,15.8231Q12.4605780859375,16.264699999999998,12.9551980859375,16.2875ZM12.6392080859375,11.92139L13.5846980859375,11.92139L13.5846980859375,2.35L12.6392080859375,2.35L12.6392080859375,11.92139ZM11.9392080859375,11.92139L11.9392080859375,2.35L11.3265380859375,2.35Q11.2644060859375,2.35,11.2204720859375,2.393934Q11.1765380859375,2.437868,11.1765380859375,2.5L11.1765380859375,11.92139L11.9392080859375,11.92139ZM14.2846980859375,2.35L14.2846980859375,11.92139L15.2301980859375,11.92139L15.2301980859375,2.5Q15.2301980859375,2.437868,15.186268085937499,2.393934Q15.1423280859375,2.35,15.0801980859375,2.35L14.2846980859375,2.35ZM14.9461080859375,12.6214L13.1213980859375,15.5184Q13.0748280859375,15.5923,12.987548085937501,15.5883Q12.9002580859375,15.5842,12.8607180859375,15.5063L11.3966500859375,12.6214L14.9461080859375,12.6214Z" fill-rule="evenodd" fill="#000000" fill-opacity="1"/></g><g><path d="M3,13.207107C3,13.368867,3.131133,13.5,3.292893,13.5C3.553833,13.5,3.684512,13.184512,3.5,13C3.315488,12.815488,3,12.946166999999999,3,13.207107Z" fill="#000000" fill-opacity="1"/><path d="M2.766078,12.837104Q2.65,13.001827,2.65,13.207107Q2.65,13.473402,2.838299,13.6617Q3.026598,13.85,3.292893,13.85Q3.498173,13.85,3.662896,13.73392Q3.814915,13.6268,3.8868489999999998,13.453130999999999Q3.958783,13.279467,3.9270389999999997,13.096224Q3.892642,12.897667,3.747487,12.752513Q3.602333,12.607358,3.403776,12.5729611Q3.220533,12.5412169,3.0468686,12.613151Q2.873205,12.685085,2.766078,12.837104ZM3.333274,13.166726Q3.35,13.183451999999999,3.35,13.207107Q3.35,13.245264,3.314747,13.259867Q3.279494,13.274469,3.252513,13.247487Q3.225531,13.220506,3.240133,13.185253Q3.254736,13.15,3.292893,13.15Q3.316548,13.15,3.333274,13.166726Z" fill-rule="evenodd" fill="#000000" fill-opacity="1"/></g></g></svg>