<svg xmlns="http://www.w3.org/2000/svg" xmlns:xlink="http://www.w3.org/1999/xlink" fill="none" version="1.1" width="16" height="16" viewBox="0 0 16 16"><defs><clipPath id="master_svg0_588_06404"><rect x="16" y="0" width="16" height="16" rx="0"/></clipPath></defs><g transform="matrix(-1,0,0,1,32,0)" clip-path="url(#master_svg0_588_06404)"><g transform="matrix(0,1,1,0,16.499755859375,-16.499755859375)"><path d="M17.35,1.250244140625L17.35,13.250244140625L18.15,13.250244140625L18.15,1.250244140625L17.35,1.250244140625ZM19.35,3.750244140625L19.35,5.250244140625Q19.35,5.830144140625,19.76005,6.240194140625Q20.1701,6.650244140625,20.75,6.650244140625L24.75,6.650244140625Q25.329900000000002,6.650244140625,25.73995,6.240194140625Q26.15,5.830144140625,26.15,5.250244140625L26.15,3.750244140625Q26.15,3.1703441406249997,25.73995,2.7602941406249997Q25.329900000000002,2.350244140625,24.75,2.350244140625L20.75,2.350244140625Q20.1701,2.350244140625,19.76005,2.7602941406249997Q19.35,3.1703441406249997,19.35,3.750244140625ZM20.32574,5.674504140625Q20.15,5.498774140625,20.15,5.250244140625L20.15,3.750244140625Q20.15,3.450244140625,20.3,3.300244140625Q20.45,3.150244140625,20.75,3.150244140625L24.75,3.150244140625Q25.35,3.150244140625,25.35,3.750244140625L25.35,5.250244140625Q25.35,5.850244140625,24.75,5.850244140625L20.75,5.850244140625Q20.50147,5.850244140625,20.32574,5.674504140625ZM19.35,8.750244140625L19.35,10.750244140625Q19.35,11.330144140625,19.76005,11.740244140625Q20.1701,12.150244140625,20.75,12.150244140625L30.25,12.150244140625Q30.829900000000002,12.150244140625,31.2399,11.740244140625Q31.65,11.330144140625,31.65,10.750244140625L31.65,8.750244140625Q31.65,8.170344140625,31.2399,7.760294140625Q30.829900000000002,7.350244140625,30.25,7.350244140625L20.75,7.350244140625Q20.1701,7.350244140625,19.76005,7.760294140625Q19.35,8.170344140625,19.35,8.750244140625ZM20.32574,11.174504140625Q20.15,10.998774140625,20.15,10.750244140625L20.15,8.750244140625Q20.15,8.501714140625001,20.32574,8.325984140625Q20.50147,8.150244140625,20.75,8.150244140625L30.25,8.150244140625Q30.85,8.150244140625,30.85,8.750244140625L30.85,10.750244140625Q30.85,11.350244140625,30.25,11.350244140625L20.75,11.350244140625Q20.50147,11.350244140625,20.32574,11.174504140625Z" fill-rule="evenodd" fill="#000000" fill-opacity="1"/></g></g></svg>