<svg xmlns="http://www.w3.org/2000/svg" xmlns:xlink="http://www.w3.org/1999/xlink" fill="none" version="1.1" width="16" height="16" viewBox="0 0 16 16"><defs><clipPath id="master_svg0_588_06385"><rect x="0" y="0" width="16" height="16" rx="0"/></clipPath></defs><g clip-path="url(#master_svg0_588_06385)"><g transform="matrix(-1,0,0,1,28,0)"><path d="M27.534100000000002,14.4L23.22963,-0.28708L23.22963,14.4L27.534100000000002,14.4ZM16.80741,6.48164L18.72741,6.48164L16.40741,10.5L14.0874062,6.48164L16.00741,6.48164L16.00741,6Q16.00741,4.17746,17.29614,2.888731Q18.58487,1.6,20.40741,1.6L22.18519,1.6Q22.22458,1.6,22.26322,1.607686Q22.301859999999998,1.615372,22.33826,1.630448Q22.374650000000003,1.6455250000000001,22.40741,1.6674120000000001Q22.440170000000002,1.6893,22.46803,1.717157Q22.49588,1.745015,22.51777,1.777772Q22.539659999999998,1.810529,22.554740000000002,1.846927Q22.56981,1.883324,22.5775,1.9219639Q22.58518,1.9606034,22.58519,2Q22.58518,2.0393966,22.5775,2.0780361Q22.56981,2.116676,22.554740000000002,2.153073Q22.539659999999998,2.189471,22.51777,2.222228Q22.49588,2.254985,22.46803,2.282843Q22.440170000000002,2.3106999999999998,22.40741,2.332588Q22.374650000000003,2.354475,22.33826,2.369552Q22.301859999999998,2.384628,22.26322,2.392314Q22.22458,2.4,22.18519,2.4L20.40741,2.4Q18.916240000000002,2.4,17.86182,3.45442Q16.80741,4.50883,16.80741,6L16.80741,6.48164ZM24.029600000000002,5.28708L24.029600000000002,13.6L26.465899999999998,13.6L24.029600000000002,5.28708ZM22.1037,14.4L22.1037,7.72294L21.47128,8.17445L12.75133,14.4L22.1037,14.4ZM21.3037,9.277059999999999L15.24868,13.6L21.3037,13.6L21.3037,9.277059999999999Z" fill-rule="evenodd" fill="#000000" fill-opacity="1"/></g></g></svg>