<svg xmlns="http://www.w3.org/2000/svg" xmlns:xlink="http://www.w3.org/1999/xlink" fill="none" version="1.1" width="90" height="90" viewBox="0 0 90 90"><defs><clipPath id="master_svg0_31_942"><rect x="90" y="0" width="90" height="90" rx="0"/></clipPath></defs><g transform="matrix(-1,0,0,1,180,0)" clip-path="url(#master_svg0_31_942)"><g><g><g></g><g><g><g><g><ellipse cx="146" cy="46.214354515075684" rx="24" ry="24" fill-opacity="0" stroke-opacity="1" stroke="#A00100" fill="none" stroke-width="1" style="mix-blend-mode:passthrough"/></g></g></g><g><g><g><ellipse cx="120" cy="61.499999046325684" rx="24" ry="24" fill-opacity="0" stroke-opacity="1" stroke="#A00100" fill="none" stroke-width="1" style="mix-blend-mode:passthrough"/></g></g></g><g><g><g><ellipse cx="120" cy="28.999930381774902" rx="24" ry="24" fill-opacity="0" stroke-opacity="1" stroke="#A00100" fill="none" stroke-width="1" style="mix-blend-mode:passthrough"/></g></g></g></g><g><g><g><ellipse cx="120" cy="5" rx="3" ry="3" fill="#4F4F4F" fill-opacity="1" style="mix-blend-mode:passthrough"/></g><g><ellipse cx="170" cy="45" rx="3" ry="3" fill="#4F4F4F" fill-opacity="1" style="mix-blend-mode:passthrough"/></g><g><ellipse cx="120" cy="86" rx="3" ry="3" fill="#4F4F4F" fill-opacity="1" style="mix-blend-mode:passthrough"/></g></g></g></g></g><g transform="matrix(1,0,0,-1,0,69.89990234375)"><path d="M120,46.499951171875L127.7205,54.880351171875L129,53.412851171875005L121,44.377901171874996L121,34.949951171875L119,34.949951171875L119,44.377901171874996L111,53.393251171875L112.24448,54.899951171875L120,46.499951171875Z" fill="#A00100" fill-opacity="1" style="mix-blend-mode:passthrough"/></g><g><g><g><path d="M120.6798,58.648967999999996L131,68.5L109,68.5L120,58L120.6798,58.648967999999996ZM119.3201,60.0792L120,59.36408L120.6798,60.0792L112.14361,68.22749999999999L111.46374,67.51233L111.46374,66.52467L128.5363,66.52467L128.5363,67.51233L127.85640000000001,68.22749999999999L119.3201,60.0792Z" fill="#A00100" fill-opacity="1" style="mix-blend-mode:passthrough"/></g></g></g></g></svg>