<svg xmlns="http://www.w3.org/2000/svg" xmlns:xlink="http://www.w3.org/1999/xlink" fill="none" version="1.1" width="80" height="90" viewBox="0 0 80 90"><defs><clipPath id="master_svg0_6_018"><rect x="0" y="0" width="80" height="90" rx="0"/></clipPath></defs><g clip-path="url(#master_svg0_6_018)"><g><g></g><g><g><path d="M51.6798,56.648966L62,66.5L40,66.5L51,56L51.6798,56.648966ZM50.3201,58.0792L51,57.36408L51.6798,58.0792L43.14361,66.22749999999999L42.46374,65.51233L42.46374,64.52467L59.5363,64.52467L59.5363,65.51233L58.8564,66.22749999999999L50.3201,58.0792Z" fill="#A00100" fill-opacity="1" style="mix-blend-mode:passthrough"/></g></g><g><g><g transform="matrix(1,0,0,-1,0,110)"><g><path d="M26,66.55L33.7205,74.93039999999999L35,73.4629L27,64.42795L27,55L25,55L25,64.42795L17,73.4433L18.24448,74.95L26,66.55Z" fill="#A00100" fill-opacity="1" style="mix-blend-mode:passthrough"/></g><g><path d="M51,85.55L58.7205,93.93039999999999L60,92.4629L52,83.42795L52,74L50,74L50,83.42795L42,92.4433L43.24448,93.95L51,85.55Z" fill="#A00100" fill-opacity="1" style="mix-blend-mode:passthrough"/></g></g><g><g><ellipse cx="27" cy="46" rx="20" ry="20" fill-opacity="0" stroke-opacity="1" stroke="#A00100" fill="none" stroke-width="1" style="mix-blend-mode:passthrough"/></g><g><ellipse cx="51" cy="27" rx="20" ry="20" fill-opacity="0" stroke-opacity="1" stroke="#A00100" fill="none" stroke-width="1" style="mix-blend-mode:passthrough"/></g><g><ellipse cx="51" cy="62" rx="20" ry="20" fill-opacity="0" stroke-opacity="1" stroke="#A00100" fill="none" stroke-width="1" style="mix-blend-mode:passthrough"/></g></g></g></g></g><g><ellipse cx="6" cy="45" rx="3" ry="3" fill="#4F4F4F" fill-opacity="1" style="mix-blend-mode:passthrough"/></g><g><ellipse cx="51" cy="82" rx="3" ry="3" fill="#4F4F4F" fill-opacity="1" style="mix-blend-mode:passthrough"/></g><g><ellipse cx="51" cy="7" rx="3" ry="3" fill="#4F4F4F" fill-opacity="1" style="mix-blend-mode:passthrough"/></g></g></svg>