<svg xmlns="http://www.w3.org/2000/svg" xmlns:xlink="http://www.w3.org/1999/xlink" fill="none" version="1.1" width="70" height="90" viewBox="0 0 70 90"><defs><clipPath id="master_svg0_31_965"><rect x="70" y="0" width="70" height="90" rx="0"/></clipPath></defs><g transform="matrix(-1,0,0,1,140,0)" clip-path="url(#master_svg0_31_965)"><g><g><g></g><g><g><g><g><ellipse cx="100" cy="61.499999046325684" rx="24" ry="24" fill-opacity="0" stroke-opacity="1" stroke="#A00100" fill="none" stroke-width="1" style="mix-blend-mode:passthrough"/></g></g></g><g><g><g><ellipse cx="100" cy="28.999930381774902" rx="24" ry="24" fill-opacity="0" stroke-opacity="1" stroke="#A00100" fill="none" stroke-width="1" style="mix-blend-mode:passthrough"/></g></g></g></g><g><g><g><ellipse cx="100" cy="5" rx="3" ry="3" fill="#4F4F4F" fill-opacity="1" style="mix-blend-mode:passthrough"/></g><g><ellipse cx="100" cy="86" rx="3" ry="3" fill="#4F4F4F" fill-opacity="1" style="mix-blend-mode:passthrough"/></g></g></g></g></g><g><path d="M100,26.549755859375L107.7205,34.930155859375L109,33.462655859375005L101,24.427705859375L101,14.999755859375L99,14.999755859375L99,24.427705859375L91,33.443055859375L92.24448,34.949755859375L100,26.549755859375Z" fill="#A00100" fill-opacity="1" style="mix-blend-mode:passthrough"/></g><g><g><g><path d="M100.6798,58.648967999999996L111,68.5L89,68.5L100,58L100.6798,58.648967999999996ZM99.3201,60.0792L100,59.36408L100.6798,60.0792L92.14361,68.22749999999999L91.46374,67.51233L91.46374,66.52467L108.5363,66.52467L108.5363,67.51233L107.85640000000001,68.22749999999999L99.3201,60.0792Z" fill="#A00100" fill-opacity="1" style="mix-blend-mode:passthrough"/></g></g></g><g transform="matrix(-1,0,0,1,270,0)"><path d="M190.4965,15.9447L193.6304,5L181.7463,7.97896L185.3671,11.27513L135,57.9718L136.50866,59.3453L186.8757,12.64854L190.4965,15.9447Z" fill="#A00100" fill-opacity="1" style="mix-blend-mode:passthrough"/></g></g></svg>