<svg xmlns="http://www.w3.org/2000/svg" xmlns:xlink="http://www.w3.org/1999/xlink" fill="none" version="1.1" width="60" height="90" viewBox="0 0 60 90"><defs><clipPath id="master_svg0_6_83"><rect x="0" y="0" width="60" height="90" rx="0"/></clipPath></defs><g clip-path="url(#master_svg0_6_83)"><g><g></g><g><g><path d="M56.866063102722165,13.87152933807373L59.99996310272217,2.9268293380737305L48.115863102722166,5.90578933807373L51.73666310272217,9.201959338073731L1.369563102722168,55.89862933807373L2.878223102722168,57.27212933807373L53.24526310272217,10.575369338073731L56.866063102722165,13.87152933807373Z" fill="#A00100" fill-opacity="1" style="mix-blend-mode:passthrough"/></g></g><g><g><path d="M33.7988,31.6297L42.6255,39.738600000000005L44.127300000000005,38.3589L34.8808,29.86419L34.8808,21L32.7569,21L32.7569,29.84865L23,38.3405L24.4607,39.7571L33.7988,31.6297Z" fill="#A00100" fill-opacity="1" style="mix-blend-mode:passthrough"/></g></g><g><g><path d="M34.58342370605469,55.64120803198242L45.70212370605469,65.37196403198243L21.999923706054688,65.37196403198243L33.85102370605469,55.00016403198242L34.58342370605469,55.64120803198242ZM33.11852370605469,57.053984031982424L33.85102370605469,56.347594031982425L34.58342370605469,57.053984031982424L25.386773706054687,65.10276403198242L24.654293706054688,64.39637403198242L24.654293706054688,63.42076403198242L43.047823706054686,63.42076403198242L43.047823706054686,64.39637403198242L42.31522370605469,65.10276403198242L33.11852370605469,57.053984031982424Z" fill="#A00100" fill-opacity="1" style="mix-blend-mode:passthrough"/></g></g><g><g><ellipse cx="33.177188873291016" cy="30.99977397918701" rx="20.176990509033203" ry="20" fill-opacity="0" stroke-opacity="1" stroke="#A00100" fill="none" stroke-width="1" style="mix-blend-mode:passthrough"/></g></g><g><g><ellipse cx="33.177188873291016" cy="60.00007247924805" rx="20.176990509033203" ry="20" fill-opacity="0" stroke-opacity="1" stroke="#A00100" fill="none" stroke-width="1" style="mix-blend-mode:passthrough"/></g></g></g><g><ellipse cx="33" cy="11" rx="3" ry="3" fill="#4F4F4F" fill-opacity="1" style="mix-blend-mode:passthrough"/></g><g><ellipse cx="33" cy="81" rx="3" ry="3" fill="#4F4F4F" fill-opacity="1" style="mix-blend-mode:passthrough"/></g></g></svg>