<svg xmlns="http://www.w3.org/2000/svg" xmlns:xlink="http://www.w3.org/1999/xlink" fill="none" version="1.1" width="50" height="140" viewBox="0 0 50 140"><defs><clipPath id="master_svg0_31_802"><rect x="0" y="0" width="50" height="140" rx="0"/></clipPath></defs><g clip-path="url(#master_svg0_31_802)"><g><g><g><ellipse cx="25" cy="89.31482696533203" rx="24" ry="24" fill-opacity="0" stroke-opacity="1" stroke="#A00100" fill="none" stroke-width="1" style="mix-blend-mode:passthrough"/></g></g><g><g><ellipse cx="25" cy="51.61806106567383" rx="24" ry="24" fill-opacity="0" stroke-opacity="1" stroke="#A00100" fill="none" stroke-width="1" style="mix-blend-mode:passthrough"/></g></g><g><g><path d="M26,27.604594612884522L26,7.8137946128845215L24,7.8137946128845215L24,27.604594612884522L26,27.604594612884522Z" fill="#A00100" fill-opacity="1" style="mix-blend-mode:passthrough"/></g></g><g><g><g transform="matrix(0,1,-1,0,138.5000705718994,88.50007057189941)"><path d="M46.5,114.50007057189941L25,114.50007057189941L25,112.50007057189941L46.5,112.50007057189941L46.5,114.50007057189941Z" fill-rule="evenodd" fill="#A00100" fill-opacity="1"/></g><g transform="matrix(0,1,-1,0,29.999971389770508,-20.000028610229492)"><path d="M47.463300000000004,5.999971389770508L25,5.999971389770508L25,3.999971389770508L47.463300000000004,3.999971389770508L47.463300000000004,5.999971389770508Z" fill-rule="evenodd" fill="#A00100" fill-opacity="1"/></g></g><g><ellipse cx="25" cy="5" rx="3" ry="3" fill="#4F4F4F" fill-opacity="1" style="mix-blend-mode:passthrough"/></g></g><g><g><ellipse cx="25" cy="135.00006103515625" rx="3" ry="3" fill="#4F4F4F" fill-opacity="1" style="mix-blend-mode:passthrough"/></g></g></g></g></svg>