<svg xmlns="http://www.w3.org/2000/svg" xmlns:xlink="http://www.w3.org/1999/xlink" fill="none" version="1.1" width="50" height="90" viewBox="0 0 50 90"><defs><clipPath id="master_svg0_31_678"><rect x="0" y="0" width="50" height="90" rx="0"/></clipPath></defs><g clip-path="url(#master_svg0_31_678)"><g><g><line x1="5" y1="76.25" x2="45" y2="76.25" fill-opacity="0" stroke-opacity="1" stroke="#A00100" fill="none" stroke-width="1.5"/></g><g transform="matrix(0,-1,1,0,-52,102)"><path d="M37.5,78L25,78L25,76L37.5,76L37.5,78Z" fill-rule="evenodd" fill="#A00100" fill-opacity="1"/></g><g transform="matrix(0,-1,1,0,7.5,42.5)"><path d="M37.5,18.5L25,18.5L25,16.5L37.5,16.5L37.5,18.5Z" fill-rule="evenodd" fill="#A00100" fill-opacity="1"/></g><g transform="matrix(0,-1,1,0,2.5,47.5)"><path d="M37.5,23.5L25,23.5L25,21.5L37.5,21.5L37.5,23.5Z" fill-rule="evenodd" fill="#A00100" fill-opacity="1"/></g><g><line x1="12" y1="80.25" x2="38" y2="80.25" fill-opacity="0" stroke-opacity="1" stroke="#A00100" fill="none" stroke-width="1.5"/></g><g><line x1="16" y1="84.25" x2="34" y2="84.25" fill-opacity="0" stroke-opacity="1" stroke="#A00100" fill="none" stroke-width="1.5"/></g><g><ellipse cx="25" cy="62" rx="5" ry="5" fill="#A00100" fill-opacity="1" style="mix-blend-mode:passthrough"/></g><g><ellipse cx="25" cy="23" rx="5" ry="5" fill="#A00100" fill-opacity="1" style="mix-blend-mode:passthrough"/></g><g transform="matrix(0.6031182408332825,0.7976517677307129,-0.7976517677307129,0.6031182408332825,28.64920696153422,-13.579092612257227)"><path d="M56.246614843749995,23.99976L27.97021484375,25.72388L27.97021484375,23.72388L56.245614843750005,22L56.246614843749995,23.99976Z" fill="#A00100" fill-opacity="1" style="mix-blend-mode:passthrough"/></g></g><g><ellipse cx="25" cy="5" rx="3" ry="3" fill="#4F4F4F" fill-opacity="1" style="mix-blend-mode:passthrough"/></g></g></svg>