<svg xmlns="http://www.w3.org/2000/svg" xmlns:xlink="http://www.w3.org/1999/xlink" fill="none" version="1.1" width="50" height="90" viewBox="0 0 50 90"><defs><clipPath id="master_svg0_6_68"><rect x="0" y="0" width="50" height="90" rx="0"/></clipPath></defs><g clip-path="url(#master_svg0_6_68)"><g><g></g></g><g><g><g><path d="M23.8182,77L42,77L42,78.73913L2,78.73913L2,77L21.7403,77L23.8182,77ZM6.67532,83.08696L35.7662,83.08696L35.7662,81.34783L6.67532,81.34783L6.67532,83.08696ZM12.9091,87L31.0909,87L31.0909,85.26087L12.9091,85.26087L12.9091,87Z" fill="#A00100" fill-opacity="1" style="mix-blend-mode:passthrough"/></g><g><ellipse cx="22" cy="58" rx="5" ry="5" fill="#A00100" fill-opacity="1" style="mix-blend-mode:passthrough"/></g><g transform="matrix(0,1,-1,0,81,35)"><path d="M42,60L23,60L23,58L42,58L42,60Z" fill="#A00100" fill-opacity="1" style="mix-blend-mode:passthrough"/></g><g><ellipse cx="22" cy="25" rx="5" ry="5" fill="#A00100" fill-opacity="1" style="mix-blend-mode:passthrough"/></g><g transform="matrix(0,1,-1,0,30,-16)"><path d="M41,9L23,9L23,7L41,7L41,9Z" fill="#A00100" fill-opacity="1" style="mix-blend-mode:passthrough"/></g><g transform="matrix(0.6031182408332825,0.7976518273353577,-0.7976518273353577,0.6031182408332825,29.07368292782394,-9.95496806086976)"><path d="M52.81697312011718,26.238376943359373L24.540573120117188,27.962496943359376L24.540573120117188,25.962496943359376L52.81597312011719,24.238616943359375L52.81697312011718,26.238376943359373Z" fill="#A00100" fill-opacity="1" style="mix-blend-mode:passthrough"/></g></g></g><g><g><ellipse cx="22" cy="5" rx="3" ry="3" fill="#4F4F4F" fill-opacity="1" style="mix-blend-mode:passthrough"/></g></g></g></svg>