<svg xmlns="http://www.w3.org/2000/svg" xmlns:xlink="http://www.w3.org/1999/xlink" fill="none" version="1.1" width="60" height="100" viewBox="0 0 60 100"><defs><clipPath id="master_svg0_31_487"><rect x="0" y="0" width="60" height="100" rx="0"/></clipPath></defs><g clip-path="url(#master_svg0_31_487)"><g><g><g></g><g><g><g><path d="M50.5061,29.4939Q42.0122,21,29,21L29,23Q40.1838,23,49.0919,30.90812Q57,38.816199999999995,57,50Q57,61.1838,49.0919,69.09190000000001Q41.1838,77,30,77Q18.8162,77,10.90812,69.09190000000001Q3,61.1838,3,50L1,50Q1,62.0122,9.4939,70.5061Q17.9878,79,30,79Q42.0122,79,50.5061,70.5061Q59,62.0122,59,50Q59,37.9878,50.5061,29.4939Z" fill="#A00100" fill-opacity="1" style="mix-blend-mode:passthrough"/></g></g></g><g><g><g><path d="M31,11L52,11L52,9L7.5,9L7.5,11L29,11L29,22L31,22L31,11ZM29,50L29,90L31,90L31,48L1,48L1,50L29,50Z" fill="#A00100" fill-opacity="1" style="mix-blend-mode:passthrough"/></g></g></g><g><g><g><ellipse cx="30" cy="10" rx="3" ry="3" fill="#4F4F4F" fill-opacity="1" style="mix-blend-mode:passthrough"/></g></g></g><g><g><g><ellipse cx="30" cy="90" rx="3" ry="3" fill="#4F4F4F" fill-opacity="1" style="mix-blend-mode:passthrough"/></g></g></g></g></g></g></svg>