<svg xmlns="http://www.w3.org/2000/svg" xmlns:xlink="http://www.w3.org/1999/xlink" fill="none" version="1.1" width="99.99267578125" height="30" viewBox="0 0 99.99267578125 30"><defs><clipPath id="master_svg0_31_466"><rect x="0" y="0" width="99.99267578125" height="30" rx="0"/></clipPath><mask id="master_svg1_31_468" style="mask-type:alpha" maskUnits="objectBoundingBox"><g><g><rect x="0" y="0" width="99.99267578125" height="30" rx="0" fill="#000000" fill-opacity="1" style="mix-blend-mode:passthrough"/></g></g></mask></defs><g clip-path="url(#master_svg0_31_466)"><g mask="url(#master_svg1_31_468)"><g><g><g><g><g><path d="M35.341300000000004,0L35.341300000000004,30L37.2256,30L37.2256,0L35.341300000000004,0ZM54.5926,0L54.5926,30L56.4769,30L56.4769,0L54.5926,0ZM70.9562,15L70.9562,30L72.8406,30L72.8406,16L95,16L95,14L72.8406,14L72.8406,0L70.9562,0L70.9562,15ZM26.1969,16L26.1969,21.2903L28.0812,21.2903L28.0812,8.70968L26.1969,8.70968L26.1969,14L5,14L5,16L26.1969,16ZM44.0044,8.70968L44.0044,21.2903L45.8887,21.2903L45.8887,8.70968L44.0044,8.70968ZM63.2557,8.70968L63.2557,21.2903L65.14,21.2903L65.14,8.70968L63.2557,8.70968Z" fill="#A00100" fill-opacity="1" style="mix-blend-mode:passthrough"/></g></g></g><g><g><g><ellipse cx="5" cy="15.096774101257324" rx="3" ry="3" fill="#4F4F4F" fill-opacity="1" style="mix-blend-mode:passthrough"/></g></g></g><g><g><g><ellipse cx="95" cy="15.0966796875" rx="3" ry="3" fill="#4F4F4F" fill-opacity="1" style="mix-blend-mode:passthrough"/></g></g></g></g></g></g></g></svg>