<svg xmlns="http://www.w3.org/2000/svg" xmlns:xlink="http://www.w3.org/1999/xlink" fill="none" version="1.1" width="70" height="70" viewBox="0 0 70 70"><defs><clipPath id="master_svg0_31_631"><rect x="0" y="0" width="70" height="70" rx="0"/></clipPath></defs><g clip-path="url(#master_svg0_31_631)"><g><g><g><g><g><g><rect x="6" y="27" width="28" height="18" rx="0" fill-opacity="0" stroke-opacity="1" stroke="#A00100" fill="none" stroke-width="2" style="mix-blend-mode:passthrough"/></g></g><g><g><rect x="35" y="35" width="4.6875" height="1.8867924213409424" rx="0" fill="#A00100" fill-opacity="1" style="mix-blend-mode:passthrough"/></g></g><g><g><rect x="48" y="35" width="4.6875" height="1.8867924213409424" rx="0" fill="#A00100" fill-opacity="1" style="mix-blend-mode:passthrough"/></g></g><g><g><path d="M55,36.88679L57.5,36.88672L57.5,35L55,35L55,36.88679Z" fill="#A00100" fill-opacity="1" style="mix-blend-mode:passthrough"/></g></g><g><g><rect x="42" y="35" width="4.6875" height="1.8867924213409424" rx="0" fill="#A00100" fill-opacity="1" style="mix-blend-mode:passthrough"/></g></g><g><g><rect x="19" y="10" width="1.875" height="16.037734985351562" rx="0" fill="#A00100" fill-opacity="1" style="mix-blend-mode:passthrough"/></g></g><g><g><rect x="19" y="44" width="1.875" height="16.037734985351562" rx="0" fill="#A00100" fill-opacity="1" style="mix-blend-mode:passthrough"/></g></g><g><g><rect x="48.875" y="43.96226501464844" width="1.875" height="16.037734985351562" rx="0" fill="#A00100" fill-opacity="1" style="mix-blend-mode:passthrough"/></g></g></g><g transform="matrix(0.7048866748809814,-0.7093199491500854,0.7048866748809814,0.7093199491500854,-28.240965058795155,21.254233309113715)"><g><line x1="11.562042236328125" y1="43.90520095825195" x2="35.50205993652344" y2="43.90520095825195" fill-opacity="0" stroke-opacity="1" stroke="#A00100" fill="none" stroke-width="2" style="mix-blend-mode:passthrough"/></g></g></g><g><g><path d="M48.8125,26.3746L61.2038,42.6805L62.7962,41.4704L50.8125,25.7009L50.8125,10L48.8125,10L48.8125,26.3746Z" fill-rule="evenodd" fill="#A00100" fill-opacity="1" style="mix-blend-mode:passthrough"/></g></g></g></g></g></svg>