<svg xmlns="http://www.w3.org/2000/svg" xmlns:xlink="http://www.w3.org/1999/xlink" fill="none" version="1.1" width="30" height="100" viewBox="0 0 30 100"><defs><clipPath id="master_svg0_31_422"><rect x="0" y="0" width="30" height="100" rx="0"/></clipPath></defs><g clip-path="url(#master_svg0_31_422)"><g><g></g><g><g><g><g><g><g><path d="M16.1111,84.4544761038208L30,84.4544761038208L30,86.2726661038208L0,86.2726661038208L0,84.4544761038208L13.8889,84.4544761038208L13.8889,78.9999361038208L16.1111,78.9999361038208L16.1111,84.4544761038208ZM5,90.9999361038208L25.5557,90.9999361038208L25.5557,88.5452961038208L5,88.5452961038208L5,90.9999361038208ZM6.6665,94.9999361038208L23.3335,94.9999361038208L23.3335,93.2221361038208L6.6665,93.2221361038208L6.6665,94.9999361038208Z" fill="#A00100" fill-opacity="1" style="mix-blend-mode:passthrough"/></g></g></g><g><g><rect x="1" y="19.649483680725098" width="28" height="58.762882232666016" rx="0" fill-opacity="0" stroke-opacity="1" stroke="#A00100" fill="none" stroke-width="2" style="mix-blend-mode:passthrough"/></g></g><g><g><g><path d="M14,51.60822002716064L14,5.0000200271606445L16,5.0000200271606445L16,51.60822002716064L14,51.60822002716064Z" fill="#A00100" fill-opacity="1" style="mix-blend-mode:passthrough"/></g></g></g></g><g transform="matrix(1,0,0,-1,0,113.52549171447754)"><g><g><path d="M14.999783515930176,56.76274585723877L18.999783515930176,61.91738585723877L10.999783515930176,61.91738585723877L14.999783515930176,56.76274585723877Z" fill="#A00100" fill-opacity="1" style="mix-blend-mode:passthrough"/></g></g></g></g></g><g><g><ellipse cx="15" cy="5.123711109161377" rx="3" ry="3" fill="#4F4F4F" fill-opacity="1" style="mix-blend-mode:passthrough"/></g></g></g></g></svg>