<svg xmlns="http://www.w3.org/2000/svg" xmlns:xlink="http://www.w3.org/1999/xlink" fill="none" version="1.1" width="80" height="80" viewBox="0 0 80 80"><g><g></g><g><path d="M53.6897,52.275951L64.1598,62.25L41.84022,62.25L53,51.61888L53.6897,52.275951ZM52.310249999999996,53.724049L53,53L53.6897,53.724049L45.0295,61.97405L44.33975,61.25L44.33975,60.25L61.6603,60.25L61.6603,61.25L60.9705,61.97405L52.310249999999996,53.724049Z" fill="#A00100" fillOpacity="1"/></g><g><ellipse cx="53" cy="57" rx="19" ry="19" fillOpacity="0" stroke-opacity="1" stroke="#A00100" fill="none" strokeWidth="2"/></g><g><g><g transform="matrix(1,0,0,-1,0,67)"><path d="M53.48115,44.3954L61.7929,52.7071L63.2071,51.2929L54.5,42.58579L54.5,33.5L52.5,33.5L52.5,42.56987L43.312255,51.274L44.687745,52.726L53.48115,44.3954Z" fillRule="evenodd" fill="#A00100" fillOpacity="1"/></g><g><ellipse cx="53" cy="24" rx="19" ry="19" fillOpacity="0" stroke-opacity="1" stroke="#A00100" fill="none" strokeWidth="2"/></g></g><g><ellipse cx="53" cy="4" rx="3" ry="3" fill="#4F4F4F" fillOpacity="1"/></g></g><g><g><g transform="matrix(1,0,0,-1,0,101)"><path d="M25.48115,61.3954L33.7929,69.7071L35.2071,68.2929L26.5,59.58579L26.5,50.5L24.5,50.5L24.5,59.56987L15.312255,68.274L16.687745,69.726L25.48115,61.3954Z" fillRule="evenodd" fill="#A00100" fillOpacity="1"/></g><g><ellipse cx="25" cy="41" rx="19" ry="19" fillOpacity="0" stroke-opacity="1" stroke="#A00100" fill="none" strokeWidth="2"/></g></g><g><ellipse cx="5" cy="41" rx="3" ry="3" fill="#4F4F4F" fillOpacity="1"/></g></g><g><ellipse cx="53" cy="76" rx="3" ry="3" fill="#4F4F4F" fillOpacity="1"/></g></g></svg>