<svg xmlns="http://www.w3.org/2000/svg" xmlns:xlink="http://www.w3.org/1999/xlink" fill="none" version="1.1" width="60" height="90" viewBox="0 0 60 90"><g><g></g><g><path d="M53.5489,14.2183L56.5,3L45.3091,6.0534300000000005L48.7187,9.43201L1.289672,57.2961L2.710328,58.7039L50.1393,10.83975L53.5489,14.2183Z" fillRule="evenodd" fill="#A00100" fillOpacity="1"/></g><g><path d="M31.48115,28.895400000000002L39.7929,37.2071L41.2071,35.7929L32.5,27.08579L32.5,18L30.5,18L30.5,27.06987L21.312255,35.774L22.687745,37.226L31.48115,28.895400000000002Z" fillRule="evenodd" fill="#A00100" fillOpacity="1"/></g><g><path d="M31.689700000000002,58.275951L42.159800000000004,68.25L19.84022,68.25L31,57.61888L31.689700000000002,58.275951ZM30.31025,59.724049L31,59L31.689700000000002,59.724049L23.0295,67.97405L22.33975,67.25L22.33975,66.25L39.6603,66.25L39.6603,67.25L38.9705,67.97405L30.31025,59.724049Z" fill="#A00100" fillOpacity="1"/></g><g><ellipse cx="31" cy="30" rx="19" ry="19" fillOpacity="0" stroke-opacity="1" stroke="#A00100" fill="none" strokeWidth="2"/></g><g><ellipse cx="31" cy="63" rx="19" ry="19" fillOpacity="0" stroke-opacity="1" stroke="#A00100" fill="none" strokeWidth="2"/></g><g><ellipse cx="31" cy="10" rx="3" ry="3" fill="#4F4F4F" fillOpacity="1"/></g><g><ellipse cx="31" cy="82" rx="3" ry="3" fill="#4F4F4F" fillOpacity="1"/></g></g></svg>