<svg xmlns="http://www.w3.org/2000/svg" xmlns:xlink="http://www.w3.org/1999/xlink" fill="none" version="1.1" width="50" height="90" viewBox="0 0 50 90"><g><g></g><g><path d="M23,20.5L23,6.5L21,6.5L21,20.5L23,20.5ZM24.2929,29.2071L48.2929,53.2071L49.7071,51.7929L25.7071,27.7929L24.2929,29.2071ZM23,76.5L40.5,76.5L40.5,78.5L2,78.5L2,76.5L21,76.5L21,63L23,63L23,76.5ZM6.5,83.5L34.5,83.5L34.5,81.5L6.5,81.5L6.5,83.5ZM12.5,88L30,88L30,86L12.5,86L12.5,88Z" fillRule="evenodd" fill="#A00100" fillOpacity="1"/></g><g><ellipse cx="22" cy="25" rx="5" ry="5" fill="#A00100" fillOpacity="1"/></g><g><ellipse cx="22" cy="58" rx="5" ry="5" fill="#A00100" fillOpacity="1"/></g><g><ellipse cx="22" cy="5" rx="3" ry="3" fill="#4F4F4F" fillOpacity="1"/></g></g></svg>