<svg xmlns="http://www.w3.org/2000/svg" xmlns:xlink="http://www.w3.org/1999/xlink" fill="none" version="1.1" width="89.86376953125" height="20" viewBox="0 0 89.86376953125 20"><g><g><g><rect x="26.56818151473999" y="1" width="35.84090805053711" height="18" rx="0" fillOpacity="0" stroke-opacity="1" stroke="#A00100" fill="none" strokeWidth="2"/></g><g><path d="M84.57079147262573,10.272324018127442L78.20679147262574,16.63628701812744Q78.06609147262573,16.77693701812744,77.88239147262573,16.85305701812744Q77.69859147262574,16.92917701812744,77.49969147262573,16.92917701812744Q77.30079147262573,16.92917701812744,77.11699147262573,16.85305701812744Q76.93319147262574,16.77693701812744,76.79259147262573,16.63628701812744Q76.72289147262573,16.56663701812744,76.66819147262574,16.484747018127443Q76.61349147262573,16.402857018127442,76.57579147262574,16.31185701812744Q76.53809147262574,16.220867018127443,76.51889147262574,16.12426701812744Q76.49969147262573,16.027667018127442,76.49969147262573,15.92917701812744Q76.49969147262573,15.830687018127442,76.51889147262574,15.734087018127441Q76.53809147262574,15.637487018127441,76.57579147262574,15.546497018127441Q76.61349147262573,15.455497018127442,76.66819147262574,15.37360701812744Q76.72289147262573,15.291717018127441,76.79259147262573,15.222067018127442L81.44939147262573,10.565217018127441L63.40909147262573,10.565217018127441L63.40909147262573,8.565217018127441L81.44939147262573,8.565217018127441L76.79259147262573,3.908367018127441Q76.72289147262573,3.8387170181274417,76.66819147262574,3.7568270181274412Q76.61349147262573,3.6749370181274417,76.57579147262574,3.5839370181274415Q76.53809147262574,3.492947018127442,76.51889147262574,3.3963470181274413Q76.49969147262573,3.2997470181274418,76.49969147262573,3.201257018127442Q76.49969147262573,3.102767018127442,76.51889147262574,3.0061670181274414Q76.53809147262574,2.909567018127442,76.57579147262574,2.818577018127441Q76.61349147262573,2.727577018127441,76.66819147262574,2.6456870181274414Q76.72289147262573,2.563797018127441,76.79259147262573,2.4941470181274417Q76.93319147262574,2.3534970181274417,77.11699147262573,2.2773770181274413Q77.30079147262573,2.201257018127442,77.49969147262573,2.201257018127442Q77.69859147262574,2.201257018127442,77.88239147262573,2.2773770181274413Q78.06609147262573,2.3534970181274417,78.20679147262574,2.4941470181274417L84.57079147262573,8.85811001812744L84.57079147262573,8.85812701812744Q84.71139147262573,8.99877801812744,84.78749147262573,9.182544018127441Q84.86359147262573,9.366311018127442,84.86359147262573,9.565217018127441Q84.86359147262573,9.764129018127441,84.78749147262573,9.947900018127442Q84.71139147262573,10.131672018127441,84.57079147262573,10.272324018127442Z" fillRule="evenodd" fill="#A00100" fillOpacity="1"/></g><g><path d="M79.96849147262573,10.272324018127442L73.60449147262574,16.63628701812744Q73.46389147262573,16.77693701812744,73.28008147262574,16.85305701812744Q73.09631147262573,16.92917701812744,72.89740147262573,16.92917701812744Q72.69849147262573,16.92917701812744,72.51472147262574,16.85305701812744Q72.33094147262574,16.77693701812744,72.19029147262573,16.63628701812744Q72.12065147262574,16.56663701812744,72.06593147262573,16.484747018127443Q72.01121147262573,16.402857018127442,71.97352147262573,16.31185701812744Q71.93583147262574,16.220867018127443,71.91661147262573,16.12426701812744Q71.89740147262573,16.027667018127442,71.89740147262573,15.92917701812744Q71.89740147262573,15.830687018127442,71.91661147262573,15.734087018127441Q71.93583147262574,15.637487018127441,71.97352147262573,15.546497018127441Q72.01121147262573,15.455497018127442,72.06593147262573,15.37360701812744Q72.12065147262574,15.291717018127441,72.19029147262573,15.222067018127442L76.84719147262574,10.565217018127441L63.40909147262573,10.565217018127441L63.40909147262573,8.565217018127441L76.84719147262574,8.565217018127441L72.19029147262573,3.908367018127441Q72.12065147262574,3.8387170181274417,72.06593147262573,3.7568270181274412Q72.01121147262573,3.6749370181274417,71.97352147262573,3.5839370181274415Q71.93583147262574,3.492947018127442,71.91661147262573,3.3963470181274413Q71.89740147262573,3.2997470181274418,71.89740147262573,3.201257018127442Q71.89740147262573,3.102767018127442,71.91661147262573,3.0061670181274414Q71.93583147262574,2.909567018127442,71.97352147262573,2.818577018127441Q72.01121147262573,2.727577018127441,72.06593147262573,2.6456870181274414Q72.12065147262574,2.563797018127441,72.19029147262573,2.4941470181274417Q72.33095147262573,2.3534970181274417,72.51472147262574,2.2773770181274413Q72.69849147262573,2.201257018127442,72.89740147262573,2.201257018127442Q73.09631147262573,2.201257018127442,73.28008147262574,2.2773770181274413Q73.46389147262573,2.3534970181274417,73.60449147262574,2.4941470181274417L79.96849147262573,8.85811001812744L79.96849147262573,8.85812701812744Q80.10909147262574,8.99877801812744,80.18529147262574,9.182544018127441Q80.26139147262573,9.366311018127442,80.26139147262573,9.565217018127441Q80.26139147262573,9.764129018127441,80.18529147262574,9.947900018127442Q80.10909147262574,10.131672018127441,79.96849147262573,10.272324018127442Z" fillRule="evenodd" fill="#A00100" fillOpacity="1"/></g><g><path d="M11.793223506317139,2.9289300000000003L5.429256506317139,9.292893Q5.364381506317139,9.357768,5.312394506317139,9.433365Q5.263121506317138,9.505015,5.226956506317139,9.584094Q5.190790506317139,9.663173,5.168817506317138,9.747307Q5.146843506317139,9.831442,5.139722506317138,9.9181063Q5.132603506317139,10.00477073,5.140546506317139,10.0913636Q5.148490506317138,10.177956,5.171262506317139,10.261878Q5.194034506317139,10.3458,5.230950506317138,10.424532Q5.267866506317139,10.503263,5.317817506317139,10.574441Q5.3677695063171385,10.645619,5.429256506317139,10.707107L11.793223506317139,17.07107Q11.862863506317138,17.14071,11.944753506317138,17.19543Q12.02664350631714,17.250149999999998,12.117643506317139,17.28784Q12.208633506317138,17.32553,12.305233506317139,17.34474Q12.40183350631714,17.36396,12.500323506317137,17.36396Q12.59881350631714,17.36396,12.695413506317138,17.34474Q12.792013506317138,17.32553,12.883003506317138,17.28784Q12.974003506317139,17.250149999999998,13.055893506317139,17.19543Q13.137783506317138,17.14071,13.207433506317138,17.07107Q13.277073506317139,17.00142,13.331793506317139,16.91953Q13.386513506317138,16.83764,13.424203506317138,16.74664Q13.46189350631714,16.65565,13.48111350631714,16.55905Q13.500323506317137,16.46245,13.500323506317137,16.36396Q13.500323506317137,16.26547,13.48111350631714,16.16887Q13.46189350631714,16.07227,13.424203506317138,15.98128Q13.386513506317138,15.89028,13.331793506317139,15.80839Q13.277073506317139,15.7265,13.207433506317138,15.65685L8.55057350631714,11L26.07956350631714,11L26.07956350631714,9L8.55057350631714,9L13.207433506317138,4.34315Q13.277073506317139,4.2735,13.331793506317139,4.19161Q13.386513506317138,4.10972,13.424203506317138,4.01872Q13.46189350631714,3.9277300000000004,13.48111350631714,3.83113Q13.500323506317137,3.7345300000000003,13.500323506317137,3.6360400000000004Q13.500323506317137,3.5375500000000004,13.48111350631714,3.44095Q13.46189350631714,3.3443500000000004,13.424203506317138,3.25336Q13.386513506317138,3.1623599999999996,13.331793506317139,3.08047Q13.277073506317139,2.9985799999999996,13.207433506317138,2.9289300000000003Q13.137783506317138,2.8592899999999997,13.055893506317139,2.80457Q12.974003506317139,2.7498500000000003,12.883003506317138,2.71216Q12.792013506317138,2.6744700000000003,12.695413506317138,2.65526Q12.59881350631714,2.6360400000000004,12.500323506317137,2.6360400000000004Q12.40183350631714,2.6360400000000004,12.305233506317139,2.65526Q12.208633506317138,2.6744700000000003,12.117643506317139,2.71216Q12.02664350631714,2.7498500000000003,11.944753506317138,2.80457Q11.862863506317138,2.8592899999999997,11.793223506317139,2.9289300000000003Z" fillRule="evenodd" fill="#A00100" fillOpacity="1"/></g><g><path d="M16.906859523162844,2.9289300000000003L10.542892523162841,9.292893Q10.478017523162842,9.357768,10.426030523162842,9.433365Q10.376757523162842,9.505015,10.340592523162842,9.584094Q10.304426523162842,9.663173,10.282453523162841,9.747307Q10.260479523162841,9.831442,10.253358523162841,9.9181063Q10.246239523162842,10.00477073,10.254182523162841,10.0913636Q10.262126523162841,10.177956,10.284898523162841,10.261878Q10.307670523162841,10.3458,10.344586523162842,10.424532Q10.381502523162842,10.503263,10.431453523162842,10.574441Q10.481405523162842,10.645619,10.542892523162841,10.707107L16.906859523162844,17.07107Q16.976499523162843,17.14071,17.05838952316284,17.19543Q17.140279523162842,17.250149999999998,17.23127952316284,17.28784Q17.32226952316284,17.32553,17.41886952316284,17.34474Q17.515469523162842,17.36396,17.61395952316284,17.36396Q17.712449523162842,17.36396,17.80904952316284,17.34474Q17.905649523162843,17.32553,17.99663952316284,17.28784Q18.087639523162842,17.250149999999998,18.169529523162844,17.19543Q18.25141952316284,17.14071,18.32106952316284,17.07107Q18.39070952316284,17.00142,18.445429523162844,16.91953Q18.50014952316284,16.83764,18.53783952316284,16.74664Q18.575529523162842,16.65565,18.594749523162843,16.55905Q18.61395952316284,16.46245,18.61395952316284,16.36396Q18.61395952316284,16.26547,18.594749523162843,16.16887Q18.575529523162842,16.07227,18.53783952316284,15.98128Q18.50014952316284,15.89028,18.445429523162844,15.80839Q18.39070952316284,15.7265,18.32106952316284,15.65685L13.664209523162842,11L27.10229952316284,11L27.10229952316284,9L13.664209523162842,9L18.32106952316284,4.34315Q18.39070952316284,4.2735,18.445429523162844,4.19161Q18.50014952316284,4.10972,18.53783952316284,4.01872Q18.575529523162842,3.9277300000000004,18.594749523162843,3.83113Q18.61395952316284,3.7345300000000003,18.61395952316284,3.6360400000000004Q18.61395952316284,3.5375500000000004,18.594749523162843,3.44095Q18.575529523162842,3.3443500000000004,18.53783952316284,3.25336Q18.50014952316284,3.1623599999999996,18.445429523162844,3.08047Q18.39070952316284,2.9985799999999996,18.32106952316284,2.9289300000000003Q18.25141952316284,2.8592899999999997,18.169529523162844,2.80457Q18.087639523162842,2.7498500000000003,17.99663952316284,2.71216Q17.905649523162843,2.6744700000000003,17.80904952316284,2.65526Q17.712449523162842,2.6360400000000004,17.61395952316284,2.6360400000000004Q17.515469523162842,2.6360400000000004,17.41886952316284,2.65526Q17.32226952316284,2.6744700000000003,17.23127952316284,2.71216Q17.140279523162842,2.7498500000000003,17.05838952316284,2.80457Q16.976499523162843,2.8592899999999997,16.906859523162844,2.9289300000000003Z" fillRule="evenodd" fill="#A00100" fillOpacity="1"/></g></g><g><ellipse cx="86.86363220214844" cy="9.95652151107788" rx="3" ry="3" fill="#4F4F4F" fillOpacity="1"/></g><g><ellipse cx="3" cy="9.95652151107788" rx="3" ry="3" fill="#4F4F4F" fillOpacity="1"/></g></g></svg>