<svg xmlns="http://www.w3.org/2000/svg" xmlns:xlink="http://www.w3.org/1999/xlink" fill="none" version="1.1" width="99.99267578125" height="30" viewBox="0 0 99.99267578125 30"><g><g><path d="M35.26887764587402,0L35.26887764587402,30L37.26887764587402,30L37.26887764587402,0L35.26887764587402,0ZM55.70207764587402,0L55.70207764587402,30L57.70207764587402,30L57.70207764587402,0L55.70207764587402,0ZM73.07027764587403,15L73.07027764587403,30L75.07027764587403,30L75.07027764587403,16L98.59007764587402,16L98.59007764587402,14L75.07027764587403,14L75.07027764587403,0L73.07027764587403,0L73.07027764587403,15ZM25.563177645874024,16L25.563177645874024,21.2903L27.563177645874024,21.2903L27.563177645874024,8.70968L25.563177645874024,8.70968L25.563177645874024,14L3.0649776458740234,14L3.0649776458740234,16L25.563177645874024,16ZM44.46387764587402,8.70968L44.46387764587402,21.2903L46.46387764587402,21.2903L46.46387764587402,8.70968L44.46387764587402,8.70968ZM64.89697764587402,8.70968L64.89697764587402,21.2903L66.89697764587402,21.2903L66.89697764587402,8.70968L64.89697764587402,8.70968Z" fillRule="evenodd" fill="#A00100" fillOpacity="1"/></g><g><ellipse cx="3" cy="15.096774101257324" rx="3" ry="3" fill="#4F4F4F" fillOpacity="1"/></g><g><ellipse cx="96.99264526367188" cy="15.096774101257324" rx="3" ry="3" fill="#4F4F4F" fillOpacity="1"/></g></g></svg>