<svg xmlns="http://www.w3.org/2000/svg" xmlns:xlink="http://www.w3.org/1999/xlink" fill="none" version="1.1" width="60" height="100" viewBox="0 0 60 100"><g><g></g><g><path d="M50.5061,29.4939Q42.0122,21,30,21L30,23Q41.1838,23,49.0919,30.90812Q57,38.816199999999995,57,50Q57,61.1838,49.0919,69.09190000000001Q41.1838,77,30,77Q18.8162,77,10.90812,69.09190000000001Q3,61.1838,3,50L1,50Q1,62.0122,9.4939,70.5061Q17.9878,79,30,79Q42.0122,79,50.5061,70.5061Q59,62.0122,59,50Q59,37.9878,50.5061,29.4939Z" fillRule="evenodd" fill="#A00100" fillOpacity="1"/></g><g><path d="M32,11L52,11L52,9L7.5,9L7.5,11L30,11L30,22L32,22L32,11ZM30,50L30,90L32,90L32,48L1,48L1,50L30,50Z" fillRule="evenodd" fill="#A00100" fillOpacity="1"/></g><g><ellipse cx="31" cy="9" rx="3" ry="3" fill="#4F4F4F" fillOpacity="1"/></g><g><ellipse cx="31" cy="91" rx="3" ry="3" fill="#4F4F4F" fillOpacity="1"/></g></g></svg>