<svg xmlns="http://www.w3.org/2000/svg" xmlns:xlink="http://www.w3.org/1999/xlink" fill="none" version="1.1" width="70.84423828125" height="73.2724609375" viewBox="0 0 70.84423828125 73.2724609375"><g><g><rect x="1" y="31.946834564208984" width="22.961240768432617" height="15.364341735839844" rx="0" fillOpacity="0" stroke-opacity="1" stroke="#A00100" fill="none" strokeWidth="2"/></g><g><path d="M12.023398150939942,-0.00034513749999999857L11.48076815093994,32.015201562499996L13.480478150939941,32.0491015625L14.02310815093994,0.033548262499999995L12.023398150939942,-0.00034513749999999857ZM53.09302815093994,24.6873015625L53.09302815093994,0.0166015625L51.09302815093994,0.0166015625L51.09302815093994,25.2684015625L58.88312815093994,37.5437015625L54.26352815093994,37.5437015625L54.26352815093994,39.5437015625L60.15242815093994,39.5437015625L69.15562815093995,53.7307015625L70.84432815093994,52.6591015625L53.09302815093994,24.6873015625ZM17.66332815093994,31.4143015625L5.725310150939942,46.6081015625L7.297946150939941,47.8437015625L19.23592815093994,32.6499015625L17.66332815093994,31.4143015625ZM24.96122815093994,39.5437015625L30.387628150939943,39.5437015625L30.387628150939943,37.5437015625L24.96122815093994,37.5437015625L24.96122815093994,39.5437015625ZM33.64342815093994,39.5437015625L39.61242815093994,39.5437015625L39.61242815093994,37.5437015625L33.64342815093994,37.5437015625L33.64342815093994,39.5437015625ZM42.86822815093994,39.5437015625L50.46512815093994,39.5437015625L50.46512815093994,37.5437015625L42.86822815093994,37.5437015625L42.86822815093994,39.5437015625ZM10.93798815093994,47.7685015625L10.93798815093994,73.2724015625L12.93798815093994,73.2724015625L12.93798815093994,47.7685015625L10.93798815093994,47.7685015625ZM51.09302815093994,50.4817015625L51.09302815093994,72.1871015625L53.09302815093994,72.1871015625L53.09302815093994,50.4817015625L51.09302815093994,50.4817015625Z" fillRule="evenodd" fill="#A00100" fillOpacity="1"/></g></g></svg>