<svg xmlns="http://www.w3.org/2000/svg" xmlns:xlink="http://www.w3.org/1999/xlink" fill="none" version="1.1" width="70" height="70" viewBox="0 0 70 70"><defs><clipPath id="master_svg0_6_46"><rect x="0" y="0" width="70" height="70" rx="0"/></clipPath></defs><g clip-path="url(#master_svg0_6_46)"><g><g><g><g><rect x="6" y="25" width="28" height="18" rx="0" fill-opacity="0" stroke-opacity="1" stroke="#A00100" fill="none" stroke-width="2" style="mix-blend-mode:passthrough"/></g><g><rect x="35" y="33" width="4.6875" height="1.8867924213409424" rx="0" fill="#A00100" fill-opacity="1"/></g><g><rect x="48" y="33" width="4.6875" height="1.8867924213409424" rx="0" fill="#A00100" fill-opacity="1"/></g><g><rect x="55" y="33" width="4.6875" height="1.8867924213409424" rx="0" fill="#A00100" fill-opacity="1"/></g><g><rect x="42" y="33" width="4.6875" height="1.8867924213409424" rx="0" fill="#A00100" fill-opacity="1"/></g><g><rect x="19" y="8" width="1.875" height="16.037734985351562" rx="0" fill="#A00100" fill-opacity="1"/></g><g><rect x="19" y="42" width="1.875" height="16.037734985351562" rx="0" fill="#A00100" fill-opacity="1"/></g><g><rect x="51.875" y="41.96226501464844" width="1.875" height="16.037734985351562" rx="0" fill="#A00100" fill-opacity="1"/></g></g><g transform="matrix(0.7048866748809814,-0.7093199491500854,0.7048866748809814,0.7093199491500854,-26.83119170903319,20.672873207413886)"><line x1="11.562042236328125" y1="41.90520095825195" x2="35.50205993652344" y2="41.90520095825195" fill-opacity="0" stroke-opacity="1" stroke="#A00100" fill="none" stroke-width="2"/></g></g><g><path d="M51.8125,24.3746L64.2038,40.6805L65.7962,39.4704L53.8125,23.7009L53.8125,8L51.8125,8L51.8125,24.3746Z" fill-rule="evenodd" fill="#A00100" fill-opacity="1"/></g></g></g></svg>