<svg xmlns="http://www.w3.org/2000/svg" xmlns:xlink="http://www.w3.org/1999/xlink" fill="none" version="1.1" width="30" height="100" viewBox="0 0 30 100"><g><g></g><g><path d="M15.5,84L28,84L28,86L1,86L1,84L13.5,84L13.5,78L15.5,78L15.5,84ZM5.5,90.5L24,90.5L24,88.5L5.5,88.5L5.5,90.5ZM7,95L22,95L22,93L7,93L7,95Z" fillRule="evenodd" fill="#A00100" fillOpacity="1"/></g><g><g><rect x="2" y="22" width="26" height="55" rx="0" fillOpacity="0" stroke-opacity="1" stroke="#A00100" fill="none" strokeWidth="2"/></g><g><path d="M14,51.5L14,7L16,7L16,51.5L14,51.5Z" fillRule="evenodd" fill="#A00100" fillOpacity="1"/></g><g><ellipse cx="15" cy="5" rx="3" ry="3" fill="#4F4F4F" fillOpacity="1"/></g><g transform="matrix(1,0,0,-1,0,112)"><path d="M15,56L18.464100000000002,60.5L11.535898,60.5L15,56Z" fill="#A00100" fillOpacity="1"/></g></g></g></svg>