<svg xmlns="http://www.w3.org/2000/svg" xmlns:xlink="http://www.w3.org/1999/xlink" fill="none" version="1.1" width="30" height="100" viewBox="0 0 30 100"><defs><clipPath id="master_svg0_6_232"><rect x="0" y="0" width="30" height="100" rx="0"/></clipPath></defs><g clip-path="url(#master_svg0_6_232)"><g><g></g><g><g><g><g><g><path d="M16.1111,85.13636L30,85.13636L30,87.18182L0,87.18182L0,85.13636L13.8889,85.13636L13.8889,79L16.1111,79L16.1111,85.13636ZM5,91.7841L25.5556,91.7841L25.5556,89.7386L5,89.7386L5,91.7841ZM6.66667,96.3864L23.3333,96.3864L23.3333,94.3409L6.66667,94.3409L6.66667,96.3864Z" fill="#A00100" fill-opacity="1" style="mix-blend-mode:passthrough"/></g></g><g><rect x="1" y="21" width="28" height="57" rx="0" fill-opacity="0" stroke-opacity="1" stroke="#A00100" fill="none" stroke-width="2" style="mix-blend-mode:passthrough"/></g><g><g><path d="M14,52L14,6L16,6L16,52L14,52Z" fill="#A00100" fill-opacity="1" style="mix-blend-mode:passthrough"/></g></g></g><g transform="matrix(1,0,0,-1,0,113.9997329711914)"><g><path d="M14.999783515930176,56.9998664855957L18.999783515930176,61.9998664855957L10.999783515930176,61.9998664855957L14.999783515930176,56.9998664855957Z" fill="#A00100" fill-opacity="1" style="mix-blend-mode:passthrough"/></g></g></g></g><g><ellipse cx="15" cy="4" rx="3" ry="3" fill="#4F4F4F" fill-opacity="1" style="mix-blend-mode:passthrough"/></g></g></g></svg>