<svg xmlns="http://www.w3.org/2000/svg" xmlns:xlink="http://www.w3.org/1999/xlink" fill="#000" version="1.1" width="140" height="30" viewBox="0 0 140 30"><g><g></g><g><g><path d="M33,22.598L36.798,22.598C40.74,22.598,43.242000000000004,20.366,43.242000000000004,15.866C43.242000000000004,11.384,40.74,9.26,36.653999999999996,9.26L33,9.26L33,22.598ZM35.664,20.438000000000002L35.664,11.402000000000001L36.474000000000004,11.402000000000001C38.976,11.402000000000001,40.524,12.626000000000001,40.524,15.866C40.524,19.106,38.976,20.438000000000002,36.474000000000004,20.438000000000002L35.664,20.438000000000002ZM44.16,22.598L46.914,22.598L47.832,20.744C48.12,20.15,48.39,19.555999999999997,48.678,18.997999999999998L48.768,18.997999999999998C49.092,19.555999999999997,49.434,20.15,49.739999999999995,20.744L50.856,22.598L53.7,22.598L50.55,17.648L53.501999999999995,12.518L50.766,12.518L49.92,14.3C49.686,14.876000000000001,49.416,15.452,49.182,16.009999999999998L49.11,16.009999999999998C48.804,15.452,48.498,14.876000000000001,48.21,14.3L47.202,12.518L44.358000000000004,12.518L47.31,17.36L44.16,22.598ZM54.528,18.404L59.442,18.404L59.442,16.496000000000002L54.528,16.496000000000002L54.528,18.404ZM61.944,22.598L70.314,22.598L70.314,20.366L64.608,20.366L64.608,16.802L69.27000000000001,16.802L69.27000000000001,14.57L64.608,14.57L64.608,11.492L70.116,11.492L70.116,9.26L61.944,9.26L61.944,22.598ZM76.128,22.85C77.172,22.85,78.18,22.292,78.918,21.554000000000002L78.99000000000001,21.554000000000002L79.188,22.598L81.348,22.598L81.348,8.234L78.702,8.234L78.702,11.78L78.792,13.364C78.072,12.698,77.37,12.266,76.23599999999999,12.266C74.076,12.266,72.006,14.282,72.006,17.558C72.006,20.869999999999997,73.608,22.85,76.128,22.85ZM76.812,20.672C75.47999999999999,20.672,74.72399999999999,19.628,74.72399999999999,17.522C74.72399999999999,15.524000000000001,75.678,14.443999999999999,76.812,14.443999999999999C77.46000000000001,14.443999999999999,78.09,14.642,78.702,15.2L78.702,19.628C78.126,20.384,77.51400000000001,20.672,76.812,20.672ZM84.174,22.598L86.82,22.598L86.82,12.518L84.174,12.518L84.174,22.598ZM85.506,10.879999999999999C86.406,10.879999999999999,87.036,10.322,87.036,9.44C87.036,8.576,86.406,8,85.506,8C84.57,8,83.976,8.576,83.976,9.44C83.976,10.322,84.57,10.879999999999999,85.506,10.879999999999999ZM93.336,22.85C94.218,22.85,94.92,22.634,95.47800000000001,22.472L95.02799999999999,20.546C94.75800000000001,20.654,94.362,20.762,94.038,20.762C93.138,20.762,92.652,20.222,92.652,19.07L92.652,14.606L95.154,14.606L95.154,12.518L92.652,12.518L92.652,9.8L90.47399999999999,9.8L90.168,12.518L88.602,12.644L88.602,14.606L90.024,14.606L90.024,19.088C90.024,21.32,90.94200000000001,22.85,93.336,22.85ZM101.094,22.85C103.614,22.85,105.936,20.906,105.936,17.558C105.936,14.21,103.614,12.266,101.094,12.266C98.556,12.266,96.25200000000001,14.21,96.25200000000001,17.558C96.25200000000001,20.906,98.556,22.85,101.094,22.85ZM101.094,20.689999999999998C99.708,20.689999999999998,98.952,19.466,98.952,17.558C98.952,15.668,99.708,14.426,101.094,14.426C102.462,14.426,103.236,15.668,103.236,17.558C103.236,19.466,102.462,20.689999999999998,101.094,20.689999999999998ZM108.15,22.598L110.796,22.598L110.796,16.586C111.372,15.128,112.308,14.606,113.082,14.606C113.514,14.606,113.802,14.66,114.162,14.768L114.594,12.482C114.306,12.356,113.982,12.266,113.424,12.266C112.38,12.266,111.3,12.986,110.562,14.3L110.508,14.3L110.31,12.518L108.15,12.518L108.15,22.598Z" fill="#5D8BF7" fill-opacity="1"/></g><g><g><path d="M8.48959,11.48959Q10.97918,9,14.5,9Q14.59849,9,14.69509,8.980785000000001Q14.79169,8.96157,14.88268,8.923879Q14.97368,8.886188,15.0556,8.83147Q15.1375,8.776751,15.2071,8.707107Q15.2767,8.637463,15.3315,8.55557Q15.3862,8.473678,15.4239,8.382683Q15.4616,8.291689,15.4808,8.19509Q15.5,8.0984914,15.5,8Q15.5,7.9015086,15.4808,7.80491Q15.4616,7.708311,15.4239,7.617317Q15.3862,7.526322,15.3315,7.44443Q15.2767,7.362537,15.2071,7.292893Q15.1375,7.223249,15.0556,7.16853Q14.97368,7.113812,14.88268,7.076121Q14.79169,7.03843,14.69509,7.019215Q14.59849,7,14.5,7Q10.15076,7,7.07538,10.07538Q4,13.15076,4,17.5Q4,21.8492,7.07538,24.9246Q10.15076,28,14.5,28Q18.8492,28,21.9246,24.9246Q25,21.8492,25,17.5Q25,17.401510000000002,24.9808,17.30491Q24.9616,17.20831,24.9239,17.11732Q24.8862,17.02632,24.8315,16.94443Q24.7767,16.86254,24.7071,16.79289Q24.6375,16.72325,24.5556,16.66853Q24.4737,16.61381,24.3827,16.57612Q24.2917,16.538429999999998,24.1951,16.51921Q24.0985,16.5,24,16.5Q23.9015,16.5,23.8049,16.51921Q23.7083,16.538429999999998,23.6173,16.57612Q23.5263,16.61381,23.4444,16.66853Q23.3625,16.72325,23.2929,16.79289Q23.2232,16.86254,23.1685,16.94443Q23.1138,17.02632,23.0761,17.11732Q23.0384,17.20831,23.0192,17.30491Q23,17.401510000000002,23,17.5Q23,21.0208,20.5104,23.5104Q18.0208,26,14.5,26Q10.97919,26,8.48959,23.5104Q6,21.0208,6,17.5Q6,13.97918,8.48959,11.48959Z" fill-rule="evenodd" fill="#5D8BF7" fill-opacity="1"/></g><g><path d="M21.206960000000002,12.6779Q21.643720000000002,12.55337,22.0455,12.42884Q22.395,12.32209,22.7618,12.21535Q23.128700000000002,12.10861,23.3733,12.01966L23.128700000000002,12.96254Q23.023899999999998,13.3539,22.936500000000002,13.5496Q22.7618,14.03,22.526,14.4391Q22.290100000000002,14.8483,22.0805,15.1507Q21.835900000000002,15.5066,21.57384,15.809L19.424970000000002,16.4672L21.18949,16.787399999999998Q20.84008,17.0899,20.43826,17.4101Q20.08885,17.677,19.643349999999998,17.9705Q19.19785,18.264,18.708669999999998,18.5131Q18.2195,18.7622,17.61677,18.7711Q17.01404,18.78,16.472450000000002,18.691000000000003Q15.84351,18.6021,15.21457,18.3886Q15.40675,18.086100000000002,15.63387,17.7125Q15.826039999999999,17.3923,16.09683,16.9565Q16.36763,16.5206,16.66463,15.9869Q17.50321,14.5459,18.28938,13.1582Q19.07556,11.7706,19.7045,10.64981Q20.42078,9.35112,21.08467,8.194749999999999Q20.263550000000002,9.155429999999999,19.35508,10.347380000000001Q18.56891,11.36142,17.60803,12.75796Q16.64716,14.1545,15.65134,15.809Q15.44169,16.147,15.17963,16.5918Q14.91757,17.0365,14.62931,17.534599999999998Q14.34105,18.0328,14.035309999999999,18.5576Q13.72958,19.0824,13.43258,19.5805Q12.733761,20.7369,12,22Q12.0174705,21.6264,12.139764,21.0393Q12.244587,20.5412,12.489174,19.794Q12.733761,19.0468,13.18799,18.0328Q13.48499,17.3923,13.64223,17.0365Q13.79946,16.6807,13.88681,16.485Q13.97417,16.2715,14.02658,16.200400000000002Q13.93923,16.093600000000002,13.99164,15.7734Q14.02658,15.4888,14.19255,14.9462Q14.35852,14.4036,14.76034,13.4251Q15.16216,12.42884,15.817309999999999,11.28137Q16.472450000000002,10.1339,17.29356,9.00421Q18.11468,7.87453,19.07556,6.81601Q20.03643,5.757490000000001,21.04099,4.93914Q22.0455,4.1207899999999995,23.0501,3.595974Q24.0547,3.0711613,24.9981,3Q25.0155,3.622659,24.875799999999998,4.6456Q24.736,5.66854,24.526400000000002,6.8338Q24.3167,7.99906,24.0547,9.19991Q23.7926,10.40075,23.548000000000002,11.37921L21.206960000000002,12.6779Z" fill="#5D8BF7" fill-opacity="1" style="mix-blend-mode:passthrough"/></g></g></g><g><path d="M118.35,21.39L118.57,22.25C119.4,21.9,120.46,21.45,121.46,21.009999999999998L121.29,20.27C120.2,20.7,119.09,21.14,118.35,21.39ZM118.6,17.81C118.75,17.740000000000002,118.98,17.68,119.92,17.56C119.57,18.13,119.26,18.58,119.11,18.759999999999998C118.82,19.14,118.62,19.39,118.4,19.43C118.49,19.65,118.63,20.07,118.67,20.23C118.88,20.11,119.22,19.990000000000002,121.4,19.48C121.37,19.29,121.34,18.95,121.34,18.71L119.87,19.02C120.53,18.13,121.18,17.07,121.69,16.04L120.95,15.61C120.79,15.99,120.59,16.37,120.4,16.740000000000002L119.45,16.82C120,15.969999999999999,120.53,14.879999999999999,120.92,13.85L120.03,13.54C119.7,14.74,119.06,16.03,118.85,16.36C118.66,16.7,118.5,16.93,118.31,16.98C118.41,17.21,118.55,17.63,118.6,17.81ZM124.25,18.59L124.25,19.9L123.58,19.9L123.58,18.59L124.25,18.59ZM124.85,18.59L125.43,18.59L125.43,19.9L124.85,19.9L124.85,18.59ZM123.99,13.75C124.12,14.01,124.26,14.32,124.36,14.61L122.09,14.61L122.09,16.78C122.09,18.32,122,20.57,121.06,22.16C121.26,22.25,121.64,22.53,121.78,22.689999999999998C122.42,21.619999999999997,122.72,20.21,122.85,18.9L122.85,22.75L123.58,22.75L123.58,20.630000000000003L124.25,20.630000000000003L124.25,22.53L124.85,22.53L124.85,20.630000000000003L125.43,20.630000000000003L125.43,22.509999999999998L126.03,22.509999999999998L126.03,20.630000000000003L126.63,20.630000000000003L126.63,21.98C126.63,22.05,126.61,22.07,126.55,22.08C126.48,22.08,126.32,22.08,126.13,22.07C126.23,22.259999999999998,126.31,22.560000000000002,126.34,22.759999999999998C126.69,22.759999999999998,126.93,22.75,127.12,22.630000000000003C127.32,22.509999999999998,127.36,22.3,127.36,21.990000000000002L127.36,17.82L126.63,17.83L122.93,17.83L122.95,17.09L127.24,17.09L127.24,14.61L125.39,14.61C125.28,14.28,125.09,13.83,124.89,13.49L123.99,13.75ZM126.03,18.59L126.63,18.59L126.63,19.9L126.03,19.9L126.03,18.59ZM122.95,15.39L126.36,15.39L126.36,16.31L122.95,16.31L122.95,15.39ZM133.61,14.55L136.04,14.55L136.04,15.39L133.61,15.39L133.61,14.55ZM132.74,13.870000000000001L132.74,16.08L136.95,16.08L136.95,13.870000000000001L132.74,13.870000000000001ZM128.77,18.78C128.86,18.69,129.19,18.63,129.51,18.63L130.38,18.63L130.38,19.939999999999998C129.61,20.060000000000002,128.9,20.18,128.35,20.25L128.54,21.17L130.38,20.82L130.38,22.810000000000002L131.24,22.810000000000002L131.24,20.65L132.25,20.45L132.19,19.630000000000003L131.24,19.79L131.24,18.63L132.03,18.63L132.03,17.78L131.24,17.78L131.24,16.29L130.38,16.29L130.38,17.78L129.58,17.78C129.85,17.13,130.11,16.38,130.34,15.6L132.13,15.6L132.13,14.7L130.58,14.7C130.66,14.379999999999999,130.73,14.05,130.79,13.73L129.88,13.56C129.83,13.94,129.76,14.32,129.67,14.7L128.43,14.7L128.43,15.6L129.46,15.6C129.27,16.33,129.07,16.93,128.98,17.16C128.81,17.6,128.67,17.91,128.49,17.96C128.59,18.18,128.72,18.6,128.77,18.78ZM135.99,17.37L135.99,18.1L133.68,18.1L133.68,17.37L135.99,17.37ZM131.98,21.15L132.12,21.98L135.99,21.67L135.99,22.84L136.87,22.84L136.87,21.59L137.62,21.53L137.62,20.75L136.87,20.810000000000002L136.87,17.37L137.54,17.37L137.54,16.59L132.19,16.59L132.19,17.37L132.81,17.37L132.81,21.1L131.98,21.15ZM135.99,18.79L135.99,19.509999999999998L133.68,19.509999999999998L133.68,18.79L135.99,18.79ZM135.99,20.2L135.99,20.869999999999997L133.68,21.04L133.68,20.2L135.99,20.2Z" fill="#5EBD9D" fill-opacity="1"/></g></g></svg>