<svg xmlns="http://www.w3.org/2000/svg" xmlns:xlink="http://www.w3.org/1999/xlink" fill="#000" version="1.1" width="16" height="16" viewBox="0 0 16 16"><defs><clipPath id="master_svg0_588_06189"><rect x="16" y="0" width="16" height="16" rx="0"/></clipPath></defs><g transform="matrix(-1,0,0,1,32,0)" clip-path="url(#master_svg0_588_06189)"><g transform="matrix(-1,0,0,1,62,0)"><g><path d="M31,4.6L45,4.6Q45.0394,4.6,45.078,4.607686Q45.1167,4.615372,45.1531,4.630448Q45.1895,4.645525,45.2222,4.667412Q45.255,4.6893,45.2828,4.717157Q45.3107,4.745015,45.3326,4.777772Q45.3545,4.810529,45.3696,4.846927Q45.3846,4.883324,45.3923,4.9219639Q45.4,4.9606034,45.4,5Q45.4,5.0393966,45.3923,5.0780361Q45.3846,5.116676,45.3695,5.153073Q45.3545,5.189471,45.3326,5.222228Q45.3107,5.254985,45.2828,5.282843Q45.255,5.3107,45.2222,5.332588Q45.1895,5.354475,45.1531,5.369552Q45.1167,5.384628,45.078,5.392314Q45.0394,5.4,45,5.4L31,5.4Q30.9606034,5.4,30.9219639,5.392314Q30.883324,5.384628,30.846927,5.369552Q30.810529,5.354475,30.777772,5.332588Q30.745015,5.3107,30.717157,5.282843Q30.6893,5.254985,30.667412,5.222228Q30.645525,5.189471,30.630448,5.153073Q30.615372,5.116676,30.607686,5.0780361Q30.6,5.0393966,30.6,5Q30.6,4.9606034,30.607686,4.9219639Q30.615372,4.883324,30.630448,4.846927Q30.645525,4.810529,30.667412,4.777772Q30.6893,4.745015,30.717157,4.717157Q30.745015,4.6893,30.777772,4.667412Q30.810529,4.645525,30.846927,4.630448Q30.883324,4.615372,30.9219639,4.607686Q30.9606034,4.6,31,4.6Z" fill-rule="evenodd"  fill-opacity="1"/></g><g><path d="M40.6,2.4L40.6,5Q40.6,5.0394000000000005,40.60769,5.07804Q40.61537,5.116680000000001,40.630449999999996,5.15307Q40.64552,5.18947,40.667410000000004,5.22223Q40.6893,5.254989999999999,40.71716,5.28284Q40.74501,5.310700000000001,40.777770000000004,5.33259Q40.81053,5.354480000000001,40.84693,5.36955Q40.88332,5.38463,40.92196,5.39231Q40.9606,5.4,41,5.4Q41.0394,5.4,41.07804,5.39231Q41.11667,5.38463,41.15307,5.36955Q41.18947,5.354480000000001,41.222229999999996,5.33259Q41.25498,5.310700000000001,41.28284,5.28284Q41.3107,5.254989999999999,41.332589999999996,5.22223Q41.35447,5.18947,41.369550000000004,5.15307Q41.38463,5.116680000000001,41.39231,5.07804Q41.4,5.0394000000000005,41.4,5L41.4,4.99938L41.4,1.6L34.6,1.6L34.6,4.5Q34.6,4.5394000000000005,34.60769,4.57804Q34.61537,4.616680000000001,34.63045,4.65307Q34.64552,4.68947,34.66741,4.72223Q34.6893,4.75498,34.71716,4.78284Q34.74501,4.810700000000001,34.77777,4.83259Q34.81053,4.854480000000001,34.84693,4.86955Q34.88332,4.88463,34.92196,4.89231Q34.9606,4.9,35,4.9Q35.0394,4.9,35.07804,4.89231Q35.11668,4.88463,35.15307,4.86955Q35.18947,4.854480000000001,35.22223,4.83259Q35.25499,4.810700000000001,35.28284,4.78284Q35.3107,4.75498,35.33259,4.72223Q35.35448,4.68947,35.36955,4.65307Q35.38463,4.616680000000001,35.39231,4.57804Q35.4,4.5394000000000005,35.4,4.5L35.4,2.4L40.6,2.4ZM33.9,7L33.9,14Q33.9,14.2485,34.075736,14.4243Q34.251472,14.6,34.5,14.6L41.5,14.6Q41.74853,14.6,41.924260000000004,14.4243Q42.1,14.2485,42.1,14L42.1,7Q42.1,6.9606,42.10769,6.92196Q42.11537,6.88332,42.130449999999996,6.84693Q42.14552,6.81053,42.167410000000004,6.77777Q42.1893,6.74501,42.21716,6.71716Q42.24502,6.6893,42.277770000000004,6.66741Q42.31053,6.64552,42.34693,6.63045Q42.38332,6.61537,42.42196,6.60769Q42.4606,6.6,42.5,6.6Q42.5394,6.6,42.57804,6.60769Q42.61667,6.61537,42.65307,6.63045Q42.68947,6.64552,42.722229999999996,6.66741Q42.75498,6.6893,42.78284,6.71716Q42.8107,6.74501,42.832589999999996,6.77777Q42.85447,6.81053,42.869550000000004,6.84693Q42.88463,6.88332,42.89231,6.92196Q42.9,6.9606,42.9,7L42.9,14Q42.9,14.5799,42.48995,14.9899Q42.0799,15.4,41.5,15.4L34.5,15.4Q33.920101,15.4,33.5100507,14.99Q33.1,14.5799,33.1,14L33.1,7Q33.1,6.9606,33.107686,6.92196Q33.115372,6.88332,33.130448,6.84693Q33.145525,6.81053,33.167412,6.77777Q33.1893,6.74501,33.217157,6.71716Q33.245015,6.6893,33.277772,6.66741Q33.310529,6.64552,33.346927,6.63045Q33.383324,6.61537,33.4219639,6.60769Q33.4606034,6.6,33.5,6.6Q33.5393966,6.6,33.5780361,6.60769Q33.616676,6.61537,33.653073,6.63045Q33.689471,6.64552,33.722228,6.66741Q33.754985,6.6893,33.782843,6.71716Q33.8107,6.74501,33.832588,6.77777Q33.854475,6.81053,33.869552,6.84693Q33.884628,6.88332,33.892314,6.92196Q33.9,6.9606,33.9,7ZM35.6,8Q35.6,7.9606,35.60769,7.92196Q35.61537,7.88332,35.63045,7.84693Q35.64552,7.81053,35.66741,7.77777Q35.6893,7.74501,35.71716,7.71716Q35.74501,7.6893,35.77777,7.66741Q35.81053,7.64552,35.84693,7.63045Q35.88332,7.61537,35.92196,7.60769Q35.9606,7.6,36,7.6Q36.0394,7.6,36.07804,7.60769Q36.11668,7.61537,36.15307,7.63045Q36.18947,7.64552,36.22223,7.66741Q36.25498,7.6893,36.28284,7.71716Q36.3107,7.74501,36.33259,7.77777Q36.35448,7.81053,36.36955,7.84693Q36.38463,7.88332,36.39231,7.92196Q36.4,7.9606,36.4,8L36.4,13Q36.4,13.0394,36.39231,13.078Q36.38463,13.1167,36.36955,13.1531Q36.35448,13.1895,36.33259,13.2222Q36.3107,13.255,36.28284,13.2828Q36.25498,13.3107,36.22223,13.3326Q36.18947,13.3545,36.15307,13.3695Q36.11668,13.3846,36.07804,13.3923Q36.0394,13.4,36,13.4Q35.9606,13.4,35.92196,13.3923Q35.88332,13.3846,35.84693,13.3696Q35.81053,13.3545,35.77777,13.3326Q35.74501,13.3107,35.71716,13.2828Q35.6893,13.255,35.66741,13.2222Q35.64552,13.1895,35.63045,13.1531Q35.61537,13.1167,35.60769,13.078Q35.6,13.0394,35.6,13L35.6,12.9996L35.6,8L35.6,8ZM39.1,8Q39.1,7.9606,39.10769,7.92196Q39.11537,7.88332,39.130449999999996,7.84693Q39.14552,7.81053,39.167410000000004,7.77777Q39.1893,7.74501,39.21716,7.71716Q39.24501,7.6893,39.277770000000004,7.66741Q39.31053,7.64552,39.34693,7.63045Q39.38332,7.61537,39.42196,7.60769Q39.4606,7.6,39.5,7.6Q39.5394,7.6,39.57804,7.60769Q39.61668,7.61537,39.65307,7.63045Q39.68947,7.64552,39.722229999999996,7.66741Q39.75498,7.6893,39.78284,7.71716Q39.8107,7.74501,39.832589999999996,7.77777Q39.85447,7.81053,39.869550000000004,7.84693Q39.88463,7.88332,39.89231,7.92196Q39.9,7.9606,39.9,8L39.9,13Q39.9,13.0394,39.89231,13.078Q39.88463,13.1167,39.869550000000004,13.1531Q39.85447,13.1895,39.832589999999996,13.2222Q39.8107,13.255,39.78284,13.2828Q39.75498,13.3107,39.722229999999996,13.3326Q39.68947,13.3545,39.65307,13.3695Q39.61668,13.3846,39.57804,13.3923Q39.5394,13.4,39.5,13.4Q39.4606,13.4,39.42196,13.3923Q39.38332,13.3846,39.34693,13.3696Q39.31053,13.3545,39.277770000000004,13.3326Q39.24501,13.3107,39.21716,13.2828Q39.1893,13.255,39.167410000000004,13.2222Q39.14552,13.1895,39.130449999999996,13.1531Q39.11537,13.1167,39.10769,13.078Q39.1,13.0394,39.1,13L39.1,12.9994L39.1,8L39.1,8Z" fill-rule="evenodd"  fill-opacity="1"/></g></g></g></svg>