<svg xmlns="http://www.w3.org/2000/svg" xmlns:xlink="http://www.w3.org/1999/xlink" fill="#000" version="1.1" width="16" height="16" viewBox="0 0 16 16"><defs><clipPath id="master_svg0_588_06396"><rect x="0" y="0" width="16" height="16" rx="0"/></clipPath></defs><g clip-path="url(#master_svg0_588_06396)"><g><path d="M0.6,2L0.6,14L1.4,14L1.4,2L0.6,2ZM2.6,4.5L2.6,6Q2.6,6.5799,3.01005,6.98995Q3.4201,7.4,4,7.4L8,7.4Q8.5799,7.4,8.98995,6.98995Q9.4,6.5799,9.4,6L9.4,4.5Q9.4,3.9200999999999997,8.98995,3.5100499999999997Q8.5799,3.1,8,3.1L4,3.1Q3.4201,3.1,3.01005,3.5100499999999997Q2.6,3.9200999999999997,2.6,4.5ZM3.57574,6.42426Q3.4,6.24853,3.4,6L3.4,4.5Q3.4,4.2,3.55,4.05Q3.7,3.9,4,3.9L8,3.9Q8.6,3.9,8.6,4.5L8.6,6Q8.6,6.6,8,6.6L4,6.6Q3.75147,6.6,3.57574,6.42426ZM2.6,9.5L2.6,11.5Q2.6,12.0799,3.01005,12.49Q3.4201,12.9,4,12.9L13.5,12.9Q14.0799,12.9,14.4899,12.49Q14.9,12.0799,14.9,11.5L14.9,9.5Q14.9,8.9201,14.4899,8.51005Q14.0799,8.1,13.5,8.1L4,8.1Q3.4201,8.1,3.01005,8.51005Q2.6,8.9201,2.6,9.5ZM3.57574,11.92426Q3.4,11.74853,3.4,11.5L3.4,9.5Q3.4,9.251470000000001,3.57574,9.07574Q3.75147,8.9,4,8.9L13.5,8.9Q14.1,8.9,14.1,9.5L14.1,11.5Q14.1,12.1,13.5,12.1L4,12.1Q3.75147,12.1,3.57574,11.92426Z" fill-rule="evenodd"  fill-opacity="1"/></g></g></svg>