<svg xmlns="http://www.w3.org/2000/svg" xmlns:xlink="http://www.w3.org/1999/xlink" fill="none" version="1.1" width="16" height="16" viewBox="0 0 16 16"><defs><clipPath id="master_svg0_593_05833"><rect x="16" y="0" width="16" height="16" rx="0"/></clipPath></defs><g transform="matrix(-1,0,0,1,32,0)" clip-path="url(#master_svg0_593_05833)"><g><g transform="matrix(-1,0,0,1,64,0)"><rect x="32.400000005960464" y="3.4000000059604645" width="15.199999988079071" height="10.199999988079071" rx="1.1155974566936493" fill-opacity="0" stroke-opacity="1" stroke="#000000" fill="none" stroke-width="0.800000011920929"/></g><g transform="matrix(-1,0,0,1,61.29409599304199,0)"><path d="M32.151597996521,10.700000041656494L32.781877996521,10.700000041656494L32.781877996521,6.427372041656494L34.286427996521,6.427372041656494L34.286427996521,5.918570041656494L30.647047996520996,5.918570041656494L30.647047996520996,6.427372041656494L32.151597996521,6.427372041656494L32.151597996521,10.700000041656494ZM36.109507996520996,10.784800041656494C36.604247996520996,10.784800041656494,36.997327996520994,10.628250041656493,37.315857996521,10.426030041656494L37.098987996521,10.028120041656493C36.821117996521,10.204250041656493,36.536467996521,10.308610041656493,36.177277996521,10.308610041656493C35.479217996520994,10.308610041656493,34.998037996521,9.825910041656494,34.957377996521,9.069230041656494L37.43784799652099,9.069230041656494C37.451397996520996,8.977900041656493,37.464957996520994,8.860490041656494,37.464957996520994,8.730030041656494C37.464957996520994,7.718940041656494,36.936327996520994,7.066630041656494,35.994297996521,7.066630041656494C35.153917996520995,7.066630041656494,34.347427996521,7.777650041656495,34.347427996521,8.932240041656494C34.347427996521,10.099880041656494,35.126807996520995,10.784800041656494,36.109507996520996,10.784800041656494ZM34.950597996521,8.645220041656493C35.025147996521,7.940730041656494,35.48599799652099,7.542820041656494,36.007847996520994,7.542820041656494C36.583907996521,7.542820041656494,36.922777996521,7.927680041656494,36.922777996521,8.645220041656493L34.950597996521,8.645220041656493ZM37.797037996521,10.700000041656494L38.447657996520995,10.700000041656494L38.942397996520995,9.871570041656494C39.071157996520995,9.656300041656493,39.186377996520996,9.441040041656494,39.315137996520996,9.238830041656495L39.349027996520995,9.238830041656495C39.491347996521,9.441040041656494,39.626897996520995,9.656300041656493,39.74888799652099,9.871570041656494L40.291067996520994,10.700000041656494L40.968747996520996,10.700000041656494L39.755667996521,8.912670041656494L40.873947996521,7.157960041656494L40.230067996520994,7.157960041656494L39.775997996521,7.934210041656494C39.660777996521,8.136420041656494,39.559127996521,8.325590041656493,39.450687996521,8.527810041656494L39.416797996521,8.527810041656494C39.294807996520994,8.325590041656493,39.166047996520994,8.136420041656494,39.057607996521,7.934210041656494L38.56286799652099,7.157960041656494L37.891917996520995,7.157960041656494L39.010167996521,8.853960041656494L37.797037996521,10.700000041656494ZM42.663147996521,10.784800041656494C42.893547996520994,10.784800041656494,43.13754799652099,10.719570041656494,43.347647996521,10.654340041656493L43.225647996521,10.204250041656493C43.103647996521,10.256430041656493,42.940947996521,10.302090041656495,42.805447996520996,10.302090041656495C42.378447996521,10.302090041656495,42.236147996521,10.054210041656495,42.236147996521,9.623690041656495L42.236147996521,7.640670041656494L43.239147996521,7.640670041656494L43.239147996521,7.157960041656494L42.236147996521,7.157960041656494L42.236147996521,6.159925041656495L41.721047996520994,6.159925041656495L41.653247996520996,7.157960041656494L41.070447996521,7.190570041656494L41.070447996521,7.640670041656494L41.619447996521,7.640670041656494L41.619447996521,9.604120041656493C41.619447996521,10.315140041656495,41.883747996520995,10.784800041656494,42.663147996521,10.784800041656494Z" fill="#000000" fill-opacity="1"/><path d="M32.041077996521,6.537894041656494L32.041077996521,10.810520041656494L32.892397996521,10.810520041656494L32.892397996521,6.537894041656494L34.39694799652099,6.537894041656494L34.39694799652099,5.808048041656495L30.536525996520997,5.808048041656495L30.536525996520997,6.537894041656494L32.041077996521,6.537894041656494ZM32.781877996521,6.427372041656494L32.781877996521,10.700000041656494L32.151597996521,10.700000041656494L32.151597996521,6.427372041656494L30.647047996520996,6.427372041656494L30.647047996520996,5.918570041656494L34.286427996521,5.918570041656494L34.286427996521,6.427372041656494L32.781877996521,6.427372041656494ZM41.508847996521,9.604120041656493Q41.508847996521,10.895330041656493,42.663147996521,10.895320041656493Q42.944147996521,10.895320041656493,43.380347996520996,10.759890041656494L43.48214799652099,10.728290041656495L43.299047996521,10.052630041656494L43.182147996520996,10.102630041656493Q42.974247996520994,10.191570041656494,42.805447996520996,10.191570041656494Q42.551647996521,10.191570041656494,42.448347996520994,10.057000041656494Q42.346647996521,9.924690041656493,42.346647996521,9.623690041656495L42.346647996521,7.7511900416564945L43.349647996521,7.7511900416564945L43.349647996521,7.047440041656494L42.346647996521,7.047440041656494L42.346647996521,6.049402041656494L41.617747996521,6.049402041656494L41.549647996520996,7.053060041656494L41.054147996520996,7.080790041656494L41.07544799652099,7.047440041656494L40.166677996520995,7.047440041656494L39.680597996520994,7.878400041656494Q39.583017996520994,8.049650041656495,39.428387996520996,8.336010041656493Q39.414817996520995,8.314270041656494,39.399847996521,8.290420041656494Q39.391857996521,8.277680041656494,39.38306799652099,8.263710041656495Q39.224307996521,8.011210041656494,39.15500799652099,7.881980041656494L39.153047996520996,7.878310041656494L38.62348799652099,7.047440041656494L37.686667996520995,7.047440041656494L38.877847996521,8.854070041656495L37.592157996520996,10.810520041656494L38.510387996521,10.810520041656494L39.037287996520995,9.928230041656494Q39.088227996521,9.843070041656494,39.185037996521,9.674280041656495Q39.273367996520996,9.520260041656494,39.336407996521,9.415180041656495Q39.502317996521,9.660640041656494,39.652727996520994,9.926060041656495L39.65446799652099,9.929130041656494L40.231307996521,10.810520041656494L41.17734799652099,10.810520041656494L39.887937996520996,8.910760041656495L40.959947996520995,7.228630041656494L40.959947996520995,7.7511900416564945L41.508847996521,7.7511900416564945L41.508847996521,9.604120041656493ZM43.239147996521,7.640670041656494L42.236147996521,7.640670041656494L42.236147996521,9.623690041656495C42.236147996521,10.054210041656495,42.378447996521,10.302090041656495,42.805447996520996,10.302090041656495C42.905147996520995,10.302090041656495,43.019647996520995,10.277360041656493,43.121747996520995,10.243490041656493C43.158347996520995,10.231340041656495,43.193447996520995,10.218020041656494,43.225647996521,10.204250041656493L43.254747996521,10.311900041656493L43.347547996520994,10.654320041656494L43.347647996521,10.654340041656493C43.13754799652099,10.719570041656494,42.893547996520994,10.784800041656494,42.663147996521,10.784800041656494C41.883747996520995,10.784800041656494,41.619447996521,10.315140041656495,41.619447996521,9.604120041656493L41.619447996521,7.640670041656494L41.070447996521,7.640670041656494L41.070447996521,7.190570041656494L41.653247996520996,7.157960041656494L41.721047996520994,6.159925041656495L42.125647996520996,6.159925041656495L42.236147996521,6.159925041656495L42.236147996521,7.047440041656494L42.236147996521,7.157960041656494L43.239147996521,7.157960041656494L43.239147996521,7.640670041656494ZM34.781857996521,10.374600041656494Q35.303407996520995,10.895320041656493,36.109507996520996,10.895320041656493Q36.782837996520996,10.895330041656493,37.375087996520996,10.519340041656495L37.462377996521,10.463920041656493L37.139527996521,9.871570041656494L37.039817996520995,9.934770041656495Q36.624377996521,10.198090041656494,36.177277996521,10.198090041656494Q35.698827996521,10.198090041656494,35.399437996520994,9.895000041656495Q35.13042799652099,9.622680041656494,35.077707996521,9.179750041656494L37.533177996521,9.179750041656494L37.547167996521,9.085450041656493Q37.575477996520995,8.894740041656494,37.575477996520995,8.730030041656494Q37.575477996520995,7.920600041656494,37.166547996521,7.446950041656494Q36.742777996521,6.956110041656494,35.994297996521,6.956110041656494Q35.284267996520995,6.956110041656494,34.775677996521,7.490250041656494Q34.236907996521,8.056100041656494,34.236897996520995,8.932240041656494Q34.236897996520995,9.830490041656494,34.781857996521,10.374600041656494ZM34.957377996521,9.069230041656494C34.959387996520995,9.106750041656493,34.962487996521,9.143600041656494,34.966647996521,9.179750041656494C35.046297996521,9.872590041656494,35.513837996521,10.308610041656493,36.177277996521,10.308610041656493C36.495787996520995,10.308610041656493,36.755677996520994,10.226550041656495,37.00419799652099,10.085160041656493C37.035947996520996,10.067100041656495,37.067507996520995,10.048070041656494,37.098987996521,10.028120041656493L37.151987996520994,10.125370041656495L37.315857996521,10.426030041656494C36.997327996520994,10.628250041656493,36.604247996520996,10.784800041656494,36.109507996520996,10.784800041656494C35.126807996520995,10.784800041656494,34.347427996521,10.099880041656494,34.347427996521,8.932240041656494C34.347427996521,7.777650041656495,35.153917996520995,7.066630041656494,35.994297996521,7.066630041656494C36.936327996520994,7.066630041656494,37.464957996520994,7.718940041656494,37.464957996520994,8.730030041656494C37.464957996520994,8.860490041656494,37.451397996520996,8.977900041656493,37.43784799652099,9.069230041656494L34.957377996521,9.069230041656494ZM39.466897996521,8.497590041656494C39.47645799652099,8.479770041656494,39.485967996521,8.462040041656493,39.495447996520994,8.444390041656494C39.587567996520995,8.272890041656494,39.676757996521,8.108390041656495,39.775997996521,7.934210041656494L40.230067996520994,7.157960041656494L40.873947996521,7.157960041656494L40.803447996520994,7.268480041656494L39.755667996521,8.912670041656494L40.893747996521,10.589480041656493L40.968747996520996,10.700000041656494L40.291067996520994,10.700000041656494L39.74888799652099,9.871570041656494C39.641467996520994,9.682020041656495,39.523547996520996,9.492480041656494,39.399737996521,9.311840041656493C39.391907996521,9.300420041656494,39.384067996521,9.289040041656495,39.376197996521,9.277700041656495C39.367167996521,9.264690041656493,39.358117996520996,9.251730041656494,39.349027996520995,9.238830041656495L39.315137996520996,9.238830041656495C39.306097996521,9.253040041656494,39.29710799652099,9.267310041656494,39.288187996520996,9.281650041656494C39.281267996520995,9.292760041656495,39.274387996521,9.303910041656493,39.267527996521,9.315090041656495C39.157417996521,9.494750041656495,39.055097996521,9.683160041656494,38.942397996520995,9.871570041656494L38.447657996520995,10.700000041656494L37.797037996521,10.700000041656494L39.010167996521,8.853960041656494L37.964797996521,7.268480041656494L37.891917996520995,7.157960041656494L38.56286799652099,7.157960041656494L39.057607996521,7.934210041656494C39.151677996520995,8.109640041656494,39.261057996521,8.275260041656495,39.368037996521,8.448090041656494C39.378877996521,8.465610041656493,39.389697996520994,8.483200041656495,39.400477996521,8.500880041656494C39.405927996520994,8.509830041656494,39.411367996520994,8.518810041656494,39.416797996521,8.527810041656494L39.450687996521,8.527810041656494L39.466897996521,8.497590041656494ZM34.965847996521,8.534700041656494C34.959687996521,8.570650041656494,34.954587996521,8.607500041656493,34.950597996521,8.645220041656493L36.922777996521,8.645220041656493C36.922777996521,8.607460041656495,36.921837996521,8.570620041656493,36.919977996521,8.534700041656494C36.886447996521,7.888240041656494,36.553597996521,7.542820041656494,36.007847996520994,7.542820041656494C35.513947996521,7.542820041656494,35.074677996521,7.899260041656494,34.965847996521,8.534700041656494ZM36.809397996521,8.534700041656494L35.077827996520995,8.534700041656494Q35.078147996521,8.532950041656495,35.078467996521,8.531200041656493Q35.148657996520996,8.146150041656494,35.389177996521,7.9084500416564945Q35.64730799652099,7.653340041656494,36.007847996520994,7.653340041656494Q36.392117996520994,7.653340041656494,36.596837996520996,7.8961800416564945Q36.787447996520996,8.122280041656495,36.809397996521,8.534700041656494Z" fill-rule="evenodd" fill="#000000" fill-opacity="1"/></g></g></g></svg>