<svg xmlns="http://www.w3.org/2000/svg" xmlns:xlink="http://www.w3.org/1999/xlink" fill="none" version="1.1" width="16" height="16" viewBox="0 0 16 16"><defs><clipPath id="master_svg0_589_05975"><rect x="0" y="0" width="16" height="16" rx="0"/></clipPath></defs><g clip-path="url(#master_svg0_589_05975)"><g><path d="M6.04445,13.21Q6.04445,13.2304,6.02753,13.2417L5.09288,13.8647Q4.575480000000001,14.2097,4.75568,14.8048Q4.93588,15.4,5.55772,15.4L10.44228,15.4Q11.0641,15.4,11.2443,14.8048Q11.4245,14.2097,10.90712,13.8647L9.97248,13.2417Q9.95556,13.2304,9.95556,13.21L9.95556,3.77133Q9.95556,3.75559,9.96669,3.74446Q9.97781,3.73333,9.99355,3.73333L11.7855,3.73333Q11.7945,3.73333,11.8025,3.73735L14.1872,4.92972Q14.6051,5.13867,15.0026,4.89304Q15.4,4.64741,15.4,4.1802L15.4,1.437997Q15.4,1.0908853,15.1546,0.845444Q14.9091,0.6,14.562,0.6L1.437997,0.6Q1.090887,0.6,0.845443,0.845444Q0.6,1.0908873,0.6,1.437997L0.6,4.1802Q0.6,4.64741,0.99743582,4.89304Q1.394872,5.13867,1.81276,4.92972L4.19752,3.73734Q4.20554,3.73333,4.214510000000001,3.73333L6.00645,3.73333Q6.04445,3.73333,6.04445,3.77133L6.04445,13.21ZM5.53664,14.5304L6.47128,13.9073Q6.84444,13.6585,6.84444,13.21L6.84444,3.77133Q6.84444,2.9333299999999998,6.00645,2.9333299999999998L4.214510000000001,2.9333299999999998Q4.01668,2.9333299999999998,3.83974,3.0218L1.45499,4.21418Q1.436042,4.22365,1.418021,4.21252Q1.4,4.20138,1.4,4.1802L1.4,1.437997Q1.4,1.4,1.437997,1.4L14.562,1.4Q14.6,1.4,14.6,1.437997L14.6,4.1802Q14.6,4.20138,14.582,4.21252Q14.564,4.22365,14.545,4.21418L12.1603,3.0218Q11.9833,2.9333299999999998,11.7855,2.9333299999999998L9.99355,2.9333299999999998Q9.15556,2.9333299999999998,9.15556,3.77133L9.15556,13.21Q9.15556,13.6585,9.52872,13.9073L10.46336,14.5304Q10.48682,14.546,10.47865,14.573Q10.47048,14.6,10.44228,14.6L5.55772,14.6Q5.52952,14.6,5.52135,14.573Q5.51318,14.546,5.53664,14.5304Z" fill-rule="evenodd" fill="#000000" fill-opacity="1"/></g></g></svg>