<svg xmlns="http://www.w3.org/2000/svg" xmlns:xlink="http://www.w3.org/1999/xlink" fill="#000" version="1.1" width="16" height="16" viewBox="0 0 16 16"><defs><clipPath id="master_svg0_588_06372"><rect x="16" y="0" width="16" height="16" rx="0"/></clipPath></defs><g transform="matrix(-1,0,0,1,32,0)" clip-path="url(#master_svg0_588_06372)"><g transform="matrix(-1,0,0,1,62,0)"><path d="M30.6,3L30.6,5.5Q30.6,5.5394000000000005,30.607686,5.57804Q30.615372,5.616680000000001,30.630448,5.65307Q30.645525,5.68947,30.667412,5.72223Q30.6893,5.75498,30.717157,5.78284Q30.745015,5.810700000000001,30.777772,5.83259Q30.810529,5.85447,30.846927,5.86955Q30.883324,5.88463,30.9219639,5.89231Q30.9606034,5.9,31,5.9Q31.0393966,5.9,31.0780361,5.89231Q31.116676,5.88463,31.153073,5.86955Q31.189471,5.85447,31.222228,5.83259Q31.254985,5.810700000000001,31.282843,5.78284Q31.3107,5.75498,31.332588,5.72223Q31.354475,5.68947,31.369552,5.65307Q31.384628,5.616680000000001,31.392314,5.57804Q31.4,5.5394000000000005,31.4,5.5L31.4,3Q31.4,2.7,31.55,2.55Q31.7,2.4,32,2.4L35,2.4Q35.0394,2.4,35.07804,2.392314Q35.11667,2.384628,35.15307,2.369552Q35.18947,2.354475,35.222229999999996,2.332588Q35.25498,2.3106999999999998,35.28284,2.282843Q35.3107,2.254985,35.332589999999996,2.222228Q35.35448,2.189471,35.369550000000004,2.153073Q35.38463,2.116676,35.39231,2.0780361Q35.4,2.0393966,35.4,2Q35.4,1.9606034,35.39231,1.9219639Q35.38463,1.883324,35.369550000000004,1.846927Q35.35448,1.810529,35.332589999999996,1.777772Q35.3107,1.745015,35.28284,1.717157Q35.25498,1.6893,35.222229999999996,1.6674120000000001Q35.18947,1.6455250000000001,35.15307,1.630448Q35.11667,1.615372,35.07804,1.607686Q35.0394,1.6,35,1.6L32,1.6Q31.420101,1.6,31.0100505,2.0100505Q30.6,2.420101,30.6,3ZM40.5,1.6Q40.4606,1.6,40.42196,1.607686Q40.38332,1.615372,40.34692,1.630448Q40.31053,1.6455250000000001,40.277770000000004,1.6674120000000001Q40.24501,1.6893,40.21716,1.717157Q40.1893,1.745015,40.167410000000004,1.777772Q40.14552,1.810529,40.130449999999996,1.846927Q40.11537,1.883324,40.10769,1.9219639Q40.1,1.9606034,40.1,2Q40.1,2.0393966,40.10769,2.0780361Q40.11537,2.116676,40.130449999999996,2.153073Q40.14552,2.189471,40.167410000000004,2.222228Q40.1893,2.254985,40.21716,2.282843Q40.24502,2.3106999999999998,40.277770000000004,2.332588Q40.31053,2.354475,40.34693,2.369552Q40.38332,2.384628,40.42196,2.392314Q40.4606,2.4,40.5,2.4L43.5,2.4Q44.1,2.4,44.1,3L44.1,5.5Q44.1,5.5394000000000005,44.1077,5.57804Q44.1154,5.616680000000001,44.1304,5.65307Q44.1455,5.68947,44.1674,5.72223Q44.1893,5.75498,44.2172,5.78284Q44.245,5.810700000000001,44.2778,5.83259Q44.3105,5.85447,44.3469,5.86955Q44.3833,5.88463,44.422,5.89231Q44.4606,5.9,44.5,5.9Q44.5394,5.9,44.578,5.89231Q44.6167,5.88463,44.6531,5.86955Q44.6895,5.85447,44.7222,5.83259Q44.755,5.810700000000001,44.7828,5.78284Q44.8107,5.75498,44.8326,5.72223Q44.8545,5.68947,44.8695,5.65307Q44.8846,5.616680000000001,44.8923,5.57804Q44.9,5.5394000000000005,44.9,5.5L44.9,3Q44.9,2.420101,44.4899,2.0100506Q44.0799,1.6,43.5,1.6L40.5,1.6ZM33.6,7L33.6,10.5Q33.6,11.0799,34.01005,11.48995Q34.4201,11.9,35,11.9L40.5,11.9Q41.0799,11.9,41.4899,11.48995Q41.9,11.0799,41.9,10.5L41.9,7Q41.9,6.4201,41.4899,6.01005Q41.0799,5.6,40.5,5.6L35,5.6Q34.4201,5.6,34.01005,6.01005Q33.6,6.4201,33.6,7ZM35,11.1Q34.4,11.1,34.4,10.5L34.4,7Q34.4,6.75147,34.57574,6.57574Q34.75147,6.4,35,6.4L40.5,6.4Q41.1,6.4,41.1,7L41.1,10.5Q41.1,11.1,40.5,11.1L35,11.1ZM30.6,11.5Q30.6,11.4606,30.607686,11.42196Q30.615372,11.38332,30.630448,11.34692Q30.645525,11.31053,30.667412,11.27777Q30.6893,11.24501,30.717157,11.21716Q30.745015,11.1893,30.777772,11.16741Q30.810529,11.14552,30.846927,11.13045Q30.883324,11.11537,30.9219639,11.10769Q30.9606034,11.1,31,11.1Q31.0393966,11.1,31.0780361,11.10769Q31.116676,11.11537,31.153073,11.13045Q31.189471,11.14552,31.222228,11.16741Q31.254985,11.1893,31.282843,11.21716Q31.3107,11.24502,31.332588,11.27777Q31.354475,11.31053,31.369552,11.34693Q31.384628,11.38332,31.392314,11.42196Q31.4,11.4606,31.4,11.5L31.4,14Q31.4,14.2485,31.575736,14.4243Q31.751471,14.6,32,14.6L35,14.6Q35.0394,14.6,35.07804,14.6077Q35.11667,14.6154,35.15307,14.6304Q35.18947,14.6455,35.222229999999996,14.6674Q35.25498,14.6893,35.28284,14.7172Q35.3107,14.745,35.332589999999996,14.7778Q35.35448,14.8105,35.369550000000004,14.8469Q35.38463,14.8833,35.39231,14.922Q35.4,14.9606,35.4,15Q35.4,15.0394,35.39231,15.078Q35.38463,15.1167,35.369550000000004,15.1531Q35.35448,15.1895,35.332589999999996,15.2222Q35.3107,15.255,35.28284,15.2828Q35.25498,15.3107,35.222229999999996,15.3326Q35.18947,15.3545,35.15307,15.3695Q35.11667,15.3846,35.07804,15.3923Q35.0394,15.4,35,15.4L34.99913,15.4L32,15.4Q31.420101,15.4,31.0100508,14.9899Q30.6,14.5799,30.6,14L30.6,11.5ZM44.1,11.5Q44.1,11.4606,44.1077,11.42196Q44.1154,11.38332,44.1304,11.34692Q44.1455,11.31053,44.1674,11.27777Q44.1893,11.24501,44.2172,11.21716Q44.245,11.1893,44.2778,11.16741Q44.3105,11.14552,44.3469,11.13045Q44.3833,11.11537,44.422,11.10769Q44.4606,11.1,44.5,11.1Q44.5394,11.1,44.578,11.10769Q44.6167,11.11537,44.6531,11.13045Q44.6895,11.14552,44.7222,11.16741Q44.755,11.1893,44.7828,11.21716Q44.8107,11.24502,44.8326,11.27777Q44.8545,11.31053,44.8695,11.34693Q44.8846,11.38332,44.8923,11.42196Q44.9,11.4606,44.9,11.5L44.9,14Q44.9,14.5799,44.4899,14.9899Q44.0799,15.4,43.5,15.4L40.5,15.4Q40.4606,15.4,40.42196,15.3923Q40.38332,15.3846,40.34692,15.3695Q40.31053,15.3545,40.277770000000004,15.3326Q40.24501,15.3107,40.21716,15.2828Q40.1893,15.255,40.167410000000004,15.2222Q40.14552,15.1895,40.130449999999996,15.1531Q40.11537,15.1167,40.10769,15.078Q40.1,15.0394,40.1,15Q40.1,14.9606,40.10769,14.922Q40.11537,14.8833,40.130449999999996,14.8469Q40.14552,14.8105,40.167410000000004,14.7778Q40.1893,14.745,40.21716,14.7172Q40.24502,14.6893,40.277770000000004,14.6674Q40.31053,14.6455,40.34693,14.6304Q40.38332,14.6154,40.42196,14.6077Q40.4606,14.6,40.5,14.6L43.5,14.6Q44.1,14.6,44.1,14L44.1,11.5L44.1,11.5Z" fill-rule="evenodd"  fill-opacity="1"/></g></g></svg>