<svg xmlns="http://www.w3.org/2000/svg" xmlns:xlink="http://www.w3.org/1999/xlink" fill="none" version="1.1" width="16" height="16" viewBox="0 0 16 16"><defs><clipPath id="master_svg0_590_05965"><rect x="16" y="0" width="16" height="16" rx="0"/></clipPath></defs><g transform="matrix(-1,0,0,1,32,0)" clip-path="url(#master_svg0_590_05965)"><g transform="matrix(-0.7180114388465881,-0.6960312724113464,-0.6960312724113464,0.7180114388465881,65.00992623543425,26.33797479160421)"><path d="M38.91467,16.611348046875L35.502235,16.611348046875Q35.0992166,16.611348046875,34.9225767,16.249098046874998Q34.745937,15.886858046875,34.99411612,15.569318046875L41.682990000000004,7.011064210875Q41.87664,6.763293046875,42.19111,6.763293046875Q42.50558,6.763292046875,42.69923,7.011063036875L49.3881,15.569318046875Q49.6363,15.886858046875,49.4597,16.249098046874998Q49.283,16.611348046875,48.88,16.611348046875L45.4676,16.611348046875L45.4676,22.100298046875Q45.4676,22.367498046875,45.2787,22.556398046875Q45.0898,22.745198046875,44.82266,22.745198046875L39.55957,22.745198046875Q38.91467,22.745198046875,38.91467,22.100298046875L38.91467,16.611348046875ZM39.71467,21.945198046875L39.71467,16.456248046875Q39.71467,15.811348046875,39.06977,15.811348046875L35.820306,15.811348046875L42.19111,7.660059046875L48.5619,15.811348046875L45.3125,15.811348046875Q45.0453,15.811348046875,44.85645,16.000238046874998Q44.66756,16.189118046875002,44.66756,16.456248046875L44.66756,21.945198046875L39.71467,21.945198046875Z" fill-rule="evenodd" fill="#000000" fill-opacity="1"/></g></g></svg>