<svg xmlns="http://www.w3.org/2000/svg" xmlns:xlink="http://www.w3.org/1999/xlink" fill="#000" version="1.1" width="16" height="16" viewBox="0 0 16 16"><defs><clipPath id="master_svg0_588_06077"><rect x="16" y="0" width="16" height="16" rx="0"/></clipPath></defs><g transform="matrix(-1,0,0,1,32,0)" clip-path="url(#master_svg0_588_06077)"><g><path d="M20.76032,2.303703Q20.826810000000002,2.246708,20.8634,2.167143Q20.9,2.0875775,20.9,2Q20.9,1.9606034,20.892310000000002,1.9219639Q20.88463,1.883324,20.86955,1.846927Q20.85447,1.810529,20.83259,1.777772Q20.8107,1.745015,20.78284,1.717157Q20.75498,1.6893,20.72223,1.6674120000000001Q20.68947,1.6455250000000001,20.65307,1.630448Q20.61668,1.615372,20.57804,1.607686Q20.5394,1.6,20.5,1.6Q20.35203,1.6,20.23968,1.696297L20.23942,1.696523L17.379491,4.14789Q17.00321983,4.47041,17.175159,4.9352Q17.347098,5.4,17.842676,5.4L26,5.4Q27.4912,5.4,28.5456,6.45442Q29.6,7.50883,29.6,9Q29.6,10.49117,28.5456,11.54558Q27.4912,12.6,26,12.6L18.5,12.6Q18.4606,12.6,18.42196,12.6077Q18.38332,12.6154,18.34693,12.6304Q18.31053,12.6455,18.27777,12.6674Q18.24501,12.6893,18.21716,12.7172Q18.1893,12.745,18.16741,12.7778Q18.14552,12.8105,18.13045,12.8469Q18.11537,12.8833,18.10769,12.922Q18.1,12.9606,18.1,13Q18.1,13.0394,18.10769,13.078Q18.11537,13.1167,18.13045,13.1531Q18.14552,13.1895,18.16741,13.2222Q18.1893,13.255,18.21716,13.2828Q18.24501,13.3107,18.27777,13.3326Q18.31053,13.3545,18.34693,13.3695Q18.38332,13.3846,18.42196,13.3923Q18.4606,13.4,18.5,13.4L26,13.4Q27.822499999999998,13.4,29.1113,12.1113Q30.4,10.82254,30.4,9Q30.4,7.17746,29.1113,5.88873Q27.822499999999998,4.6,26,4.6L18.0813,4.6L20.76005,2.303928L20.76032,2.303703L20.76032,2.303703Z" fill-rule="evenodd"  fill-opacity="1"/></g></g></svg>