<svg xmlns="http://www.w3.org/2000/svg" xmlns:xlink="http://www.w3.org/1999/xlink" canvas="CA~1000~1000~#FFFFFF~yes~#CCCCCC~5~1000~1000~line~5~pixel~5~-1~5" title="" width="62" height="45" viewBox="-32 -26 62 45"><rect x="-32" y="-26" width="62" height="45" stroke="none" fill="none"/><g c_origin="-1,5" c_para="pre`RP?`name`R_3386P_US`package`RES-ADJ-TH_3386P`Supplier Part``Supplier`LCSC`Manufacturer Part``nameAlias`Value`Contributor`LCEDA_Lib`value(Ω)`10K`" puuid="ce6e0cc9b0684cd986edbf86d7075dfd" uuid="e0b0d01b6e0d44dbab9db0ad79a427bc" convert_to_pcb="" datastrid="" pdatastrid="" utime="1586914396" add_into_bom=""><g c_partid="part_pin" c_etype="pinpart" c_shapetype="group" c_show="show" c_elec="0" c_spicepin="2" c_origin="-1,-15" id="gge65" locked="0" c_rotation="90"><text x="2" y="-3" font-family="Verdana" font-size="7pt" fill="#0000FF" text-anchor="end" c_pinname="2" display="none" transform="rotate(270,2,-3)">2</text><text x="-2" y="-10" font-family="Verdana" font-size="7pt" fill="#0000FF" text-anchor="start" c_pinnumber="2" display="none" transform="rotate(270,-2,-10)">2</text><circle c_pindot="true" class="pindot" cx="-1" cy="-15" r="2" fill="#4F4F4F" stroke="none"/><path d="M -1 -15 v 10" fill="none" stroke="#880000" strokeWidth="1"/><circle cx="-1" cy="-8" r="3" stroke="#880000" fill="none" strokeWidth="1" display="none"/><path d="M -4 -5 L -1 -2 L 2 -5" fill="none" stroke="#880000" strokeWidth="1" display="none"/></g><ellipse cx="10" cy="2" rx="1" ry="1" id="gge72" locked="0" stroke="#A00000" strokeWidth="1" fill="none" c_shapetype="line"/><polygon points="-3 -5 -1 -1 1 -5" stroke="#880000" id="gge73" locked="0" strokeWidth="1" c_shapetype="line" fill="none" stroke-linecap="round"/><g c_partid="part_pin" c_etype="pinpart" c_shapetype="group" c_show="show" c_elec="0" c_spicepin="1" c_origin="19,5" id="gge74" locked="0" c_rotation="0"><text x="6" y="8" font-family="Verdana" font-size="7pt" fill="#8D2323" text-anchor="end" c_pinname="1" display="none">1</text><text x="13" y="4" font-family="Verdana" font-size="7pt" fill="#8D2323" text-anchor="start" c_pinnumber="1" display="none">1</text><circle c_pindot="true" class="pindot" cx="19" cy="5" r="2" fill="#4F4F4F" stroke="none"/><path d="M 19 5 h -10" fill="none" stroke="#8D2323" strokeWidth="1"/><circle cx="12" cy="5" r="3" stroke="#8D2323" fill="none" strokeWidth="1" display="none"/><path d="M 9 2 L 6 5 L 9 8" fill="none" stroke="#8D2323" strokeWidth="1" display="none"/></g><g c_partid="part_pin" c_etype="pinpart" c_shapetype="group" c_show="show" c_elec="0" c_spicepin="3" c_origin="-21,5" id="gge81" locked="0" c_rotation="180"><text x="-7" y="8" font-family="Verdana" font-size="7pt" fill="#8D2323" text-anchor="start" c_pinname="3" display="none">3</text><text x="-15" y="4" font-family="Verdana" font-size="7pt" fill="#8D2323" text-anchor="end" c_pinnumber="3" display="none">3</text><circle c_pindot="true" class="pindot" cx="-21" cy="5" r="2" fill="#4F4F4F" stroke="none"/><path d="M -21 5 h 10" fill="none" stroke="#8D2323" strokeWidth="1"/><circle cx="-14" cy="5" r="3" stroke="#8D2323" fill="none" strokeWidth="1" display="none"/><path d="M -11 8 L -8 5 L -11 2" fill="none" stroke="#8D2323" strokeWidth="1" display="none"/></g><polyline points="-1 -5 -1 -1" stroke="#880000" id="gge88" locked="0" strokeWidth="1" c_shapetype="line" fill="none" stroke-linecap="round"/><polyline points="8 9 9 5" stroke="#8D2323" id="gge89" locked="0" strokeWidth="1" c_shapetype="line" fill="none" stroke-linecap="round"/><polyline points="5 1 8 9" stroke="#8D2323" id="gge90" locked="0" strokeWidth="1" c_shapetype="line" fill="none" stroke-linecap="round"/><polyline points="3 9 5 1" stroke="#8D2323" id="gge91" locked="0" strokeWidth="1" c_shapetype="line" fill="none" stroke-linecap="round"/><polyline points="0 1 3 9" stroke="#8D2323" id="gge92" locked="0" strokeWidth="1" c_shapetype="line" fill="none" stroke-linecap="round"/><polyline points="-2 9 0 1" stroke="#8D2323" id="gge93" locked="0" strokeWidth="1" c_shapetype="line" fill="none" stroke-linecap="round"/><polyline points="-4 1 -2 9" stroke="#8D2323" id="gge94" locked="0" strokeWidth="1" c_shapetype="line" fill="none" stroke-linecap="round"/><polyline points="-7 9 -4 1" stroke="#8D2323" id="gge95" locked="0" strokeWidth="1" c_shapetype="line" fill="none" stroke-linecap="round"/><polyline points="-9 1 -7 9" stroke="#8D2323" id="gge96" locked="0" strokeWidth="1" c_shapetype="line" fill="none" stroke-linecap="round"/><polyline points="-11 5 -9 1" stroke="#8D2323" id="gge97" locked="0" strokeWidth="1" c_shapetype="line" fill="none" stroke-linecap="round"/></g></svg>
