<svg xmlns="http://www.w3.org/2000/svg" xmlns:xlink="http://www.w3.org/1999/xlink" fill="none" version="1.1" width="90" height="30" viewBox="0 0 90 30"><defs><clipPath id="master_svg0_31_602"><rect x="0" y="0" width="90" height="30" rx="0"/></clipPath></defs><g clip-path="url(#master_svg0_31_602)"><g><g><g><g><g><g><rect x="26.505338668823242" y="5" width="35.96364212036133" height="20" rx="0" fill-opacity="0" stroke-opacity="1" stroke="#A00100" fill="none" stroke-width="2" style="mix-blend-mode:passthrough"/></g></g></g><g><g><g><path d="M84.70623063964844,15.30235174331665L78.32043063964844,22.373401743316652Q78.17923063964844,22.52970174331665,77.99493063964843,22.614301743316652Q77.81043063964844,22.69890174331665,77.61093063964844,22.69890174331665Q77.41133063964844,22.69890174331665,77.22683063964844,22.614301743316652Q77.04243063964844,22.52970174331665,76.90133063964844,22.373401743316652Q76.83143063964843,22.29600174331665,76.77653063964844,22.20500174331665Q76.72163063964844,22.114101743316652,76.68383063964843,22.01290174331665Q76.64603063964844,21.91180174331665,76.62673063964844,21.80450174331665Q76.60743063964844,21.69720174331665,76.60743063964844,21.58770174331665Q76.60743063964844,21.47830174331665,76.62673063964844,21.37100174331665Q76.64603063964844,21.26360174331665,76.68383063964843,21.16250174331665Q76.72163063964844,21.06140174331665,76.77653063964844,20.97040174331665Q76.83143063964843,20.879501743316652,76.90133063964844,20.802101743316648L81.57413063964844,15.627791743316651L63.47203063964844,15.627791743316651L63.47203063964844,13.40557174331665L81.57413063964844,13.40557174331665L76.90133063964844,8.23129174331665Q76.83143063964843,8.15390174331665,76.77653063964844,8.06291174331665Q76.72163063964844,7.971921743316651,76.68383063964843,7.870811743316651Q76.64603063964844,7.76971174331665,76.62673063964844,7.662381743316651Q76.60743063964844,7.55504174331665,76.60743063964844,7.44561174331665Q76.60743063964844,7.336181743316651,76.62673063964844,7.228845743316651Q76.64603063964844,7.12151274331665,76.68383063964843,7.02041274331665Q76.72163063964844,6.91930174331665,76.77653063964844,6.82831274331665Q76.83143063964843,6.737323743316651,76.90133063964844,6.659934743316651Q77.04243063964844,6.5036577433166505,77.22683063964844,6.41907974331665Q77.41133063964844,6.33450174331665,77.61093063964844,6.33450174331665Q77.81043063964844,6.33450174331665,77.99493063964843,6.41907974331665Q78.17923063964844,6.5036577433166505,78.32043063964844,6.659934743316651L84.70623063964844,13.73100174331665Q84.84733063964843,13.887301743316652,84.92363063964844,14.09149174331665Q85.00003063964843,14.29567174331665,85.00003063964843,14.516681743316651Q85.00003063964843,14.73769174331665,84.92363063964844,14.94188174331665Q84.84733063964843,15.14607174331665,84.70623063964844,15.30235174331665Z" fill="#A00100" fill-opacity="1" style="mix-blend-mode:passthrough"/></g></g></g><g><g><g><path d="M80.08813063964844,15.30235174331665L73.70233063964844,22.373401743316652Q73.56123063964844,22.52970174331665,73.37682063964844,22.614301743316652Q73.19242063964843,22.69890174331665,72.99283063964843,22.69890174331665Q72.79324063964845,22.69890174331665,72.60884063964843,22.614301743316652Q72.42443063964843,22.52970174331665,72.28330063964844,22.373401743316652Q72.21342063964843,22.29600174331665,72.15851063964844,22.20500174331665Q72.10361063964844,22.114101743316652,72.06578063964844,22.01290174331665Q72.02797063964843,21.91180174331665,72.00868063964843,21.80450174331665Q71.98940063964844,21.69720174331665,71.98940063964844,21.58770174331665Q71.98940063964844,21.47830174331665,72.00868063964843,21.37100174331665Q72.02797063964843,21.26360174331665,72.06578063964844,21.16250174331665Q72.10361063964844,21.06140174331665,72.15851063964844,20.97040174331665Q72.21342063964843,20.879501743316652,72.28330063964844,20.802101743316648L76.95613063964844,15.627791743316651L63.47203063964844,15.627791743316651L63.47203063964844,13.40557174331665L76.95613063964844,13.40557174331665L72.28330063964844,8.23129174331665Q72.21342063964843,8.15390174331665,72.15851063964844,8.06291174331665Q72.10361063964844,7.971921743316651,72.06578063964844,7.870811743316651Q72.02797063964843,7.76971174331665,72.00868063964843,7.662381743316651Q71.98940063964844,7.55504174331665,71.98940063964844,7.44561174331665Q71.98940063964844,7.336181743316651,72.00868063964843,7.228845743316651Q72.02797063964843,7.12151274331665,72.06578063964844,7.02041274331665Q72.10361063964844,6.91930174331665,72.15851063964844,6.82831274331665Q72.21342063964843,6.737323743316651,72.28330063964844,6.659934743316651Q72.42444063964844,6.5036577433166505,72.60884063964843,6.41907974331665Q72.79324063964845,6.33450174331665,72.99283063964843,6.33450174331665Q73.19242063964843,6.33450174331665,73.37682063964844,6.41907974331665Q73.56123063964844,6.5036577433166505,73.70233063964844,6.659934743316651L80.08813063964844,13.73100174331665Q80.22923063964843,13.887301743316652,80.30573063964843,14.09149174331665Q80.38203063964843,14.29567174331665,80.38203063964843,14.516681743316651Q80.38203063964843,14.73769174331665,80.30573063964843,14.94188174331665Q80.22923063964843,15.14607174331665,80.08813063964844,15.30235174331665Z" fill="#A00100" fill-opacity="1" style="mix-blend-mode:passthrough"/></g></g></g><g><g><g><path d="M11.67966,7.143118127258301L5.293902,14.2141951272583Q5.228804,14.2862751272583,5.17664,14.3702651272583Q5.127198,14.449885127258302,5.090909,14.537745127258301Q5.0546193,14.6256151272583,5.0325708,14.719095127258301Q5.0105214,14.8125751272583,5.00337601,14.9088751272583Q4.99623299,15.005165127258302,5.00420284,15.1013851272583Q5.0121741,15.197595127258301,5.0350246,15.2908451272583Q5.0578742,15.3840851272583,5.0949163,15.4715651272583Q5.131959,15.559045127258301,5.182081,15.6381351272583Q5.232204,15.7172251272583,5.293902,15.785535127258301L11.67966,22.856585127258302Q11.74954,22.9339851272583,11.831710000000001,22.9947851272583Q11.913879999999999,23.0555851272583,12.005189999999999,23.097485127258302Q12.09649,23.1393851272583,12.19343,23.1606851272583Q12.29036,23.1820851272583,12.38918,23.1820851272583Q12.48801,23.1820851272583,12.58494,23.1606851272583Q12.68187,23.1393851272583,12.77317,23.097485127258302Q12.86448,23.0555851272583,12.94666,22.9947851272583Q13.02882,22.9339851272583,13.09871,22.856585127258302Q13.16859,22.7791851272583,13.2235,22.6881851272583Q13.27841,22.597285127258303,13.31623,22.4960851272583Q13.35404,22.394985127258302,13.37333,22.2876851272583Q13.39261,22.1803851272583,13.39261,22.0708851272583Q13.39261,21.9614851272583,13.37333,21.8541851272583Q13.35404,21.7467851272583,13.31623,21.6456851272583Q13.27841,21.5445851272583,13.2235,21.4535851272583Q13.16859,21.362685127258302,13.09871,21.285285127258298L8.42591,16.1109751272583L26.0149,16.1109751272583L26.0149,13.8887551272583L8.42591,13.8887551272583L13.09871,8.7144751272583Q13.16859,8.6370851272583,13.2235,8.546095127258301Q13.27841,8.455105127258301,13.31623,8.353995127258301Q13.35404,8.2528951272583,13.37333,8.145565127258301Q13.39261,8.0382251272583,13.39261,7.928795127258301Q13.39261,7.819365127258301,13.37333,7.7120301272583Q13.35404,7.6046961272583005,13.31623,7.503596127258301Q13.27841,7.4024851272583,13.2235,7.311496127258301Q13.16859,7.220507127258301,13.09871,7.143118127258301Q13.02882,7.065740127258301,12.94666,7.0049411272583Q12.86448,6.944141127258301,12.77317,6.9022631272583Q12.68187,6.860385427258301,12.58494,6.8390407272583005Q12.48801,6.817685127258301,12.38918,6.817685127258301Q12.29036,6.817685127258301,12.19343,6.8390407272583005Q12.09649,6.860385427258301,12.005189999999999,6.9022631272583Q11.913879999999999,6.944141127258301,11.831710000000001,7.0049411272583Q11.74954,7.065740127258301,11.67966,7.143118127258301Z" fill="#A00100" fill-opacity="1" style="mix-blend-mode:passthrough"/></g></g></g><g><g><g><path d="M16.810843624267577,7.143118127258301L10.425084624267578,14.2141951272583Q10.359988624267578,14.2862751272583,10.307823624267579,14.3702651272583Q10.258380624267579,14.449885127258302,10.222092624267578,14.537745127258301Q10.185802424267578,14.6256151272583,10.163754424267578,14.719095127258301Q10.141705524267579,14.8125751272583,10.134560584267579,14.9088751272583Q10.127416614267577,15.005165127258302,10.135387424267579,15.1013851272583Q10.143358224267578,15.197595127258301,10.166208224267578,15.2908451272583Q10.189058324267577,15.3840851272583,10.226099924267578,15.4715651272583Q10.263141624267577,15.559045127258301,10.313264624267578,15.6381351272583Q10.363386624267578,15.7172251272583,10.425084624267578,15.785535127258301L16.810843624267577,22.856585127258302Q16.880723624267578,22.9339851272583,16.96289362426758,22.9947851272583Q17.045063624267577,23.0555851272583,17.136373624267577,23.097485127258302Q17.227673624267577,23.1393851272583,17.324603624267578,23.1606851272583Q17.42153362426758,23.1820851272583,17.520363624267578,23.1820851272583Q17.619193624267577,23.1820851272583,17.716123624267578,23.1606851272583Q17.813053624267578,23.1393851272583,17.90435362426758,23.097485127258302Q17.99566362426758,23.0555851272583,18.07784362426758,22.9947851272583Q18.160013624267577,22.9339851272583,18.22989362426758,22.856585127258302Q18.29977362426758,22.7791851272583,18.35468362426758,22.6881851272583Q18.40959362426758,22.597285127258303,18.447413624267575,22.4960851272583Q18.485223624267576,22.394985127258302,18.504513624267577,22.2876851272583Q18.523793624267576,22.1803851272583,18.523793624267576,22.0708851272583Q18.523793624267576,21.9614851272583,18.504513624267577,21.8541851272583Q18.485223624267576,21.7467851272583,18.447413624267575,21.6456851272583Q18.40959362426758,21.5445851272583,18.35468362426758,21.4535851272583Q18.29977362426758,21.362685127258302,18.22989362426758,21.285285127258298L13.557093624267578,16.1109751272583L27.04118362426758,16.1109751272583L27.04118362426758,13.8887551272583L13.557093624267578,13.8887551272583L18.22989362426758,8.7144751272583Q18.29977362426758,8.6370851272583,18.35468362426758,8.546095127258301Q18.40959362426758,8.455105127258301,18.447413624267575,8.353995127258301Q18.485223624267576,8.2528951272583,18.504513624267577,8.145565127258301Q18.523793624267576,8.0382251272583,18.523793624267576,7.928795127258301Q18.523793624267576,7.819365127258301,18.504513624267577,7.7120301272583Q18.485223624267576,7.6046961272583005,18.447413624267575,7.503596127258301Q18.40959362426758,7.4024851272583,18.35468362426758,7.311496127258301Q18.29977362426758,7.220507127258301,18.22989362426758,7.143118127258301Q18.160013624267577,7.065740127258301,18.07784362426758,7.0049411272583Q17.99566362426758,6.944141127258301,17.90435362426758,6.9022631272583Q17.813053624267578,6.860385427258301,17.716123624267578,6.8390407272583005Q17.619193624267577,6.817685127258301,17.520363624267578,6.817685127258301Q17.42153362426758,6.817685127258301,17.324603624267578,6.8390407272583005Q17.227673624267577,6.860385427258301,17.136373624267577,6.9022631272583Q17.045063624267577,6.944141127258301,16.96289362426758,7.0049411272583Q16.880723624267578,7.065740127258301,16.810843624267577,7.143118127258301Z" fill="#A00100" fill-opacity="1" style="mix-blend-mode:passthrough"/></g></g></g></g><g><g><g><ellipse cx="85.00442600250244" cy="14.999977111816406" rx="3.0045480728149414" ry="3" fill="#4F4F4F" fill-opacity="1" style="mix-blend-mode:passthrough"/></g></g></g><g><g><g><ellipse cx="5.004548072814941" cy="14.999977111816406" rx="3.0045480728149414" ry="3" fill="#4F4F4F" fill-opacity="1" style="mix-blend-mode:passthrough"/></g></g></g></g></g></g></svg>