<svg xmlns="http://www.w3.org/2000/svg" xmlns:xlink="http://www.w3.org/1999/xlink" fill="none" version="1.1" width="90" height="30" viewBox="0 0 90 30"><defs><clipPath id="master_svg0_6_25"><rect x="0" y="0" width="90" height="30" rx="0"/></clipPath></defs><g clip-path="url(#master_svg0_6_25)"><g><g><g><g><rect x="26.505338668823242" y="5" width="35.96364212036133" height="20" rx="0" fill-opacity="0" stroke-opacity="1" stroke="#A00100" fill="none" stroke-width="2" style="mix-blend-mode:passthrough"/></g></g><g><g><path d="M84.70623063964844,15.30235174331665L78.32043063964844,22.373401743316652Q78.17923063964844,22.52970174331665,77.99493063964843,22.614301743316652Q77.81043063964844,22.69890174331665,77.61093063964844,22.69890174331665Q77.41133063964844,22.69890174331665,77.22683063964844,22.614301743316652Q77.04243063964844,22.52970174331665,76.90133063964844,22.373401743316652Q76.83143063964843,22.29600174331665,76.77653063964844,22.20500174331665Q76.72163063964844,22.114101743316652,76.68383063964843,22.01290174331665Q76.64603063964844,21.91180174331665,76.62673063964844,21.80450174331665Q76.60743063964844,21.69720174331665,76.60743063964844,21.58770174331665Q76.60743063964844,21.47830174331665,76.62673063964844,21.37100174331665Q76.64603063964844,21.26360174331665,76.68383063964843,21.16250174331665Q76.72163063964844,21.06140174331665,76.77653063964844,20.97040174331665Q76.83143063964843,20.879501743316652,76.90133063964844,20.802101743316648L81.57413063964844,15.627791743316651L63.47203063964844,15.627791743316651L63.47203063964844,13.40557174331665L81.57413063964844,13.40557174331665L76.90133063964844,8.23129174331665Q76.83143063964843,8.15390174331665,76.77653063964844,8.06291174331665Q76.72163063964844,7.971921743316651,76.68383063964843,7.870811743316651Q76.64603063964844,7.76971174331665,76.62673063964844,7.662381743316651Q76.60743063964844,7.55504174331665,76.60743063964844,7.44561174331665Q76.60743063964844,7.336181743316651,76.62673063964844,7.228845743316651Q76.64603063964844,7.12151274331665,76.68383063964843,7.02041274331665Q76.72163063964844,6.91930174331665,76.77653063964844,6.82831274331665Q76.83143063964843,6.737323743316651,76.90133063964844,6.659934743316651Q77.04243063964844,6.5036577433166505,77.22683063964844,6.419079643316651Q77.41133063964844,6.33450174331665,77.61093063964844,6.33450174331665Q77.81043063964844,6.33450174331665,77.99493063964843,6.419079643316651Q78.17923063964844,6.5036577433166505,78.32043063964844,6.659934743316651L84.70623063964844,13.73100174331665Q84.84733063964843,13.887301743316652,84.92363063964844,14.09149174331665Q85.00003063964843,14.29567174331665,85.00003063964843,14.516681743316651Q85.00003063964843,14.73769174331665,84.92363063964844,14.94188174331665Q84.84733063964843,15.14607174331665,84.70623063964844,15.30235174331665Z" fill="#A00100" fill-opacity="1" style="mix-blend-mode:passthrough"/></g></g><g><g><path d="M80.08813063964844,15.30235174331665L73.70233063964844,22.373401743316652Q73.56123063964844,22.52970174331665,73.37682063964844,22.614301743316652Q73.19242063964843,22.69890174331665,72.99283063964843,22.69890174331665Q72.79324063964845,22.69890174331665,72.60884063964843,22.614301743316652Q72.42443063964843,22.52970174331665,72.28330063964844,22.373401743316652Q72.21342063964843,22.29600174331665,72.15851063964844,22.20500174331665Q72.10361063964844,22.114101743316652,72.06578063964844,22.01290174331665Q72.02797063964843,21.91180174331665,72.00868063964843,21.80450174331665Q71.98940063964844,21.69720174331665,71.98940063964844,21.58770174331665Q71.98940063964844,21.47830174331665,72.00868063964843,21.37100174331665Q72.02797063964843,21.26360174331665,72.06578063964844,21.16250174331665Q72.10361063964844,21.06140174331665,72.15851063964844,20.97040174331665Q72.21342063964843,20.879501743316652,72.28330063964844,20.802101743316648L76.95613063964844,15.627791743316651L63.47203063964844,15.627791743316651L63.47203063964844,13.40557174331665L76.95613063964844,13.40557174331665L72.28330063964844,8.23129174331665Q72.21342063964843,8.15390174331665,72.15851063964844,8.06291174331665Q72.10361063964844,7.971921743316651,72.06578063964844,7.870811743316651Q72.02797063964843,7.76971174331665,72.00868063964843,7.662381743316651Q71.98940063964844,7.55504174331665,71.98940063964844,7.44561174331665Q71.98940063964844,7.336181743316651,72.00868063964843,7.228845743316651Q72.02797063964843,7.12151274331665,72.06578063964844,7.02041274331665Q72.10361063964844,6.91930174331665,72.15851063964844,6.82831274331665Q72.21342063964843,6.737323743316651,72.28330063964844,6.659934743316651Q72.42444063964844,6.5036577433166505,72.60884063964843,6.419079643316651Q72.79324063964845,6.33450174331665,72.99283063964843,6.33450174331665Q73.19242063964843,6.33450174331665,73.37682063964844,6.419079643316651Q73.56123063964844,6.5036577433166505,73.70233063964844,6.659934743316651L80.08813063964844,13.73100174331665Q80.22923063964843,13.887301743316652,80.30573063964843,14.09149174331665Q80.38203063964843,14.29567174331665,80.38203063964843,14.516681743316651Q80.38203063964843,14.73769174331665,80.30573063964843,14.94188174331665Q80.22923063964843,15.14607174331665,80.08813063964844,15.30235174331665Z" fill="#A00100" fill-opacity="1" style="mix-blend-mode:passthrough"/></g></g><g><g><path d="M11.67966,7.143118246467591L5.293902,14.21419524646759Q5.228804,14.28627524646759,5.17664,14.37026524646759Q5.127198,14.449885246467591,5.0909088,14.53774524646759Q5.0546193,14.62561524646759,5.0325709,14.71909524646759Q5.0105216,14.81257524646759,5.00337608,14.90887524646759Q4.99623301,15.005165246467591,5.00420288,15.10138524646759Q5.0121742,15.197595246467591,5.0350245,15.29084524646759Q5.0578743,15.38408524646759,5.0949165,15.47156524646759Q5.131959,15.55904524646759,5.182081,15.63813524646759Q5.232204,15.71722524646759,5.293902,15.78553524646759L11.67966,22.856585246467592Q11.74954,22.93398524646759,11.831710000000001,22.99478524646759Q11.913879999999999,23.05558524646759,12.005189999999999,23.097485246467592Q12.09649,23.13938524646759,12.19343,23.16068524646759Q12.29036,23.18208524646759,12.38918,23.18208524646759Q12.48801,23.18208524646759,12.58494,23.16068524646759Q12.68187,23.13938524646759,12.77317,23.097485246467592Q12.86448,23.05558524646759,12.94666,22.99478524646759Q13.02882,22.93398524646759,13.09871,22.856585246467592Q13.16859,22.77918524646759,13.2235,22.68818524646759Q13.27841,22.597285246467592,13.31623,22.49608524646759Q13.35404,22.39498524646759,13.37333,22.28768524646759Q13.39261,22.18038524646759,13.39261,22.07088524646759Q13.39261,21.96148524646759,13.37333,21.85418524646759Q13.35404,21.74678524646759,13.31623,21.64568524646759Q13.27841,21.54458524646759,13.2235,21.45358524646759Q13.16859,21.362685246467592,13.09871,21.285285246467588L8.42591,16.11097524646759L26.0149,16.11097524646759L26.0149,13.88875524646759L8.42591,13.88875524646759L13.09871,8.71447524646759Q13.16859,8.63708524646759,13.2235,8.54609524646759Q13.27841,8.45510524646759,13.31623,8.35399524646759Q13.35404,8.25289524646759,13.37333,8.14556524646759Q13.39261,8.03822524646759,13.39261,7.92879524646759Q13.39261,7.819365246467591,13.37333,7.71203024646759Q13.35404,7.60469624646759,13.31623,7.50359624646759Q13.27841,7.40248524646759,13.2235,7.31149624646759Q13.16859,7.220507246467591,13.09871,7.143118246467591Q13.02882,7.06574024646759,12.94666,7.00494124646759Q12.86448,6.9441412464675905,12.77317,6.9022631464675905Q12.68187,6.86038524646759,12.58494,6.83904094646759Q12.48801,6.81768524646759,12.38918,6.81768524646759Q12.29036,6.81768524646759,12.19343,6.83904094646759Q12.09649,6.86038524646759,12.005189999999999,6.9022631464675905Q11.913879999999999,6.9441412464675905,11.831710000000001,7.00494124646759Q11.74954,7.06574024646759,11.67966,7.143118246467591Z" fill="#A00100" fill-opacity="1" style="mix-blend-mode:passthrough"/></g></g><g><g><path d="M16.810844101104735,7.143118246467591L10.425085101104736,14.21419524646759Q10.359988101104737,14.28627524646759,10.307823101104736,14.37026524646759Q10.258381101104737,14.449885246467591,10.222092501104736,14.53774524646759Q10.185802401104736,14.62561524646759,10.163754501104737,14.71909524646759Q10.141705701104737,14.81257524646759,10.134560181104737,14.90887524646759Q10.127416631104737,15.005165246467591,10.135386981104736,15.10138524646759Q10.143358301104737,15.197595246467591,10.166208101104736,15.29084524646759Q10.189057901104736,15.38408524646759,10.226100101104736,15.47156524646759Q10.263142101104735,15.55904524646759,10.313265101104736,15.63813524646759Q10.363387101104736,15.71722524646759,10.425085101104736,15.78553524646759L16.810844101104735,22.856585246467592Q16.880724101104736,22.93398524646759,16.962894101104737,22.99478524646759Q17.045064101104735,23.05558524646759,17.136374101104735,23.097485246467592Q17.227674101104736,23.13938524646759,17.324604101104736,23.16068524646759Q17.421534101104736,23.18208524646759,17.520364101104736,23.18208524646759Q17.619194101104735,23.18208524646759,17.716124101104736,23.16068524646759Q17.813054101104736,23.13938524646759,17.904354101104737,23.097485246467592Q17.995664101104737,23.05558524646759,18.077844101104738,22.99478524646759Q18.160014101104736,22.93398524646759,18.229894101104737,22.856585246467592Q18.299774101104738,22.77918524646759,18.354684101104738,22.68818524646759Q18.409594101104737,22.597285246467592,18.447414101104734,22.49608524646759Q18.485224101104734,22.39498524646759,18.504514101104736,22.28768524646759Q18.523794101104734,22.18038524646759,18.523794101104734,22.07088524646759Q18.523794101104734,21.96148524646759,18.504514101104736,21.85418524646759Q18.485224101104734,21.74678524646759,18.447414101104734,21.64568524646759Q18.409594101104737,21.54458524646759,18.354684101104738,21.45358524646759Q18.299774101104738,21.362685246467592,18.229894101104737,21.285285246467588L13.557094101104736,16.11097524646759L27.041184101104736,16.11097524646759L27.041184101104736,13.88875524646759L13.557094101104736,13.88875524646759L18.229894101104737,8.71447524646759Q18.299774101104738,8.63708524646759,18.354684101104738,8.54609524646759Q18.409594101104737,8.45510524646759,18.447414101104734,8.35399524646759Q18.485224101104734,8.25289524646759,18.504514101104736,8.14556524646759Q18.523794101104734,8.03822524646759,18.523794101104734,7.92879524646759Q18.523794101104734,7.819365246467591,18.504514101104736,7.71203024646759Q18.485224101104734,7.60469624646759,18.447414101104734,7.50359624646759Q18.409594101104737,7.40248524646759,18.354684101104738,7.31149624646759Q18.299774101104738,7.220507246467591,18.229894101104737,7.143118246467591Q18.160014101104736,7.06574024646759,18.077844101104738,7.00494124646759Q17.995664101104737,6.9441412464675905,17.904354101104737,6.9022631464675905Q17.813054101104736,6.86038524646759,17.716124101104736,6.83904094646759Q17.619194101104735,6.81768524646759,17.520364101104736,6.81768524646759Q17.421534101104736,6.81768524646759,17.324604101104736,6.83904094646759Q17.227674101104736,6.86038524646759,17.136374101104735,6.9022631464675905Q17.045064101104735,6.9441412464675905,16.962894101104737,7.00494124646759Q16.880724101104736,7.06574024646759,16.810844101104735,7.143118246467591Z" fill="#A00100" fill-opacity="1" style="mix-blend-mode:passthrough"/></g></g></g><g><g><ellipse cx="85.00442600250244" cy="14.999977111816406" rx="3.0045480728149414" ry="3" fill="#4F4F4F" fill-opacity="1" style="mix-blend-mode:passthrough"/></g></g><g><g><ellipse cx="5.004548072814941" cy="14.999977111816406" rx="3.0045480728149414" ry="3" fill="#4F4F4F" fill-opacity="1" style="mix-blend-mode:passthrough"/></g></g></g></g></svg>